<?xml version="1.0" encoding="UTF-8"?>
<svg version="1.1" xmlns="http://www.w3.org/2000/svg" width="512" height="512">
<path d="M0 0 C11.93389244 10.98210961 19.96863387 25.93211547 22.875 41.8125 C23.00519531 42.51761719 23.13539063 43.22273438 23.26953125 43.94921875 C26.31848943 63.99103716 20.69959643 83.57751982 8.875 99.8125 C-2.66430055 114.52073726 -19.41243808 125.20597695 -38.125 127.8125 C-59.73421271 129.73386866 -79.983824 125.70897648 -97 111.5 C-112.36054552 98.0395398 -121.04179479 80.80510916 -122.9375 60.5 C-123.92426151 39.90397776 -117.90890383 20.99453215 -104.33203125 5.55078125 C-76.23541797 -24.79093085 -31.41715558 -25.51867775 0 0 Z " fill="#EA4F06" transform="translate(408.125,374.1875)"/>
<path d="M0 0 C16.53474733 14.40435529 25.76472062 32.58108874 27.328125 54.46875 C27.71685071 76.49653996 19.87295607 94.97309796 4.9765625 110.92578125 C-3.78959697 119.31717925 -15.28629845 125.2479244 -26.875 128.625 C-27.98101562 128.96144531 -27.98101562 128.96144531 -29.109375 129.3046875 C-48.62924491 134.21830993 -68.95079644 129.69578994 -86.03369141 119.76660156 C-99.4678509 111.43749393 -108.83028761 99.10291295 -114.875 84.625 C-115.28878906 83.65046875 -115.70257813 82.6759375 -116.12890625 81.671875 C-121.60019099 66.19214256 -121.31211351 45.74072191 -114.875 30.625 C-114.400625 29.47386719 -113.92625 28.32273438 -113.4375 27.13671875 C-105.07517709 8.74362869 -90.47582985 -4.27915986 -71.72900391 -11.69091797 C-47.73165984 -20.54535016 -19.93341651 -15.71093214 0 0 Z " fill="#EA4F06" transform="translate(118.875,184.375)"/>
<path d="M0 0 C3.64916869 2.99937444 6.95922028 6.26509738 10.22705078 9.671875 C11.13003906 10.58066406 11.13003906 10.58066406 12.05126953 11.5078125 C25.33511333 25.80276252 29.82323148 44.86856818 29.50048828 63.8359375 C28.68461523 84.0065811 19.45181858 101.3047636 4.78955078 114.984375 C0.25971215 118.83120503 -4.53440445 121.88221122 -9.77294922 124.671875 C-10.61470703 125.125625 -11.45646484 125.579375 -12.32373047 126.046875 C-29.50686811 134.60025907 -49.63058726 134.93922816 -67.75927734 129.36083984 C-77.62986232 125.98368286 -86.04439428 120.61920417 -93.77294922 113.671875 C-94.38396484 113.15367187 -94.99498047 112.63546875 -95.62451172 112.1015625 C-107.96034849 100.89228616 -115.55638546 83.55974835 -116.99438477 67.14404297 C-117.89209076 47.42513646 -114.01671368 27.90174331 -100.69238281 12.64233398 C-98.46200278 10.23356958 -96.13618471 7.95108434 -93.77294922 5.671875 C-93.14001953 5.00800781 -92.50708984 4.34414063 -91.85498047 3.66015625 C-68.27875453 -19.49971249 -25.64115248 -19.20791372 0 0 Z " fill="#EA4F06" transform="translate(418.77294921875,23.328125)"/>
<path d="M0 0 C3.7556117 3.36976118 6.11760932 7.12135229 8.625 11.4375 C9.05594971 12.17830811 9.48689941 12.91911621 9.9309082 13.68237305 C18.73245761 29.08787738 25.70233982 45.07595454 31 62 C31.23557617 62.74813965 31.47115234 63.4962793 31.71386719 64.26708984 C37.3557079 82.50850493 41.06811534 101.65101515 41.23828125 120.7734375 C41.24812042 121.68656204 41.25795959 122.59968658 41.26809692 123.54048157 C41.772986 182.58653958 26.71140214 237.52820577 -11 284 C-13 283 -13 283 -14.0078125 280.1484375 C-14.37648438 278.90320313 -14.74515625 277.65796875 -15.125 276.375 C-21.30264105 256.8242235 -33.36747446 242.02189464 -48 228 C-46.63225991 224.45815964 -45.09055472 221.0699099 -43.390625 217.67578125 C-21.57737234 173.62436506 -15.83513895 127.45981903 -30 80 C-33.06332704 70.96168361 -36.65944324 62.14022998 -41.35888672 53.82641602 C-42.18029467 51.48637304 -41.88964619 50.28851546 -41 48 C-39.06640625 46.39453125 -39.06640625 46.39453125 -36.5625 44.8125 C-21.87202237 34.95606843 -12.32489002 22.33063259 -4 7 C-2.67722012 4.66045217 -1.33948646 2.33005591 0 0 Z " fill="#EA4F06" transform="translate(471,121)"/>
<path d="M0 0 C1.7890625 2.66796875 1.7890625 2.66796875 3.625 6.1875 C24.89931718 45.35478593 61.6039294 73.22960158 103.72265625 86.8046875 C114.87088714 90.05817851 126.478743 92.52783938 138 94 C138.09796875 95.12535156 138.1959375 96.25070312 138.296875 97.41015625 C140.20076711 117.62820494 145.50575619 135.99936919 157.3984375 152.64453125 C159 155 159 155 160 158 C105.45140519 159.54869828 49.33090298 141.95212173 7 107 C6.00613281 106.20851563 5.01226562 105.41703125 3.98828125 104.6015625 C-10.40398683 92.97484965 -23.92335273 79.62501789 -34.80566406 64.63867188 C-36.00233421 62.99679738 -37.22858707 61.38083212 -38.4609375 59.765625 C-48.42674626 46.50473318 -56.4493887 31.88695608 -63.3125 16.8125 C-63.70381104 15.9570459 -64.09512207 15.1015918 -64.49829102 14.22021484 C-64.84561279 13.43211426 -65.19293457 12.64401367 -65.55078125 11.83203125 C-65.85669189 11.13827393 -66.16260254 10.4445166 -66.4777832 9.72973633 C-67 8 -67 8 -66 6 C-64.88625 6.15597656 -63.7725 6.31195313 -62.625 6.47265625 C-43.5340909 8.9812894 -23.60272322 8.14898306 -5.9453125 -0.36328125 C-3.39740157 -1.19723603 -2.41132109 -1.21522928 0 0 Z " fill="#EA4F06" transform="translate(118,336)"/>
<path d="M0 0 C-1.28208347 3.56618363 -2.79589871 6.21383347 -5.125 9.1875 C-15.38954638 23.63072392 -20.89600095 41.48413222 -21.82421875 59.09375 C-22 61 -22 61 -23 62 C-24.48188939 62.18001627 -25.97114552 62.30007551 -27.4609375 62.39453125 C-75.90868756 65.81432343 -120.28179997 85.40243588 -153 122 C-157.27908424 127.12030842 -161.29860072 132.44790108 -165 138 C-168.42773908 137.24046816 -171.29564975 135.90909972 -174.42797852 134.32080078 C-192.03872238 125.48622197 -209.4682221 123.07074967 -229 122 C-227.61380387 117.06544313 -225.37415251 113.1279199 -222.5 108.9375 C-222.05640137 108.28338135 -221.61280273 107.6292627 -221.15576172 106.95532227 C-207.08838359 86.42072668 -190.68777906 67.3188618 -171 52 C-169.56140625 50.83597656 -169.56140625 50.83597656 -168.09375 49.6484375 C-154.18721362 38.58641992 -139.09504401 29.48923368 -123 22 C-122.31147949 21.6704834 -121.62295898 21.3409668 -120.91357422 21.00146484 C-85.56863663 4.10860439 -39.09814294 -7.22324077 0 0 Z " fill="#EA4F06" transform="translate(294,17)"/>
</svg>
