<?xml version="1.0" encoding="UTF-8"?>
<svg version="1.1" xmlns="http://www.w3.org/2000/svg" width="512" height="512">
<path d="M0 0 C0 79.86 0 159.72 0 242 C-56.64625686 243.15604606 -56.64625686 243.15604606 -78.77734375 243.31640625 C-81.38717266 243.337243 -83.9970003 243.35823984 -86.60682678 243.37937927 C-92.02294392 243.42273906 -97.43907572 243.46350787 -102.85522461 243.50268555 C-108.15571098 243.54106608 -113.45615533 243.58280674 -118.7565918 243.62768555 C-171.5068059 244.07115861 -224.24471131 244 -277 244 C-277 176.68 -277 109.36 -277 40 C-266.87489952 37.74997767 -266.87489952 37.74997767 -262.85439968 37.16044426 C-261.93573099 37.02409313 -261.01706229 36.887742 -260.07055515 36.74725902 C-259.09058112 36.60522867 -258.1106071 36.46319832 -257.10093689 36.31686401 C-256.03716798 36.15998017 -254.97339907 36.00309633 -253.87739474 35.84145844 C-250.33140136 35.31934859 -246.78473049 34.80199958 -243.23803711 34.28466797 C-240.68810624 33.91026385 -238.1382161 33.53558227 -235.58836365 33.16064453 C-229.39300113 32.25026866 -223.19710739 31.3435598 -217.00099771 30.4382845 C-211.96394555 29.70232168 -206.9270608 28.96522347 -201.89029121 28.22732925 C-186.04140509 25.90554989 -170.1919505 23.5876912 -154.34205354 21.27282299 C-141.84751038 19.44784762 -129.35385505 17.6168718 -116.86059671 15.78312348 C-104.01944635 13.89837458 -91.1776786 12.0178856 -78.33524328 10.14191163 C-71.13033504 9.08936321 -63.92568739 8.03510165 -56.72169304 6.97631454 C-49.95009592 5.98112293 -43.1776509 4.9918911 -36.40459633 4.00666809 C-33.91948029 3.64423049 -31.43464834 3.27983881 -28.95012665 2.91334915 C-25.55819219 2.4133221 -22.16530205 1.92036679 -18.77207947 1.4291687 C-17.29877235 1.20943101 -17.29877235 1.20943101 -15.79570144 0.98525417 C-14.8796405 0.85411853 -13.96357955 0.7229829 -13.01975918 0.58787346 C-12.23785731 0.47352262 -11.45595544 0.35917179 -10.65035957 0.24135578 C-7.11396144 -0.08068736 -3.55103133 0 0 0 Z " fill="#00ACEF" transform="translate(509,0)"/>
<path d="M0 0 C28.070625 -0.020625 56.14125 -0.04125 85.0625 -0.0625 C93.69929932 -0.071604 102.33609863 -0.08070801 111.23461914 -0.09008789 C122.35827637 -0.09460449 122.35827637 -0.09460449 127.67723083 -0.09544373 C131.1480635 -0.0963213 134.6188785 -0.0998221 138.08970642 -0.10557556 C184.39869721 -0.17239407 230.68976938 0.51252389 277 1 C277 80.53 277 160.06 277 242 C268.74241663 241.36480128 260.67499214 240.65200152 252.50361633 239.48181152 C251.42402922 239.33057123 250.34444211 239.17933093 249.23214024 239.0235076 C245.65591217 238.52149701 242.08053149 238.01369939 238.50512695 237.50585938 C235.92525448 237.1424662 233.34533268 236.77942315 230.7653656 236.41670227 C224.51282728 235.5369546 218.26091484 234.65283534 212.00921939 233.76712 C206.93061892 233.04769533 201.85178666 232.3299285 196.77278709 231.61332703 C196.04798126 231.51106287 195.32317543 231.40879872 194.57640579 231.30343565 C193.10378382 231.0956695 191.63116122 230.88790778 190.15853801 230.68015045 C176.38520208 228.73682814 162.61256495 226.78859074 148.84017404 224.83858389 C137.01904211 223.16496035 125.19735362 221.49531719 113.37524414 219.82861328 C99.63180636 217.89103347 85.88868855 215.95121019 72.14609689 214.0076375 C70.68247805 213.8006472 69.21885892 213.59365902 67.75523949 213.38667297 C67.03515886 213.28483659 66.31507823 213.18300021 65.57317698 213.07807788 C60.49410979 212.35993007 55.4148194 211.64337469 50.3354435 210.92741394 C43.51167866 209.96551528 36.68845268 208.9998712 29.86557961 208.03166771 C27.35583075 207.67609536 24.8459102 207.3217325 22.33581161 206.96863747 C18.92326015 206.48839524 15.51134485 206.00386768 12.0995636 205.51818848 C10.59246078 205.30763329 10.59246078 205.30763329 9.05491143 205.09282446 C7.69198946 204.89743448 7.69198946 204.89743448 6.3015337 204.69809723 C5.51344627 204.5866218 4.72535884 204.47514638 3.91338998 204.36029291 C2 204 2 204 0 203 C0 136.01 0 69.02 0 0 Z " fill="#00ACEF" transform="translate(232,268)"/>
<path d="M0 0 C27.6375 0.144375 55.275 0.28875 83.75 0.4375 C92.40186523 0.48060303 101.05373047 0.52370605 109.96777344 0.56811523 C120.72314453 0.6270752 120.72314453 0.6270752 125.79498291 0.65589905 C129.25672716 0.67530354 132.718474 0.69252798 136.18023682 0.70826721 C140.65033521 0.72866953 145.12039567 0.75322406 149.59045839 0.78030598 C151.19697112 0.78941899 152.80349175 0.79729093 154.41001844 0.80346954 C172.28570499 0.87396887 190.12325539 1.50342376 208 2 C208 68.33 208 134.66 208 203 C193.06704469 201.85131113 193.06704469 201.85131113 186.30189514 200.89941406 C185.52322962 200.79309284 184.74456409 200.68677162 183.94230264 200.57722855 C181.38427675 200.22701143 178.82704039 199.87135188 176.26977539 199.515625 C174.41559301 199.26061588 172.56136394 199.00594609 170.70709229 198.75158691 C165.70919853 198.06501162 160.71197477 197.37367058 155.71486974 196.68138123 C150.47169637 195.9557952 145.22793226 195.2345031 139.98423767 194.51269531 C131.18892551 193.3013882 122.39400922 192.08724222 113.59936523 190.87109375 C101.20010879 189.15649874 88.80010052 187.44738975 76.39995968 185.73920441 C67.79730032 184.55392244 59.19482952 183.3672728 50.59238887 182.18040466 C48.50988267 181.89309787 46.42737028 181.60583602 44.34485173 181.31861877 C38.413327 180.50052498 32.48192031 179.6815858 26.55070496 178.86125183 C24.75525277 178.61304778 22.95976154 178.36512594 21.16422844 178.11750793 C18.71244838 177.7793266 16.26081584 177.44009519 13.80921936 177.10058594 C13.10017474 177.00301624 12.39113011 176.90544655 11.66059929 176.8049202 C7.75953003 176.26335372 3.88678288 175.64779715 0 175 C0 117.25 0 59.5 0 0 Z " fill="#00ADEF" transform="translate(0,265)"/>
<path d="M0 0 C0 66.66 0 133.32 0 202 C-24.110625 202.165 -48.22125 202.33 -73.0625 202.5 C-84.29293335 202.57831055 -84.29293335 202.57831055 -95.75024414 202.65820312 C-101.88687808 202.69983051 -108.02351208 202.74119487 -114.16015625 202.78125 C-115.36138119 202.78911561 -115.36138119 202.78911561 -116.58687329 202.79714012 C-147.05830731 202.99561412 -177.52787436 203.06395893 -208 203 C-208.02332658 180.33049041 -208.04097799 157.6609828 -208.05181217 134.99146366 C-208.05697564 124.46639162 -208.06401931 113.94132703 -208.07543945 103.41625977 C-208.08538473 94.24611403 -208.09185305 85.07597368 -208.09408849 75.90582269 C-208.09539587 71.04714856 -208.09848339 66.18848984 -208.10573006 61.32982063 C-208.11248782 56.76219426 -208.11461746 52.19458974 -208.11310768 47.62695885 C-208.11338412 45.94548041 -208.11539069 44.26400129 -208.11920547 42.58252716 C-208.12413892 40.29697986 -208.1229996 38.01151642 -208.12025452 35.72596741 C-208.12117631 34.44375337 -208.1220981 33.16153933 -208.12304783 31.84047031 C-208 29 -208 29 -207 28 C-204.35577272 27.5560507 -201.72280656 27.16981585 -199.06591797 26.8167572 C-198.22455732 26.70156331 -197.38319668 26.58636942 -196.51634026 26.46768481 C-193.67549088 26.07979789 -190.83385379 25.69801484 -187.9921875 25.31616211 C-185.96408237 25.04051854 -183.93602765 24.76450388 -181.90802002 24.48814392 C-176.3839094 23.73646226 -170.85909725 22.9900554 -165.33414459 22.24459147 C-159.56595102 21.46544644 -153.79839247 20.68162909 -148.03076172 19.89833069 C-138.34314868 18.58332955 -128.65512132 17.27141909 -118.96679688 15.96166992 C-105.28491856 14.11203237 -91.6038034 12.25679857 -77.92283249 10.40046299 C-67.32370276 8.96250001 -56.72436777 7.52605095 -46.125 6.08984375 C-44.98348228 5.93515271 -43.84196457 5.78046167 -42.66585541 5.62108302 C-36.11519543 4.73347305 -29.56443352 3.84662217 -23.01351166 2.96094704 C-21.02400424 2.6918775 -19.03452724 2.42258288 -17.04508209 2.15305328 C-14.34150003 1.78682604 -11.63780783 1.4214235 -8.93408203 1.05625916 C-8.13614164 0.94799472 -7.33820126 0.83973029 -6.51608086 0.72818512 C-1.11430361 0 -1.11430361 0 0 0 Z " fill="#00ADEF" transform="translate(208,43)"/>
</svg>
