<?xml version="1.0" encoding="UTF-8"?>
<svg version="1.1" xmlns="http://www.w3.org/2000/svg" width="500" height="281">
<path d="M0 0 C165 0 330 0 500 0 C500 92.73 500 185.46 500 281 C335 281 170 281 0 281 C0 188.27 0 95.54 0 0 Z " fill="#00558C" transform="translate(0,0)"/>
<path d="M0 0 C7.65034981 -0.09211124 15.2987551 -0.17167089 22.94921875 -0.21972656 C25.54856914 -0.2397713 28.14787483 -0.26701447 30.74707031 -0.30175781 C34.4955553 -0.35058865 38.24344111 -0.37304126 41.9921875 -0.390625 C43.14363251 -0.41127014 44.29507751 -0.43191528 45.48141479 -0.45318604 C56.32302117 -0.45616273 65.31853559 2.56427367 73.2578125 10.16015625 C80.47792912 17.67047049 83.07550412 23.25643029 83.3125 33.625 C83.23654775 37.24961025 83.05543481 40.48415344 81.9375 43.9375 C80.83798387 47.52925268 80.93171772 49.41362376 82 53 C82.639375 53.928125 83.27875 54.85625 83.9375 55.8125 C88.69473051 63.16458352 88.84415364 72.02069854 87.3125 80.4375 C84.95858084 89.88564448 79.20212241 98.1436988 70.8828125 103.31640625 C68.94445311 104.30752964 67.01856357 105.18612806 65 106 C64.25994217 106.34159149 63.51988434 106.68318298 62.75740051 107.03512573 C59.63799529 108.1266733 57.22491028 108.24094699 53.92456055 108.22705078 C52.12325935 108.22682419 52.12325935 108.22682419 50.28556824 108.22659302 C48.35563774 108.21110916 48.35563774 108.21110916 46.38671875 108.1953125 C45.04865226 108.19157912 43.71058303 108.18873368 42.37251282 108.18673706 C38.86258301 108.17912616 35.35282055 108.15949982 31.84295654 108.1373291 C28.25665592 108.11681564 24.67032728 108.1076138 21.08398438 108.09765625 C14.05584213 108.0773143 7.02815851 108.03816195 0 108 C0 91.17 0 74.34 0 57 C25.4375 56.6875 25.4375 56.6875 33.41577148 56.61206055 C35.52589655 56.57974538 37.63600573 56.54636812 39.74609375 56.51171875 C41.36118835 56.50235291 41.36118835 56.50235291 43.00891113 56.49279785 C49.52721401 56.36955734 54.96356397 55.50516497 61 53 C61 52.34 61 51.68 61 51 C53.82883557 49.12926145 47.14025998 48.66422598 39.74609375 48.5859375 C38.60463394 48.56657135 37.46317413 48.5472052 36.28712463 48.5272522 C32.67065715 48.46786402 29.05415714 48.42123465 25.4375 48.375 C22.97329404 48.3367827 20.5091009 48.29772883 18.04492188 48.2578125 C12.03001774 48.16063465 6.01523666 48.08074143 0 48 C0 32.16 0 16.32 0 0 Z " fill="#EDB335" transform="translate(109,77)"/>
<path d="M0 0 C5.61 0 11.22 0 17 0 C19.59210789 4.53618881 21.56887678 8.0761853 23.3125 12.8125 C23.73144531 13.93140625 24.15039062 15.0503125 24.58203125 16.203125 C24.80713379 16.80833984 25.03223633 17.41355469 25.26416016 18.03710938 C26.64619708 21.72376395 28.07481292 25.39236227 29.5 29.0625 C29.77239502 29.76930908 30.04479004 30.47611816 30.32543945 31.2043457 C32.77218403 37.51641465 35.37977131 43.75829707 38 50 C48.12858508 74.16171609 48.12858508 74.16171609 51.91796875 84.2578125 C53.04924468 87.12480059 54.31522082 89.8979408 55.625 92.6875 C57.95578008 97.68728061 59.53628631 102.68440817 61 108 C56.05 108 51.1 108 46 108 C45.113125 105.751875 44.22625 103.50375 43.3125 101.1875 C41.02693653 95.41785354 38.57775971 89.76516166 35.8828125 84.171875 C35 82 35 82 35 79 C17.51 79 0.02 79 -18 79 C-18.33 80.65 -18.66 82.3 -19 84 C-19.6389257 85.84180803 -20.31894177 87.66968499 -21.03125 89.484375 C-21.42957031 90.50144531 -21.82789063 91.51851563 -22.23828125 92.56640625 C-22.65464844 93.61699219 -23.07101562 94.66757813 -23.5 95.75 C-24.12455078 97.34908203 -24.12455078 97.34908203 -24.76171875 98.98046875 C-27.86551339 106.86551339 -27.86551339 106.86551339 -29 108 C-31.35313555 108.07271741 -33.70833668 108.08370868 -36.0625 108.0625 C-37.99802734 108.04896484 -37.99802734 108.04896484 -39.97265625 108.03515625 C-40.97167969 108.02355469 -41.97070312 108.01195312 -43 108 C-41.61596731 99.84624219 -38.0472572 92.14194825 -34.5625 84.6875 C-32.15750546 79.52317004 -30.19099916 74.24642709 -28.23071289 68.90307617 C-26.46196094 64.12274209 -24.44932889 59.52036661 -22.28125 54.90625 C-20.70126881 51.32239023 -19.34859147 47.67591656 -18 44 C-16.35591928 39.52052833 -14.66986747 35.12868 -12.625 30.8125 C-9.62672003 24.44481745 -7.22561154 17.84849156 -4.76611328 11.2590332 C-4.43724121 10.38077881 -4.10836914 9.50252441 -3.76953125 8.59765625 C-3.47667236 7.80883057 -3.18381348 7.02000488 -2.88208008 6.20727539 C-2.03553426 4.08891924 -1.02020318 2.04040635 0 0 Z " fill="#F7FAFB" transform="translate(348,77)"/>
<path d="M0 0 C13 0 13 0 16.875 3.33984375 C17.95925836 4.84256433 18.99948911 6.3777682 20 7.9375 C21.1767336 9.60311172 22.35382519 11.26847058 23.53125 12.93359375 C24.10875 13.7829248 24.68625 14.63225586 25.28125 15.50732422 C27.88244932 19.27980222 30.69088675 22.88138711 33.5 26.5 C34.57386372 27.90552693 35.64677463 29.31178232 36.71875 30.71875 C40.11975697 35.16622065 43.55751132 39.58460309 47 44 C51.6290663 49.93944616 56.23720629 55.89401106 60.8125 61.875 C61.30298828 62.51566406 61.79347656 63.15632813 62.29882812 63.81640625 C66.9055911 69.84863506 71.4453713 75.92716173 76 82 C76.33 54.94 76.66 27.88 77 0 C81.62 0 86.24 0 91 0 C91 35.64 91 71.28 91 108 C78 108 78 108 74.59765625 105.1328125 C73.70939939 103.82520332 72.86589102 102.48639814 72.0625 101.125 C71.07983258 99.65033377 70.09402713 98.17775491 69.10546875 96.70703125 C68.35402588 95.5480835 68.35402588 95.5480835 67.58740234 94.36572266 C64.89402865 90.35175909 61.8753951 86.59912735 58.875 82.8125 C57.68892356 81.29519297 56.50400484 79.77698016 55.3203125 78.2578125 C54.75602539 77.5349707 54.19173828 76.81212891 53.61035156 76.06738281 C49.71397669 71.06518414 45.86037495 66.02999186 42 61 C40.33390747 58.83289153 38.66696381 56.66643831 37 54.5 C34.46401229 51.20376328 31.92847012 47.90718711 29.39453125 44.609375 C28.96205078 44.04669922 28.52957031 43.48402344 28.08398438 42.90429688 C26.89566421 41.35820289 25.70758852 39.81192101 24.51953125 38.265625 C21.35808849 34.16800307 18.17741557 30.08524859 15 26 C14.67 53.06 14.34 80.12 14 108 C9.38 108 4.76 108 0 108 C0 72.36 0 36.72 0 0 Z " fill="#F9FBFC" transform="translate(206,77)"/>
<path d="M0 0 C3.26405801 7.61613535 4.18174727 13.31456543 1.3125 21.1875 C-1.33708712 27.27035494 -5.09684356 30.97274029 -11 34 C-13.86293728 34.87085624 -16.41551644 35.1223073 -19.40136719 35.11352539 C-20.6922525 35.11341209 -20.6922525 35.11341209 -22.00921631 35.11329651 C-22.92914368 35.10813522 -23.84907104 35.10297394 -24.796875 35.09765625 C-26.22003021 35.09553383 -26.22003021 35.09553383 -27.67193604 35.09336853 C-30.69798962 35.08777742 -33.72396883 35.07522652 -36.75 35.0625 C-38.80338435 35.05748385 -40.85676986 35.05292115 -42.91015625 35.04882812 C-47.94015577 35.0386624 -52.96999477 35.01908518 -58 35 C-58 26.09 -58 17.18 -58 8 C-55.2053125 7.95101562 -52.410625 7.90203125 -49.53125 7.8515625 C-46.80398522 7.7974464 -44.07680332 7.7401808 -41.34960938 7.68261719 C-39.46425636 7.64449662 -37.57883479 7.60961519 -35.69335938 7.578125 C-32.97240821 7.53210468 -30.25192207 7.47417386 -27.53125 7.4140625 C-26.69758911 7.40251129 -25.86392822 7.39096008 -25.00500488 7.37905884 C-18.07030072 7.20686942 -11.46193388 6.44894161 -5.625 2.375 C-2.17919075 0 -2.17919075 0 0 0 Z " fill="#01558B" transform="translate(181,137)"/>
<path d="M0 0 C5.6933674 -0.09215882 11.38411591 -0.17169619 17.07763672 -0.21972656 C19.01164552 -0.23976141 20.94559435 -0.26699729 22.87939453 -0.30175781 C25.66974743 -0.35063571 28.45929501 -0.37305019 31.25 -0.390625 C32.10553467 -0.41127014 32.96106934 -0.43191528 33.8425293 -0.45318604 C41.17528039 -0.45588693 46.22660218 1.65801962 51.8125 6.375 C56.75928907 12.31114689 57.32898499 16.8320224 57.30078125 24.390625 C57 27 57 27 55 29 C51 27.66666667 47 26.33333333 43 25 C41.5735686 24.88677175 40.1427751 24.82404524 38.7121582 24.79467773 C37.85149246 24.77473251 36.99082672 24.75478729 36.1040802 24.73423767 C34.71644722 24.70916893 34.71644722 24.70916893 33.30078125 24.68359375 C32.35059616 24.66281265 31.40041107 24.64203156 30.4214325 24.62062073 C27.38519544 24.55521948 24.34887169 24.49628396 21.3125 24.4375 C19.25454831 24.39430583 17.19660541 24.35069124 15.13867188 24.30664062 C10.0925355 24.19875631 5.04633361 24.09961263 0 24 C0 16.08 0 8.16 0 0 Z " fill="#04578B" transform="translate(122,90)"/>
<path d="M0 0 C3.39841005 1.69920503 4.03035425 5.65955005 5.3359375 9.05859375 C5.65656158 9.87691177 5.97718567 10.6952298 6.30752563 11.53834534 C7.33654956 14.16890122 8.35593478 16.8030722 9.375 19.4375 C10.05404316 21.17928779 10.73372332 22.9208274 11.4140625 24.66210938 C12.71204755 27.98526291 14.00539604 31.31016502 15.29589844 34.63623047 C16.94599483 38.87935173 18.64720245 43.10025502 20.39306641 47.30493164 C21 49 21 49 21 51 C7.47 51 -6.06 51 -20 51 C-18.71976462 46.51917617 -17.74652798 43.16084859 -15.80078125 39.13671875 C-12.24432256 31.50267503 -9.24699839 23.65495486 -6.1875 15.8125 C-5.58425644 14.27267985 -4.98074266 12.73296553 -4.37695312 11.19335938 C-2.9148562 7.46345019 -1.45640419 3.73213548 0 0 Z " fill="#06598E" transform="translate(356,92)"/>
</svg>
