<?xml version="1.0" encoding="UTF-8"?>
<svg version="1.1" xmlns="http://www.w3.org/2000/svg" width="500" height="500">
<path d="M0 0 C0.68128967 -0.00175232 1.36257935 -0.00350464 2.06451416 -0.00531006 C4.32688917 -0.00972789 6.58918663 -0.00679084 8.8515625 -0.00341797 C10.4171551 -0.00409103 11.9827476 -0.00506107 13.54833984 -0.00631714 C16.83366895 -0.00779402 20.11897092 -0.00563988 23.40429688 -0.00097656 C27.62476766 0.00472073 31.84517486 0.00144167 36.06564331 -0.00454903 C39.29972822 -0.00815491 42.53379795 -0.00701593 45.7678833 -0.00442123 C47.32448331 -0.00375204 48.88108468 -0.00458012 50.43768311 -0.00690079 C52.60953446 -0.00942777 54.78128146 -0.00558612 56.953125 0 C58.19143066 0.00079559 59.42973633 0.00159119 60.70556641 0.00241089 C63.4765625 0.12939453 63.4765625 0.12939453 64.4765625 1.12939453 C66.32548196 1.36303334 68.18144281 1.54243088 70.0390625 1.69189453 C71.05097656 1.77568359 72.06289063 1.85947266 73.10546875 1.94580078 C74.27916016 2.03667969 74.27916016 2.03667969 75.4765625 2.12939453 C75.4765625 2.78939453 75.4765625 3.44939453 75.4765625 4.12939453 C76.5284375 4.06751953 77.5803125 4.00564453 78.6640625 3.94189453 C84.77343373 3.9088709 90.59585317 5.62335922 96.4765625 7.12939453 C96.4765625 7.78939453 96.4765625 8.44939453 96.4765625 9.12939453 C97.12882812 9.17837891 97.78109375 9.22736328 98.453125 9.27783203 C103.40936103 9.70181682 107.80675701 10.28605026 112.4765625 12.12939453 C112.4765625 12.78939453 112.4765625 13.44939453 112.4765625 14.12939453 C113.6934375 14.25314453 114.9103125 14.37689453 116.1640625 14.50439453 C119.54135309 14.91830759 122.37412945 15.67512904 125.4765625 17.12939453 C125.4765625 17.78939453 125.4765625 18.44939453 125.4765625 19.12939453 C126.5490625 19.25314453 127.6215625 19.37689453 128.7265625 19.50439453 C131.85519865 20.02583389 133.81136674 20.53027707 136.4765625 22.12939453 C136.4765625 22.78939453 136.4765625 23.44939453 136.4765625 24.12939453 C137.559375 24.31501953 137.559375 24.31501953 138.6640625 24.50439453 C141.43378144 25.11988763 143.8735979 26.01383827 146.4765625 27.12939453 C146.4765625 27.78939453 146.4765625 28.44939453 146.4765625 29.12939453 C147.21003906 29.23509766 147.94351562 29.34080078 148.69921875 29.44970703 C151.69110468 30.18189853 153.42438527 31.22034775 155.9140625 33.00439453 C159.34522479 35.39129004 162.68578798 37.37980629 166.4765625 39.12939453 C166.4765625 39.78939453 166.4765625 40.44939453 166.4765625 41.12939453 C168.1265625 41.45939453 169.7765625 41.78939453 171.4765625 42.12939453 C171.4765625 42.78939453 171.4765625 43.44939453 171.4765625 44.12939453 C173.80870398 45.33567461 175.97298389 46.29486833 178.4765625 47.12939453 C178.4765625 47.78939453 178.4765625 48.44939453 178.4765625 49.12939453 C179.0953125 49.43876953 179.7140625 49.74814453 180.3515625 50.06689453 C181.7265625 50.75439453 183.1015625 51.44189453 184.4765625 52.12939453 C184.4765625 52.78939453 184.4765625 53.44939453 184.4765625 54.12939453 C185.1571875 54.33564453 185.8378125 54.54189453 186.5390625 54.75439453 C190.39295625 56.5583448 193.55444014 59.03042903 196.4765625 62.12939453 C196.4765625 62.78939453 196.4765625 63.44939453 196.4765625 64.12939453 C197.4665625 64.45939453 198.4565625 64.78939453 199.4765625 65.12939453 C199.4765625 65.78939453 199.4765625 66.44939453 199.4765625 67.12939453 C200.4665625 67.12939453 201.4565625 67.12939453 202.4765625 67.12939453 C202.4765625 67.78939453 202.4765625 68.44939453 202.4765625 69.12939453 C203.1365625 69.12939453 203.7965625 69.12939453 204.4765625 69.12939453 C204.4765625 69.78939453 204.4765625 70.44939453 204.4765625 71.12939453 C205.4665625 71.45939453 206.4565625 71.78939453 207.4765625 72.12939453 C207.4765625 72.78939453 207.4765625 73.44939453 207.4765625 74.12939453 C208.1365625 74.12939453 208.7965625 74.12939453 209.4765625 74.12939453 C209.4765625 74.78939453 209.4765625 75.44939453 209.4765625 76.12939453 C210.1365625 76.12939453 210.7965625 76.12939453 211.4765625 76.12939453 C211.4765625 77.11939453 211.4765625 78.10939453 211.4765625 79.12939453 C212.4665625 79.45939453 213.4565625 79.78939453 214.4765625 80.12939453 C214.4765625 80.78939453 214.4765625 81.44939453 214.4765625 82.12939453 C215.1365625 82.12939453 215.7965625 82.12939453 216.4765625 82.12939453 C218.16796875 83.73876953 218.16796875 83.73876953 220.0390625 85.87939453 C220.65910156 86.57548828 221.27914063 87.27158203 221.91796875 87.98876953 C223.46187344 90.10922008 224.05553101 91.56860026 224.4765625 94.12939453 C225.1365625 94.12939453 225.7965625 94.12939453 226.4765625 94.12939453 C229.4765625 97.59093299 229.4765625 97.59093299 229.4765625 100.12939453 C230.1365625 100.12939453 230.7965625 100.12939453 231.4765625 100.12939453 C234.4765625 104.51400992 234.4765625 104.51400992 234.4765625 107.12939453 C235.1365625 107.12939453 235.7965625 107.12939453 236.4765625 107.12939453 C236.8065625 108.77939453 237.1365625 110.42939453 237.4765625 112.12939453 C238.1365625 112.12939453 238.7965625 112.12939453 239.4765625 112.12939453 C240.84375 114.07080078 240.84375 114.07080078 242.3515625 116.69189453 C243.14046875 118.05701172 243.14046875 118.05701172 243.9453125 119.44970703 C244.70328125 120.77615234 244.70328125 120.77615234 245.4765625 122.12939453 C245.899375 122.82806641 246.3221875 123.52673828 246.7578125 124.24658203 C249.4765625 128.77135882 249.4765625 128.77135882 249.4765625 132.12939453 C250.1365625 132.12939453 250.7965625 132.12939453 251.4765625 132.12939453 C253.51091781 135.85904592 254.4765625 137.79844495 254.4765625 142.12939453 C255.1365625 142.12939453 255.7965625 142.12939453 256.4765625 142.12939453 C259.4765625 148.62939453 259.4765625 148.62939453 259.4765625 153.12939453 C260.1365625 153.12939453 260.7965625 153.12939453 261.4765625 153.12939453 C264.90513393 161.55796596 264.90513393 161.55796596 264.4765625 166.12939453 C265.1365625 166.12939453 265.7965625 166.12939453 266.4765625 166.12939453 C269.92075384 176.50297084 269.92075384 176.50297084 269.4765625 182.12939453 C270.1365625 182.12939453 270.7965625 182.12939453 271.4765625 182.12939453 C273.29430435 189.22724366 274.90886741 195.78021111 274.4765625 203.12939453 C275.1365625 203.12939453 275.7965625 203.12939453 276.4765625 203.12939453 C276.53714844 203.91185547 276.59773438 204.69431641 276.66015625 205.50048828 C276.74394531 206.51240234 276.82773437 207.52431641 276.9140625 208.56689453 C276.99527344 209.57623047 277.07648438 210.58556641 277.16015625 211.62548828 C277.20867718 214.06580232 277.20867718 214.06580232 278.4765625 215.12939453 C278.57612528 217.30202133 278.60455969 219.47792559 278.60595703 221.65283203 C278.60858551 222.67476654 278.60858551 222.67476654 278.61126709 223.71734619 C278.61568492 225.9797212 278.61274788 228.24201866 278.609375 230.50439453 C278.61004806 232.06998713 278.6110181 233.63557963 278.61227417 235.20117188 C278.61375105 238.48650098 278.61159691 241.77180295 278.60693359 245.05712891 C278.6012363 249.27759969 278.60451536 253.49800689 278.61050606 257.71847534 C278.61411194 260.95256025 278.61297296 264.18662998 278.61037827 267.42071533 C278.60970907 268.97731534 278.61053716 270.53391671 278.61285782 272.09051514 C278.6153848 274.26236649 278.61154315 276.43411349 278.60595703 278.60595703 C278.60476364 280.46341553 278.60476364 280.46341553 278.60354614 282.35839844 C278.4765625 285.12939453 278.4765625 285.12939453 277.4765625 286.12939453 C277.24292369 287.978314 277.06352615 289.83427485 276.9140625 291.69189453 C276.83027344 292.70380859 276.74648438 293.71572266 276.66015625 294.75830078 C276.59957031 295.54076172 276.53898437 296.32322266 276.4765625 297.12939453 C275.8165625 297.12939453 275.1565625 297.12939453 274.4765625 297.12939453 C274.569375 298.70720703 274.569375 298.70720703 274.6640625 300.31689453 C274.69708613 306.42626576 272.98259782 312.24868521 271.4765625 318.12939453 C270.8165625 318.12939453 270.1565625 318.12939453 269.4765625 318.12939453 C269.42757813 318.78166016 269.37859375 319.43392578 269.328125 320.10595703 C268.90414021 325.06219306 268.31990677 329.45958904 266.4765625 334.12939453 C265.8165625 334.12939453 265.1565625 334.12939453 264.4765625 334.12939453 C264.3528125 335.34626953 264.2290625 336.56314453 264.1015625 337.81689453 C263.68764944 341.19418512 262.93082799 344.02696148 261.4765625 347.12939453 C260.8165625 347.12939453 260.1565625 347.12939453 259.4765625 347.12939453 C259.3528125 348.20189453 259.2290625 349.27439453 259.1015625 350.37939453 C258.58012314 353.50803068 258.07567996 355.46419877 256.4765625 358.12939453 C255.8165625 358.12939453 255.1565625 358.12939453 254.4765625 358.12939453 C254.3528125 358.85126953 254.2290625 359.57314453 254.1015625 360.31689453 C253.4860694 363.08661348 252.59211876 365.52642993 251.4765625 368.12939453 C250.8165625 368.12939453 250.1565625 368.12939453 249.4765625 368.12939453 C249.37085938 368.86287109 249.26515625 369.59634766 249.15625 370.35205078 C248.42405851 373.34393671 247.38560928 375.0772173 245.6015625 377.56689453 C243.214667 380.99805682 241.22615074 384.33862001 239.4765625 388.12939453 C238.8165625 388.12939453 238.1565625 388.12939453 237.4765625 388.12939453 C237.1465625 389.77939453 236.8165625 391.42939453 236.4765625 393.12939453 C235.8165625 393.12939453 235.1565625 393.12939453 234.4765625 393.12939453 C233.27028242 395.46153601 232.3110887 397.62581592 231.4765625 400.12939453 C230.8165625 400.12939453 230.1565625 400.12939453 229.4765625 400.12939453 C229.0125 401.05751953 229.0125 401.05751953 228.5390625 402.00439453 C227.8515625 403.37939453 227.1640625 404.75439453 226.4765625 406.12939453 C225.8165625 406.12939453 225.1565625 406.12939453 224.4765625 406.12939453 C224.1671875 407.15033203 224.1671875 407.15033203 223.8515625 408.19189453 C222.04761223 412.04578828 219.575528 415.20727217 216.4765625 418.12939453 C215.8165625 418.12939453 215.1565625 418.12939453 214.4765625 418.12939453 C214.1465625 419.11939453 213.8165625 420.10939453 213.4765625 421.12939453 C212.8165625 421.12939453 212.1565625 421.12939453 211.4765625 421.12939453 C211.4765625 422.11939453 211.4765625 423.10939453 211.4765625 424.12939453 C210.8165625 424.12939453 210.1565625 424.12939453 209.4765625 424.12939453 C209.4765625 424.78939453 209.4765625 425.44939453 209.4765625 426.12939453 C208.8165625 426.12939453 208.1565625 426.12939453 207.4765625 426.12939453 C207.1465625 427.11939453 206.8165625 428.10939453 206.4765625 429.12939453 C205.8165625 429.12939453 205.1565625 429.12939453 204.4765625 429.12939453 C204.4765625 429.78939453 204.4765625 430.44939453 204.4765625 431.12939453 C203.8165625 431.12939453 203.1565625 431.12939453 202.4765625 431.12939453 C202.4765625 431.78939453 202.4765625 432.44939453 202.4765625 433.12939453 C201.4865625 433.12939453 200.4965625 433.12939453 199.4765625 433.12939453 C199.1465625 434.11939453 198.8165625 435.10939453 198.4765625 436.12939453 C197.8165625 436.12939453 197.1565625 436.12939453 196.4765625 436.12939453 C196.4765625 436.78939453 196.4765625 437.44939453 196.4765625 438.12939453 C194.8671875 439.82080078 194.8671875 439.82080078 192.7265625 441.69189453 C192.03046875 442.31193359 191.334375 442.93197266 190.6171875 443.57080078 C188.49673695 445.11470547 187.03735677 445.70836304 184.4765625 446.12939453 C184.4765625 446.78939453 184.4765625 447.44939453 184.4765625 448.12939453 C181.01502404 451.12939453 181.01502404 451.12939453 178.4765625 451.12939453 C178.4765625 451.78939453 178.4765625 452.44939453 178.4765625 453.12939453 C174.09194712 456.12939453 174.09194712 456.12939453 171.4765625 456.12939453 C171.4765625 456.78939453 171.4765625 457.44939453 171.4765625 458.12939453 C169.8265625 458.45939453 168.1765625 458.78939453 166.4765625 459.12939453 C166.4765625 459.78939453 166.4765625 460.44939453 166.4765625 461.12939453 C164.53515625 462.49658203 164.53515625 462.49658203 161.9140625 464.00439453 C161.00398438 464.53033203 160.09390625 465.05626953 159.15625 465.59814453 C158.27195312 466.10345703 157.38765625 466.60876953 156.4765625 467.12939453 C155.77789062 467.55220703 155.07921875 467.97501953 154.359375 468.41064453 C149.83459821 471.12939453 149.83459821 471.12939453 146.4765625 471.12939453 C146.4765625 471.78939453 146.4765625 472.44939453 146.4765625 473.12939453 C142.74691111 475.16374984 140.80751208 476.12939453 136.4765625 476.12939453 C136.4765625 476.78939453 136.4765625 477.44939453 136.4765625 478.12939453 C129.9765625 481.12939453 129.9765625 481.12939453 125.4765625 481.12939453 C125.4765625 481.78939453 125.4765625 482.44939453 125.4765625 483.12939453 C117.04799107 486.55796596 117.04799107 486.55796596 112.4765625 486.12939453 C112.4765625 486.78939453 112.4765625 487.44939453 112.4765625 488.12939453 C102.10298619 491.57358588 102.10298619 491.57358588 96.4765625 491.12939453 C96.4765625 491.78939453 96.4765625 492.44939453 96.4765625 493.12939453 C89.37871337 494.94713638 82.82574592 496.56169944 75.4765625 496.12939453 C75.4765625 496.78939453 75.4765625 497.44939453 75.4765625 498.12939453 C74.69410156 498.18998047 73.91164063 498.25056641 73.10546875 498.31298828 C71.58759766 498.43867187 71.58759766 498.43867187 70.0390625 498.56689453 C69.02972656 498.64810547 68.02039063 498.72931641 66.98046875 498.81298828 C64.54015471 498.86150922 64.54015471 498.86150922 63.4765625 500.12939453 C61.27331276 500.22899605 59.0668276 500.2573921 56.86132812 500.25878906 C56.17028488 500.26054138 55.47924164 500.2622937 54.76725769 500.26409912 C52.47241743 500.26851707 50.17765361 500.26557986 47.8828125 500.26220703 C46.29479965 500.26288009 44.70678691 500.26385013 43.11877441 500.2651062 C39.786367 500.2665831 36.45398634 500.26442889 33.12158203 500.25976562 C28.8405774 500.25406834 24.55963545 500.25734739 20.27863312 500.26333809 C16.99822514 500.26694393 13.71783213 500.26580501 10.43742371 500.2632103 C8.858495 500.26254109 7.27956496 500.26336923 5.70063782 500.26568985 C3.49765397 500.26821676 1.29477301 500.26437528 -0.90820312 500.25878906 C-2.79230896 500.25759567 -2.79230896 500.25759567 -4.71447754 500.25637817 C-7.5234375 500.12939453 -7.5234375 500.12939453 -8.5234375 499.12939453 C-10.20527698 498.89652445 -11.8946791 498.71675287 -13.5859375 498.56689453 C-14.50503906 498.48310547 -15.42414063 498.39931641 -16.37109375 498.31298828 C-17.08136719 498.25240234 -17.79164063 498.19181641 -18.5234375 498.12939453 C-18.5234375 497.46939453 -18.5234375 496.80939453 -18.5234375 496.12939453 C-19.10351562 496.15259766 -19.68359375 496.17580078 -20.28125 496.19970703 C-25.19873292 496.31331225 -28.86588253 495.85066485 -33.5234375 494.12939453 C-35.85038714 493.75408007 -38.18320435 493.41022251 -40.5234375 493.12939453 C-40.5234375 492.46939453 -40.5234375 491.80939453 -40.5234375 491.12939453 C-41.09191406 491.08041016 -41.66039062 491.03142578 -42.24609375 490.98095703 C-47.23424879 490.49796372 -51.74943328 489.6530129 -56.5234375 488.12939453 C-56.5234375 487.46939453 -56.5234375 486.80939453 -56.5234375 486.12939453 C-57.5546875 486.00564453 -58.5859375 485.88189453 -59.6484375 485.75439453 C-63.14460596 485.19049639 -66.20741377 484.34257394 -69.5234375 483.12939453 C-69.5234375 482.46939453 -69.5234375 481.80939453 -69.5234375 481.12939453 C-70.4103125 481.00564453 -71.2971875 480.88189453 -72.2109375 480.75439453 C-75.22731252 480.18526717 -77.72669804 479.36325017 -80.5234375 478.12939453 C-80.5234375 477.46939453 -80.5234375 476.80939453 -80.5234375 476.12939453 C-81.4309375 476.00564453 -82.3384375 475.88189453 -83.2734375 475.75439453 C-86.11314073 475.20829776 -88.04934341 474.55675651 -90.5234375 473.12939453 C-90.1934375 470.81939453 -89.8634375 468.50939453 -89.5234375 466.12939453 C-88.8634375 466.12939453 -88.2034375 466.12939453 -87.5234375 466.12939453 C-87.41773438 465.55962891 -87.31203125 464.98986328 -87.203125 464.40283203 C-86.41535043 461.7678619 -85.2312127 459.99862802 -83.6484375 457.75439453 C-81.27521721 454.30295637 -79.27682391 450.92839842 -77.5234375 447.12939453 C-76.8634375 447.12939453 -76.2034375 447.12939453 -75.5234375 447.12939453 C-75.1934375 445.47939453 -74.8634375 443.82939453 -74.5234375 442.12939453 C-73.8634375 442.12939453 -73.2034375 442.12939453 -72.5234375 442.12939453 C-72.5234375 441.13939453 -72.5234375 440.14939453 -72.5234375 439.12939453 C-71.8634375 439.12939453 -71.2034375 439.12939453 -70.5234375 439.12939453 C-70.1934375 437.47939453 -69.8634375 435.82939453 -69.5234375 434.12939453 C-68.8634375 434.12939453 -68.2034375 434.12939453 -67.5234375 434.12939453 C-66.44818556 431.47710641 -65.42887599 428.84570999 -64.5234375 426.12939453 C-63.8634375 426.12939453 -63.2034375 426.12939453 -62.5234375 426.12939453 C-61.44818556 423.47710641 -60.42887599 420.84570999 -59.5234375 418.12939453 C-58.8634375 418.12939453 -58.2034375 418.12939453 -57.5234375 418.12939453 C-56.31715742 415.79725305 -55.3579637 413.63297315 -54.5234375 411.12939453 C-53.8634375 411.12939453 -53.2034375 411.12939453 -52.5234375 411.12939453 C-52.1934375 409.80939453 -51.8634375 408.48939453 -51.5234375 407.12939453 C-50.8634375 407.12939453 -50.2034375 407.12939453 -49.5234375 407.12939453 C-49.5234375 407.78939453 -49.5234375 408.44939453 -49.5234375 409.12939453 C-48.4715625 409.25314453 -47.4196875 409.37689453 -46.3359375 409.50439453 C-43.06384979 410.04080235 -40.51807674 410.76819488 -37.5234375 412.12939453 C-37.5234375 412.78939453 -37.5234375 413.44939453 -37.5234375 414.12939453 C-36.3271875 414.25314453 -35.1309375 414.37689453 -33.8984375 414.50439453 C-30.24746937 414.95264507 -26.97818851 415.8338629 -23.5234375 417.12939453 C-23.5234375 417.78939453 -23.5234375 418.44939453 -23.5234375 419.12939453 C-22.74097656 419.18998047 -21.95851562 419.25056641 -21.15234375 419.31298828 C-20.14042969 419.39677734 -19.12851563 419.48056641 -18.0859375 419.56689453 C-17.07660156 419.64810547 -16.06726563 419.72931641 -15.02734375 419.81298828 C-12.5234375 420.12939453 -12.5234375 420.12939453 -11.5234375 421.12939453 C-10.17596666 421.36014535 -8.81966185 421.54092516 -7.4609375 421.69189453 C-6.1615625 421.83626953 -4.8621875 421.98064453 -3.5234375 422.12939453 C-3.5234375 422.78939453 -3.5234375 423.44939453 -3.5234375 424.12939453 C17.2665625 424.12939453 38.0565625 424.12939453 59.4765625 424.12939453 C59.4765625 423.46939453 59.4765625 422.80939453 59.4765625 422.12939453 C60.05664062 422.08041016 60.63671875 422.03142578 61.234375 421.98095703 C65.94961847 421.5296631 69.97814789 420.66294497 74.4765625 419.12939453 C77.3515625 419.00439453 77.3515625 419.00439453 79.4765625 419.12939453 C79.4765625 418.46939453 79.4765625 417.80939453 79.4765625 417.12939453 C84.50305553 415.55861546 89.23776172 414.68084724 94.4765625 414.12939453 C94.4765625 413.46939453 94.4765625 412.80939453 94.4765625 412.12939453 C101.1015625 409.12939453 101.1015625 409.12939453 104.4765625 409.12939453 C104.4765625 408.46939453 104.4765625 407.80939453 104.4765625 407.12939453 C111.1015625 404.12939453 111.1015625 404.12939453 114.4765625 404.12939453 C114.4765625 403.46939453 114.4765625 402.80939453 114.4765625 402.12939453 C120.2265625 399.12939453 120.2265625 399.12939453 122.4765625 399.12939453 C122.4765625 398.46939453 122.4765625 397.80939453 122.4765625 397.12939453 C124.1265625 396.79939453 125.7765625 396.46939453 127.4765625 396.12939453 C127.4765625 395.46939453 127.4765625 394.80939453 127.4765625 394.12939453 C128.4665625 394.12939453 129.4565625 394.12939453 130.4765625 394.12939453 C130.4765625 393.46939453 130.4765625 392.80939453 130.4765625 392.12939453 C133.93810096 389.12939453 133.93810096 389.12939453 136.4765625 389.12939453 C136.4765625 388.46939453 136.4765625 387.80939453 136.4765625 387.12939453 C137.4665625 386.79939453 138.4565625 386.46939453 139.4765625 386.12939453 C141.96353056 383.76996329 144.30875246 381.30679372 146.6640625 378.81689453 C148.4765625 377.12939453 148.4765625 377.12939453 150.4765625 377.12939453 C150.4765625 376.46939453 150.4765625 375.80939453 150.4765625 375.12939453 C151.8515625 373.50439453 151.8515625 373.50439453 153.4765625 372.12939453 C154.1365625 372.12939453 154.7965625 372.12939453 155.4765625 372.12939453 C155.4765625 371.46939453 155.4765625 370.80939453 155.4765625 370.12939453 C157.81361391 367.66250694 160.25658274 365.33715319 162.7265625 363.00439453 C164.70099973 361.14962278 164.70099973 361.14962278 165.4765625 358.12939453 C166.1365625 358.12939453 166.7965625 358.12939453 167.4765625 358.12939453 C167.940625 357.20126953 167.940625 357.20126953 168.4140625 356.25439453 C169.1015625 354.87939453 169.7890625 353.50439453 170.4765625 352.12939453 C171.1365625 352.12939453 171.7965625 352.12939453 172.4765625 352.12939453 C172.4765625 351.13939453 172.4765625 350.14939453 172.4765625 349.12939453 C173.1365625 349.12939453 173.7965625 349.12939453 174.4765625 349.12939453 C174.8065625 347.47939453 175.1365625 345.82939453 175.4765625 344.12939453 C176.1365625 344.12939453 176.7965625 344.12939453 177.4765625 344.12939453 C178.55181444 341.47710641 179.57112401 338.84570999 180.4765625 336.12939453 C181.1365625 336.12939453 181.7965625 336.12939453 182.4765625 336.12939453 C182.6003125 335.57251953 182.7240625 335.01564453 182.8515625 334.44189453 C183.53633105 331.90825089 184.46790013 329.55018421 185.4765625 327.12939453 C186.1365625 327.12939453 186.7965625 327.12939453 187.4765625 327.12939453 C187.6003125 326.05689453 187.7240625 324.98439453 187.8515625 323.87939453 C188.37300186 320.75075838 188.87744504 318.79459029 190.4765625 316.12939453 C191.1365625 316.12939453 191.7965625 316.12939453 192.4765625 316.12939453 C192.6003125 314.95376953 192.7240625 313.77814453 192.8515625 312.56689453 C193.34092185 308.58819027 194.282083 304.95172894 195.4765625 301.12939453 C196.1365625 301.12939453 196.7965625 301.12939453 197.4765625 301.12939453 C197.53714844 300.41912109 197.59773438 299.70884766 197.66015625 298.97705078 C197.78583984 297.59839844 197.78583984 297.59839844 197.9140625 296.19189453 C197.99527344 295.27537109 198.07648438 294.35884766 198.16015625 293.41455078 C198.4765625 291.12939453 198.4765625 291.12939453 199.4765625 290.12939453 C199.70849115 288.61470005 199.88871488 287.09184891 200.0390625 285.56689453 C200.12285156 284.74060547 200.20664062 283.91431641 200.29296875 283.06298828 C200.35355469 282.42490234 200.41414063 281.78681641 200.4765625 281.12939453 C201.1365625 281.12939453 201.7965625 281.12939453 202.4765625 281.12939453 C202.4765625 260.66939453 202.4765625 240.20939453 202.4765625 219.12939453 C201.8165625 219.12939453 201.1565625 219.12939453 200.4765625 219.12939453 C200.42757813 218.54931641 200.37859375 217.96923828 200.328125 217.37158203 C199.87683107 212.65633856 199.01011294 208.62780914 197.4765625 204.12939453 C197.3515625 201.25439453 197.3515625 201.25439453 197.4765625 199.12939453 C196.8165625 199.12939453 196.1565625 199.12939453 195.4765625 199.12939453 C193.90578343 194.1029015 193.02801521 189.36819531 192.4765625 184.12939453 C191.8165625 184.12939453 191.1565625 184.12939453 190.4765625 184.12939453 C187.4765625 177.50439453 187.4765625 177.50439453 187.4765625 174.12939453 C186.8165625 174.12939453 186.1565625 174.12939453 185.4765625 174.12939453 C182.4765625 167.50439453 182.4765625 167.50439453 182.4765625 164.12939453 C181.8165625 164.12939453 181.1565625 164.12939453 180.4765625 164.12939453 C177.4765625 158.37939453 177.4765625 158.37939453 177.4765625 156.12939453 C176.8165625 156.12939453 176.1565625 156.12939453 175.4765625 156.12939453 C175.1465625 154.47939453 174.8165625 152.82939453 174.4765625 151.12939453 C173.8165625 151.12939453 173.1565625 151.12939453 172.4765625 151.12939453 C172.4765625 150.13939453 172.4765625 149.14939453 172.4765625 148.12939453 C171.8165625 148.12939453 171.1565625 148.12939453 170.4765625 148.12939453 C167.4765625 144.66785607 167.4765625 144.66785607 167.4765625 142.12939453 C166.8165625 142.12939453 166.1565625 142.12939453 165.4765625 142.12939453 C165.1465625 141.13939453 164.8165625 140.14939453 164.4765625 139.12939453 C162.11713126 136.64242647 159.65396169 134.29720457 157.1640625 131.94189453 C155.4765625 130.12939453 155.4765625 130.12939453 155.4765625 128.12939453 C154.8165625 128.12939453 154.1565625 128.12939453 153.4765625 128.12939453 C151.8515625 126.75439453 151.8515625 126.75439453 150.4765625 125.12939453 C150.4765625 124.46939453 150.4765625 123.80939453 150.4765625 123.12939453 C149.8165625 123.12939453 149.1565625 123.12939453 148.4765625 123.12939453 C146.0096749 120.79234312 143.68432116 118.34937429 141.3515625 115.87939453 C139.49679075 113.90495731 139.49679075 113.90495731 136.4765625 113.12939453 C136.4765625 112.46939453 136.4765625 111.80939453 136.4765625 111.12939453 C135.8578125 110.82001953 135.2390625 110.51064453 134.6015625 110.19189453 C133.2265625 109.50439453 131.8515625 108.81689453 130.4765625 108.12939453 C130.4765625 107.46939453 130.4765625 106.80939453 130.4765625 106.12939453 C129.4865625 106.12939453 128.4965625 106.12939453 127.4765625 106.12939453 C127.4765625 105.46939453 127.4765625 104.80939453 127.4765625 104.12939453 C125.8265625 103.79939453 124.1765625 103.46939453 122.4765625 103.12939453 C122.4765625 102.46939453 122.4765625 101.80939453 122.4765625 101.12939453 C119.82427438 100.05414259 117.19287796 99.03483302 114.4765625 98.12939453 C114.4765625 97.46939453 114.4765625 96.80939453 114.4765625 96.12939453 C113.6721875 95.94376953 113.6721875 95.94376953 112.8515625 95.75439453 C110.0127339 95.00733437 107.25433048 94.07636089 104.4765625 93.12939453 C104.4765625 92.46939453 104.4765625 91.80939453 104.4765625 91.12939453 C103.5690625 91.00564453 102.6615625 90.88189453 101.7265625 90.75439453 C98.88685927 90.20829776 96.95065659 89.55675651 94.4765625 88.12939453 C94.4765625 87.46939453 94.4765625 86.80939453 94.4765625 86.12939453 C92.713125 85.94376953 92.713125 85.94376953 90.9140625 85.75439453 C86.93535824 85.26503518 83.29889691 84.32387404 79.4765625 83.12939453 C79.4765625 82.46939453 79.4765625 81.80939453 79.4765625 81.12939453 C78.76628906 81.06880859 78.05601562 81.00822266 77.32421875 80.94580078 C76.40511719 80.86201172 75.48601562 80.77822266 74.5390625 80.69189453 C73.16427734 80.57007812 73.16427734 80.57007812 71.76171875 80.44580078 C69.4765625 80.12939453 69.4765625 80.12939453 68.4765625 79.12939453 C66.96186802 78.89746589 65.43901688 78.71724215 63.9140625 78.56689453 C62.67462891 78.44121094 62.67462891 78.44121094 61.41015625 78.31298828 C60.77207031 78.25240234 60.13398438 78.19181641 59.4765625 78.12939453 C59.4765625 77.46939453 59.4765625 76.80939453 59.4765625 76.12939453 C39.0165625 76.12939453 18.5565625 76.12939453 -2.5234375 76.12939453 C-2.5234375 76.78939453 -2.5234375 77.44939453 -2.5234375 78.12939453 C-3.10351562 78.17837891 -3.68359375 78.22736328 -4.28125 78.27783203 C-8.99649347 78.72912596 -13.02502289 79.5958441 -17.5234375 81.12939453 C-20.3984375 81.25439453 -20.3984375 81.25439453 -22.5234375 81.12939453 C-22.5234375 81.78939453 -22.5234375 82.44939453 -22.5234375 83.12939453 C-27.54993053 84.7001736 -32.28463672 85.57794182 -37.5234375 86.12939453 C-37.5234375 86.78939453 -37.5234375 87.44939453 -37.5234375 88.12939453 C-44.0234375 91.12939453 -44.0234375 91.12939453 -48.5234375 91.12939453 C-48.5234375 91.78939453 -48.5234375 92.44939453 -48.5234375 93.12939453 C-54.1484375 96.12939453 -54.1484375 96.12939453 -57.5234375 96.12939453 C-57.5234375 96.78939453 -57.5234375 97.44939453 -57.5234375 98.12939453 C-63.2734375 101.12939453 -63.2734375 101.12939453 -65.5234375 101.12939453 C-65.5234375 101.78939453 -65.5234375 102.44939453 -65.5234375 103.12939453 C-67.9984375 103.62439453 -67.9984375 103.62439453 -70.5234375 104.12939453 C-70.5234375 104.78939453 -70.5234375 105.44939453 -70.5234375 106.12939453 C-71.5134375 106.12939453 -72.5034375 106.12939453 -73.5234375 106.12939453 C-73.5234375 106.78939453 -73.5234375 107.44939453 -73.5234375 108.12939453 C-76.98497596 111.12939453 -76.98497596 111.12939453 -79.5234375 111.12939453 C-79.5234375 111.78939453 -79.5234375 112.44939453 -79.5234375 113.12939453 C-80.5134375 113.45939453 -81.5034375 113.78939453 -82.5234375 114.12939453 C-85.01040556 116.48882577 -87.35562746 118.95199534 -89.7109375 121.44189453 C-91.5234375 123.12939453 -91.5234375 123.12939453 -93.5234375 123.12939453 C-93.5234375 123.78939453 -93.5234375 124.44939453 -93.5234375 125.12939453 C-94.8984375 126.75439453 -94.8984375 126.75439453 -96.5234375 128.12939453 C-97.1834375 128.12939453 -97.8434375 128.12939453 -98.5234375 128.12939453 C-98.5234375 128.78939453 -98.5234375 129.44939453 -98.5234375 130.12939453 C-100.86048891 132.59628213 -103.30345774 134.92163587 -105.7734375 137.25439453 C-107.74787473 139.10916628 -107.74787473 139.10916628 -108.5234375 142.12939453 C-109.1834375 142.12939453 -109.8434375 142.12939453 -110.5234375 142.12939453 C-110.8328125 142.74814453 -111.1421875 143.36689453 -111.4609375 144.00439453 C-112.1484375 145.37939453 -112.8359375 146.75439453 -113.5234375 148.12939453 C-114.1834375 148.12939453 -114.8434375 148.12939453 -115.5234375 148.12939453 C-115.5234375 149.11939453 -115.5234375 150.10939453 -115.5234375 151.12939453 C-116.1834375 151.12939453 -116.8434375 151.12939453 -117.5234375 151.12939453 C-117.8534375 152.77939453 -118.1834375 154.42939453 -118.5234375 156.12939453 C-119.1834375 156.12939453 -119.8434375 156.12939453 -120.5234375 156.12939453 C-121.59868944 158.78168265 -122.61799901 161.41307907 -123.5234375 164.12939453 C-124.1834375 164.12939453 -124.8434375 164.12939453 -125.5234375 164.12939453 C-125.7090625 164.93376953 -125.7090625 164.93376953 -125.8984375 165.75439453 C-126.64549766 168.59322313 -127.57647114 171.35162655 -128.5234375 174.12939453 C-129.1834375 174.12939453 -129.8434375 174.12939453 -130.5234375 174.12939453 C-130.7090625 175.49064453 -130.7090625 175.49064453 -130.8984375 176.87939453 C-131.44453427 179.71909776 -132.09607553 181.65530044 -133.5234375 184.12939453 C-134.1834375 184.12939453 -134.8434375 184.12939453 -135.5234375 184.12939453 C-135.7090625 185.89283203 -135.7090625 185.89283203 -135.8984375 187.69189453 C-136.38779685 191.67059879 -137.328958 195.30706012 -138.5234375 199.12939453 C-139.1834375 199.12939453 -139.8434375 199.12939453 -140.5234375 199.12939453 C-140.58402344 199.83966797 -140.64460938 200.54994141 -140.70703125 201.28173828 C-140.83271484 202.66039062 -140.83271484 202.66039062 -140.9609375 204.06689453 C-141.04214844 204.98341797 -141.12335938 205.89994141 -141.20703125 206.84423828 C-141.5234375 209.12939453 -141.5234375 209.12939453 -142.5234375 210.12939453 C-142.75536615 211.64408902 -142.93558988 213.16694015 -143.0859375 214.69189453 C-143.21162109 215.93132812 -143.21162109 215.93132812 -143.33984375 217.19580078 C-143.40042969 217.83388672 -143.46101563 218.47197266 -143.5234375 219.12939453 C-144.1834375 219.12939453 -144.8434375 219.12939453 -145.5234375 219.12939453 C-145.5234375 242.22939453 -145.5234375 265.32939453 -145.5234375 289.12939453 C-144.8634375 289.12939453 -144.2034375 289.12939453 -143.5234375 289.12939453 C-142.39463693 292.44054287 -141.31041075 295.7191771 -140.5234375 299.12939453 C-139.8634375 299.12939453 -139.2034375 299.12939453 -138.5234375 299.12939453 C-136.8984375 300.50439453 -136.8984375 300.50439453 -135.5234375 302.12939453 C-135.5234375 302.78939453 -135.5234375 303.44939453 -135.5234375 304.12939453 C-130.37852355 306.21048332 -125.91491723 306.43308424 -120.4609375 306.37939453 C-119.67138672 306.38712891 -118.88183594 306.39486328 -118.06835938 306.40283203 C-113.77133913 306.38842459 -110.43928872 306.11489656 -106.5234375 304.12939453 C-106.5234375 303.46939453 -106.5234375 302.80939453 -106.5234375 302.12939453 C-105.2034375 301.79939453 -103.8834375 301.46939453 -102.5234375 301.12939453 C-102.5234375 300.46939453 -102.5234375 299.80939453 -102.5234375 299.12939453 C-101.8634375 299.12939453 -101.2034375 299.12939453 -100.5234375 299.12939453 C-100.1934375 298.13939453 -99.8634375 297.14939453 -99.5234375 296.12939453 C-98.8634375 296.12939453 -98.2034375 296.12939453 -97.5234375 296.12939453 C-97.3790625 295.51064453 -97.2346875 294.89189453 -97.0859375 294.25439453 C-96.5234375 292.12939453 -96.5234375 292.12939453 -95.5234375 290.12939453 C-95.40386276 288.31221369 -95.3461907 286.49081619 -95.31811523 284.66992188 C-95.29817001 283.52889008 -95.27822479 282.38785828 -95.25767517 281.21224976 C-95.24096268 279.97576691 -95.22425018 278.73928406 -95.20703125 277.46533203 C-95.1758596 275.57181503 -95.1758596 275.57181503 -95.14405823 273.64004517 C-95.08965824 270.28307408 -95.03943514 266.92609264 -94.99121094 263.56903076 C-94.94098708 260.14378388 -94.88530564 256.71862624 -94.83007812 253.29345703 C-94.72281891 246.57217392 -94.6210631 239.85082409 -94.5234375 233.12939453 C-93.8634375 233.12939453 -93.2034375 233.12939453 -92.5234375 233.12939453 C-92.55824219 232.54673828 -92.59304687 231.96408203 -92.62890625 231.36376953 C-92.8648559 224.21786596 -91.49914644 217.97381479 -89.5234375 211.12939453 C-88.8634375 211.12939453 -88.2034375 211.12939453 -87.5234375 211.12939453 C-87.3996875 209.91251953 -87.2759375 208.69564453 -87.1484375 207.44189453 C-86.73452444 204.06460395 -85.97770299 201.23182758 -84.5234375 198.12939453 C-83.8634375 198.12939453 -83.2034375 198.12939453 -82.5234375 198.12939453 C-82.3996875 197.40751953 -82.2759375 196.68564453 -82.1484375 195.94189453 C-81.5329444 193.17217559 -80.63899376 190.73235913 -79.5234375 188.12939453 C-78.8634375 188.12939453 -78.2034375 188.12939453 -77.5234375 188.12939453 C-77.2140625 187.34564453 -76.9046875 186.56189453 -76.5859375 185.75439453 C-75.5234375 183.12939453 -75.5234375 183.12939453 -74.5234375 181.12939453 C-73.8634375 181.12939453 -73.2034375 181.12939453 -72.5234375 181.12939453 C-72.3996875 180.53126953 -72.2759375 179.93314453 -72.1484375 179.31689453 C-71.5234375 177.12939453 -71.5234375 177.12939453 -69.5234375 174.12939453 C-68.8634375 174.12939453 -68.2034375 174.12939453 -67.5234375 174.12939453 C-67.3171875 173.44876953 -67.1109375 172.76814453 -66.8984375 172.06689453 C-63.29835796 164.37581552 -56.3914741 158.8851393 -49.5234375 154.12939453 C-48.8634375 154.12939453 -48.2034375 154.12939453 -47.5234375 154.12939453 C-47.5234375 153.46939453 -47.5234375 152.80939453 -47.5234375 152.12939453 C-44.9619718 149.83290804 -44.04376178 149.12939453 -40.5234375 149.12939453 C-40.5234375 148.46939453 -40.5234375 147.80939453 -40.5234375 147.12939453 C-36.13882212 144.12939453 -36.13882212 144.12939453 -33.5234375 144.12939453 C-33.5234375 143.46939453 -33.5234375 142.80939453 -33.5234375 142.12939453 C-26.8984375 139.12939453 -26.8984375 139.12939453 -23.5234375 139.12939453 C-23.5234375 138.46939453 -23.5234375 137.80939453 -23.5234375 137.12939453 C-15.09486607 133.7008231 -15.09486607 133.7008231 -10.5234375 134.12939453 C-10.5234375 133.46939453 -10.5234375 132.80939453 -10.5234375 132.12939453 C-3.05022142 129.97217752 3.68695126 128.6640859 11.4765625 129.12939453 C11.4765625 128.46939453 11.4765625 127.80939453 11.4765625 127.12939453 C22.6965625 127.12939453 33.9165625 127.12939453 45.4765625 127.12939453 C45.4765625 127.78939453 45.4765625 128.44939453 45.4765625 129.12939453 C46.05921875 129.09458984 46.641875 129.05978516 47.2421875 129.02392578 C54.38809107 128.78797613 60.63214224 130.15368559 67.4765625 132.12939453 C67.4765625 132.78939453 67.4765625 133.44939453 67.4765625 134.12939453 C70.1165625 134.45939453 72.7565625 134.78939453 75.4765625 135.12939453 C75.4765625 135.78939453 75.4765625 136.44939453 75.4765625 137.12939453 C77.1265625 137.12939453 78.7765625 137.12939453 80.4765625 137.12939453 C80.4765625 137.78939453 80.4765625 138.44939453 80.4765625 139.12939453 C81.1984375 139.25314453 81.9203125 139.37689453 82.6640625 139.50439453 C85.43378144 140.11988763 87.8735979 141.01383827 90.4765625 142.12939453 C90.4765625 142.78939453 90.4765625 143.44939453 90.4765625 144.12939453 C91.2603125 144.43876953 92.0440625 144.74814453 92.8515625 145.06689453 C95.4765625 146.12939453 95.4765625 146.12939453 97.4765625 147.12939453 C97.4765625 147.78939453 97.4765625 148.44939453 97.4765625 149.12939453 C98.0746875 149.25314453 98.6728125 149.37689453 99.2890625 149.50439453 C101.4765625 150.12939453 101.4765625 150.12939453 104.4765625 152.12939453 C104.4765625 152.78939453 104.4765625 153.44939453 104.4765625 154.12939453 C105.1571875 154.33564453 105.8378125 154.54189453 106.5390625 154.75439453 C114.23014151 158.35447407 119.72081773 165.26135793 124.4765625 172.12939453 C124.4765625 172.78939453 124.4765625 173.44939453 124.4765625 174.12939453 C125.1365625 174.12939453 125.7965625 174.12939453 126.4765625 174.12939453 C128.77304899 176.69086023 129.4765625 177.60907025 129.4765625 181.12939453 C130.1365625 181.12939453 130.7965625 181.12939453 131.4765625 181.12939453 C134.4765625 185.51400992 134.4765625 185.51400992 134.4765625 188.12939453 C135.1365625 188.12939453 135.7965625 188.12939453 136.4765625 188.12939453 C139.4765625 194.75439453 139.4765625 194.75439453 139.4765625 198.12939453 C140.1365625 198.12939453 140.7965625 198.12939453 141.4765625 198.12939453 C141.4765625 199.77939453 141.4765625 201.42939453 141.4765625 203.12939453 C142.1365625 203.12939453 142.7965625 203.12939453 143.4765625 203.12939453 C143.8065625 205.76939453 144.1365625 208.40939453 144.4765625 211.12939453 C145.1365625 211.12939453 145.7965625 211.12939453 146.4765625 211.12939453 C148.63377951 218.60261061 149.94187114 225.33978329 149.4765625 233.12939453 C150.1365625 233.12939453 150.7965625 233.12939453 151.4765625 233.12939453 C151.4765625 244.34939453 151.4765625 255.56939453 151.4765625 267.12939453 C150.8165625 267.12939453 150.1565625 267.12939453 149.4765625 267.12939453 C149.51136719 267.71205078 149.54617188 268.29470703 149.58203125 268.89501953 C149.8179809 276.0409231 148.45227144 282.28497427 146.4765625 289.12939453 C145.8165625 289.12939453 145.1565625 289.12939453 144.4765625 289.12939453 C144.1465625 291.76939453 143.8165625 294.40939453 143.4765625 297.12939453 C142.8165625 297.12939453 142.1565625 297.12939453 141.4765625 297.12939453 C141.4765625 298.77939453 141.4765625 300.42939453 141.4765625 302.12939453 C140.8165625 302.12939453 140.1565625 302.12939453 139.4765625 302.12939453 C139.3528125 302.85126953 139.2290625 303.57314453 139.1015625 304.31689453 C138.4860694 307.08661348 137.59211876 309.52642993 136.4765625 312.12939453 C135.8165625 312.12939453 135.1565625 312.12939453 134.4765625 312.12939453 C134.1671875 312.91314453 133.8578125 313.69689453 133.5390625 314.50439453 C132.4765625 317.12939453 132.4765625 317.12939453 131.4765625 319.12939453 C130.8165625 319.12939453 130.1565625 319.12939453 129.4765625 319.12939453 C129.3528125 319.72751953 129.2290625 320.32564453 129.1015625 320.94189453 C128.4765625 323.12939453 128.4765625 323.12939453 126.4765625 326.12939453 C125.8165625 326.12939453 125.1565625 326.12939453 124.4765625 326.12939453 C124.1671875 327.15033203 124.1671875 327.15033203 123.8515625 328.19189453 C120.25148296 335.88297354 113.3445991 341.37364976 106.4765625 346.12939453 C105.8165625 346.12939453 105.1565625 346.12939453 104.4765625 346.12939453 C104.4765625 346.78939453 104.4765625 347.44939453 104.4765625 348.12939453 C101.9150968 350.42588102 100.99688678 351.12939453 97.4765625 351.12939453 C97.4765625 351.78939453 97.4765625 352.44939453 97.4765625 353.12939453 C93.09194712 356.12939453 93.09194712 356.12939453 90.4765625 356.12939453 C90.4765625 356.78939453 90.4765625 357.44939453 90.4765625 358.12939453 C83.8515625 361.12939453 83.8515625 361.12939453 80.4765625 361.12939453 C80.4765625 361.78939453 80.4765625 362.44939453 80.4765625 363.12939453 C78.8265625 363.12939453 77.1765625 363.12939453 75.4765625 363.12939453 C75.4765625 363.78939453 75.4765625 364.44939453 75.4765625 365.12939453 C72.8365625 365.45939453 70.1965625 365.78939453 67.4765625 366.12939453 C67.4765625 366.78939453 67.4765625 367.44939453 67.4765625 368.12939453 C60.00334642 370.28661154 53.26617374 371.59470317 45.4765625 371.12939453 C45.4765625 371.78939453 45.4765625 372.44939453 45.4765625 373.12939453 C34.2565625 373.12939453 23.0365625 373.12939453 11.4765625 373.12939453 C11.4765625 372.46939453 11.4765625 371.80939453 11.4765625 371.12939453 C10.2390625 371.19126953 9.0015625 371.25314453 7.7265625 371.31689453 C1.7287965 371.34559198 -3.7904089 369.75908794 -9.5234375 368.12939453 C-9.5234375 367.46939453 -9.5234375 366.80939453 -9.5234375 366.12939453 C-10.7403125 366.00564453 -11.9571875 365.88189453 -13.2109375 365.75439453 C-16.58822809 365.34048148 -19.42100445 364.58366002 -22.5234375 363.12939453 C-22.5234375 362.46939453 -22.5234375 361.80939453 -22.5234375 361.12939453 C-24.5034375 360.79939453 -26.4834375 360.46939453 -28.5234375 360.12939453 C-28.5234375 359.46939453 -28.5234375 358.80939453 -28.5234375 358.12939453 C-29.8434375 358.12939453 -31.1634375 358.12939453 -32.5234375 358.12939453 C-32.5234375 357.46939453 -32.5234375 356.80939453 -32.5234375 356.12939453 C-35.17572562 355.05414259 -37.80712204 354.03483302 -40.5234375 353.12939453 C-40.5234375 352.46939453 -40.5234375 351.80939453 -40.5234375 351.12939453 C-41.1834375 351.12939453 -41.8434375 351.12939453 -42.5234375 351.12939453 C-42.5234375 350.46939453 -42.5234375 349.80939453 -42.5234375 349.12939453 C-43.1834375 349.12939453 -43.8434375 349.12939453 -44.5234375 349.12939453 C-44.8534375 349.78939453 -45.1834375 350.44939453 -45.5234375 351.12939453 C-46.1834375 351.12939453 -46.8434375 351.12939453 -47.5234375 351.12939453 C-47.8534375 352.11939453 -48.1834375 353.10939453 -48.5234375 354.12939453 C-49.1834375 354.12939453 -49.8434375 354.12939453 -50.5234375 354.12939453 C-50.5234375 354.78939453 -50.5234375 355.44939453 -50.5234375 356.12939453 C-51.5134375 356.12939453 -52.5034375 356.12939453 -53.5234375 356.12939453 C-53.5234375 356.78939453 -53.5234375 357.44939453 -53.5234375 358.12939453 C-55.1328125 359.82080078 -55.1328125 359.82080078 -57.2734375 361.69189453 C-57.96953125 362.31193359 -58.665625 362.93197266 -59.3828125 363.57080078 C-61.50326305 365.11470547 -62.96264323 365.70836304 -65.5234375 366.12939453 C-65.5234375 366.78939453 -65.5234375 367.44939453 -65.5234375 368.12939453 C-67.1734375 368.45939453 -68.8234375 368.78939453 -70.5234375 369.12939453 C-70.5234375 369.78939453 -70.5234375 370.44939453 -70.5234375 371.12939453 C-71.8434375 371.12939453 -73.1634375 371.12939453 -74.5234375 371.12939453 C-74.5234375 371.78939453 -74.5234375 372.44939453 -74.5234375 373.12939453 C-78.25308889 375.16374984 -80.19248792 376.12939453 -84.5234375 376.12939453 C-84.5234375 376.78939453 -84.5234375 377.44939453 -84.5234375 378.12939453 C-91.39925048 380.28852833 -97.30872121 381.48421664 -104.5234375 381.12939453 C-104.5234375 381.78939453 -104.5234375 382.44939453 -104.5234375 383.12939453 C-114.7534375 383.12939453 -124.9834375 383.12939453 -135.5234375 383.12939453 C-135.5234375 382.46939453 -135.5234375 381.80939453 -135.5234375 381.12939453 C-136.10609375 381.16419922 -136.68875 381.19900391 -137.2890625 381.23486328 C-144.43496607 381.47081293 -150.67901724 380.10510347 -157.5234375 378.12939453 C-157.5234375 377.46939453 -157.5234375 376.80939453 -157.5234375 376.12939453 C-158.5959375 376.00564453 -159.6684375 375.88189453 -160.7734375 375.75439453 C-163.90207365 375.23295517 -165.85824174 374.72851199 -168.5234375 373.12939453 C-168.5234375 372.46939453 -168.5234375 371.80939453 -168.5234375 371.12939453 C-169.0803125 371.00564453 -169.6371875 370.88189453 -170.2109375 370.75439453 C-172.74458114 370.06962598 -175.10264782 369.1380569 -177.5234375 368.12939453 C-177.5234375 367.46939453 -177.5234375 366.80939453 -177.5234375 366.12939453 C-178.1834375 366.12939453 -178.8434375 366.12939453 -179.5234375 366.12939453 C-179.5234375 365.46939453 -179.5234375 364.80939453 -179.5234375 364.12939453 C-180.27625 364.04173828 -181.0290625 363.95408203 -181.8046875 363.86376953 C-185.048435 362.98758486 -185.955243 361.97439329 -188.0234375 359.37939453 C-190.02677563 356.94149281 -191.97380971 354.67902232 -194.2109375 352.44189453 C-198.00765195 348.64518008 -200.76990112 345.24387565 -202.5234375 340.12939453 C-203.1834375 340.12939453 -203.8434375 340.12939453 -204.5234375 340.12939453 C-207.5234375 334.37939453 -207.5234375 334.37939453 -207.5234375 332.12939453 C-208.1834375 332.12939453 -208.8434375 332.12939453 -209.5234375 332.12939453 C-210.02959048 330.86099928 -210.52812849 329.58956352 -211.0234375 328.31689453 C-211.301875 327.60919922 -211.5803125 326.90150391 -211.8671875 326.17236328 C-212.5234375 324.12939453 -212.5234375 324.12939453 -212.5234375 321.12939453 C-213.1834375 321.12939453 -213.8434375 321.12939453 -214.5234375 321.12939453 C-215.8434375 316.17939453 -217.1634375 311.22939453 -218.5234375 306.12939453 C-218.8534375 306.12939453 -219.1834375 306.12939453 -219.5234375 306.12939453 C-219.58402344 305.49130859 -219.64460937 304.85322266 -219.70703125 304.19580078 C-219.79082031 303.36951172 -219.87460938 302.54322266 -219.9609375 301.69189453 C-220.04214844 300.86818359 -220.12335938 300.04447266 -220.20703125 299.19580078 C-220.31274565 297.14277428 -220.31274565 297.14277428 -221.5234375 296.12939453 C-221.62379566 293.60937002 -221.65961462 291.11673253 -221.65283203 288.59619141 C-221.65458435 287.80761246 -221.65633667 287.01903351 -221.65814209 286.20655823 C-221.66256108 283.58706493 -221.65962246 280.96763857 -221.65625 278.34814453 C-221.65692303 276.53592923 -221.65789304 274.72371402 -221.65914917 272.91149902 C-221.66062621 269.10830834 -221.6584714 265.30514109 -221.65380859 261.50195312 C-221.6481113 256.61560958 -221.65139028 251.72932096 -221.65738106 246.84297943 C-221.66098651 243.09934064 -221.65984816 239.35571498 -221.65725327 235.61207581 C-221.65658395 233.80986016 -221.65741257 232.00764335 -221.65973282 230.20542908 C-221.66225909 227.69111962 -221.65841912 225.17690036 -221.65283203 222.66259766 C-221.65485626 221.91035416 -221.65688049 221.15811066 -221.65896606 220.3830719 C-221.6377001 215.24365713 -221.6377001 215.24365713 -220.5234375 214.12939453 C-220.28979869 212.28047507 -220.11040115 210.42451422 -219.9609375 208.56689453 C-219.87714844 207.55498047 -219.79335937 206.54306641 -219.70703125 205.50048828 C-219.64644531 204.71802734 -219.58585938 203.93556641 -219.5234375 203.12939453 C-218.8634375 203.12939453 -218.2034375 203.12939453 -217.5234375 203.12939453 C-217.5853125 202.07751953 -217.6471875 201.02564453 -217.7109375 199.94189453 C-217.74396113 193.8325233 -216.02947282 188.01010386 -214.5234375 182.12939453 C-213.8634375 182.12939453 -213.2034375 182.12939453 -212.5234375 182.12939453 C-212.47445312 181.47712891 -212.42546875 180.82486328 -212.375 180.15283203 C-211.95101521 175.19659601 -211.36678177 170.79920002 -209.5234375 166.12939453 C-208.8634375 166.12939453 -208.2034375 166.12939453 -207.5234375 166.12939453 C-207.3996875 164.91251953 -207.2759375 163.69564453 -207.1484375 162.44189453 C-206.73452444 159.06460395 -205.97770299 156.23182758 -204.5234375 153.12939453 C-203.8634375 153.12939453 -203.2034375 153.12939453 -202.5234375 153.12939453 C-202.3996875 152.05689453 -202.2759375 150.98439453 -202.1484375 149.87939453 C-201.62699814 146.75075838 -201.12255496 144.79459029 -199.5234375 142.12939453 C-198.8634375 142.12939453 -198.2034375 142.12939453 -197.5234375 142.12939453 C-197.3996875 141.40751953 -197.2759375 140.68564453 -197.1484375 139.94189453 C-196.5329444 137.17217559 -195.63899376 134.73235913 -194.5234375 132.12939453 C-193.8634375 132.12939453 -193.2034375 132.12939453 -192.5234375 132.12939453 C-192.41773438 131.39591797 -192.31203125 130.66244141 -192.203125 129.90673828 C-191.47093351 126.91485235 -190.43248428 125.18157176 -188.6484375 122.69189453 C-186.261542 119.26073224 -184.27302574 115.92016905 -182.5234375 112.12939453 C-181.8634375 112.12939453 -181.2034375 112.12939453 -180.5234375 112.12939453 C-180.1934375 110.47939453 -179.8634375 108.82939453 -179.5234375 107.12939453 C-178.8634375 107.12939453 -178.2034375 107.12939453 -177.5234375 107.12939453 C-176.31715742 104.79725305 -175.3579637 102.63297315 -174.5234375 100.12939453 C-173.8634375 100.12939453 -173.2034375 100.12939453 -172.5234375 100.12939453 C-172.2140625 99.51064453 -171.9046875 98.89189453 -171.5859375 98.25439453 C-170.8984375 96.87939453 -170.2109375 95.50439453 -169.5234375 94.12939453 C-168.8634375 94.12939453 -168.2034375 94.12939453 -167.5234375 94.12939453 C-167.3171875 93.44876953 -167.1109375 92.76814453 -166.8984375 92.06689453 C-165.09448723 88.21300078 -162.622403 85.05151689 -159.5234375 82.12939453 C-158.8634375 82.12939453 -158.2034375 82.12939453 -157.5234375 82.12939453 C-157.0284375 80.64439453 -157.0284375 80.64439453 -156.5234375 79.12939453 C-155.8634375 79.12939453 -155.2034375 79.12939453 -154.5234375 79.12939453 C-154.5234375 78.13939453 -154.5234375 77.14939453 -154.5234375 76.12939453 C-153.8634375 76.12939453 -153.2034375 76.12939453 -152.5234375 76.12939453 C-152.5234375 75.46939453 -152.5234375 74.80939453 -152.5234375 74.12939453 C-151.8634375 74.12939453 -151.2034375 74.12939453 -150.5234375 74.12939453 C-150.0284375 72.64439453 -150.0284375 72.64439453 -149.5234375 71.12939453 C-148.8634375 71.12939453 -148.2034375 71.12939453 -147.5234375 71.12939453 C-147.5234375 70.46939453 -147.5234375 69.80939453 -147.5234375 69.12939453 C-146.8634375 69.12939453 -146.2034375 69.12939453 -145.5234375 69.12939453 C-145.5234375 68.46939453 -145.5234375 67.80939453 -145.5234375 67.12939453 C-144.5334375 67.12939453 -143.5434375 67.12939453 -142.5234375 67.12939453 C-142.0284375 65.64439453 -142.0284375 65.64439453 -141.5234375 64.12939453 C-140.8634375 64.12939453 -140.2034375 64.12939453 -139.5234375 64.12939453 C-139.5234375 63.46939453 -139.5234375 62.80939453 -139.5234375 62.12939453 C-137.9140625 60.43798828 -137.9140625 60.43798828 -135.7734375 58.56689453 C-134.72929687 57.63683594 -134.72929687 57.63683594 -133.6640625 56.68798828 C-131.54361195 55.14408359 -130.08423177 54.55042602 -127.5234375 54.12939453 C-127.5234375 53.46939453 -127.5234375 52.80939453 -127.5234375 52.12939453 C-124.06189904 49.12939453 -124.06189904 49.12939453 -121.5234375 49.12939453 C-121.5234375 48.46939453 -121.5234375 47.80939453 -121.5234375 47.12939453 C-117.13882212 44.12939453 -117.13882212 44.12939453 -114.5234375 44.12939453 C-114.5234375 43.46939453 -114.5234375 42.80939453 -114.5234375 42.12939453 C-112.8734375 41.79939453 -111.2234375 41.46939453 -109.5234375 41.12939453 C-109.5234375 40.46939453 -109.5234375 39.80939453 -109.5234375 39.12939453 C-108.8634375 39.12939453 -108.2034375 39.12939453 -107.5234375 39.12939453 C-107.5234375 38.46939453 -107.5234375 37.80939453 -107.5234375 37.12939453 C-106.8634375 36.90251953 -106.2034375 36.67564453 -105.5234375 36.44189453 C-102.94413471 35.31344956 -100.86355133 34.10037821 -98.5234375 32.56689453 C-95.53499927 30.64252143 -93.12880629 29.46739786 -89.5234375 29.12939453 C-89.5234375 28.46939453 -89.5234375 27.80939453 -89.5234375 27.12939453 C-85.79378611 25.09503923 -83.85438708 24.12939453 -79.5234375 24.12939453 C-79.5234375 23.46939453 -79.5234375 22.80939453 -79.5234375 22.12939453 C-73.0234375 19.12939453 -73.0234375 19.12939453 -68.5234375 19.12939453 C-68.5234375 18.46939453 -68.5234375 17.80939453 -68.5234375 17.12939453 C-60.09486607 13.7008231 -60.09486607 13.7008231 -55.5234375 14.12939453 C-55.5234375 13.46939453 -55.5234375 12.80939453 -55.5234375 12.12939453 C-45.14986119 8.68520319 -45.14986119 8.68520319 -39.5234375 9.12939453 C-39.5234375 8.46939453 -39.5234375 7.80939453 -39.5234375 7.12939453 C-32.42558837 5.31165268 -25.87262092 3.69708962 -18.5234375 4.12939453 C-18.5234375 3.46939453 -18.5234375 2.80939453 -18.5234375 2.12939453 C-17.74097656 2.06880859 -16.95851562 2.00822266 -16.15234375 1.94580078 C-15.14042969 1.86201172 -14.12851563 1.77822266 -13.0859375 1.69189453 C-12.07660156 1.61068359 -11.06726563 1.52947266 -10.02734375 1.44580078 C-6.3641355 0.98289927 -4.11617058 0.00264458 0 0 Z M8.4765625 206.12939453 C8.4765625 206.78939453 8.4765625 207.44939453 8.4765625 208.12939453 C7.7134375 208.25314453 6.9503125 208.37689453 6.1640625 208.50439453 C3.27389114 209.01042245 3.27389114 209.01042245 0.4765625 211.12939453 C0.4765625 211.78939453 0.4765625 212.44939453 0.4765625 213.12939453 C-0.8434375 213.45939453 -2.1634375 213.78939453 -3.5234375 214.12939453 C-3.5234375 214.78939453 -3.5234375 215.44939453 -3.5234375 216.12939453 C-4.1834375 216.12939453 -4.8434375 216.12939453 -5.5234375 216.12939453 C-5.5234375 216.78939453 -5.5234375 217.44939453 -5.5234375 218.12939453 C-6.5134375 218.45939453 -7.5034375 218.78939453 -8.5234375 219.12939453 C-8.5234375 220.11939453 -8.5234375 221.10939453 -8.5234375 222.12939453 C-9.1834375 222.12939453 -9.8434375 222.12939453 -10.5234375 222.12939453 C-12.56513235 225.03488335 -13.5234375 226.53081499 -13.5234375 230.12939453 C-14.1834375 230.12939453 -14.8434375 230.12939453 -15.5234375 230.12939453 C-18.27261324 236.89274261 -18.98874778 242.86443387 -18.8984375 250.12939453 C-18.91003906 251.06267578 -18.92164063 251.99595703 -18.93359375 252.95751953 C-18.90745432 259.19613047 -17.87225417 264.3509845 -15.5234375 270.12939453 C-14.8634375 270.12939453 -14.2034375 270.12939453 -13.5234375 270.12939453 C-13.3996875 270.89251953 -13.2759375 271.65564453 -13.1484375 272.44189453 C-12.64240958 275.33206589 -12.64240958 275.33206589 -10.5234375 278.12939453 C-9.8634375 278.12939453 -9.2034375 278.12939453 -8.5234375 278.12939453 C-8.1934375 279.44939453 -7.8634375 280.76939453 -7.5234375 282.12939453 C-6.8634375 282.12939453 -6.2034375 282.12939453 -5.5234375 282.12939453 C-5.5234375 282.78939453 -5.5234375 283.44939453 -5.5234375 284.12939453 C-4.8634375 284.12939453 -4.2034375 284.12939453 -3.5234375 284.12939453 C-3.1934375 285.11939453 -2.8634375 286.10939453 -2.5234375 287.12939453 C-1.5334375 287.12939453 -0.5434375 287.12939453 0.4765625 287.12939453 C0.4765625 287.78939453 0.4765625 288.44939453 0.4765625 289.12939453 C3.43137742 291.87315124 4.25128158 292.12939453 8.4765625 292.12939453 C8.4765625 292.78939453 8.4765625 293.44939453 8.4765625 294.12939453 C15.23991057 296.87857028 21.21160183 297.59470482 28.4765625 297.50439453 C29.40984375 297.51599609 30.343125 297.52759766 31.3046875 297.53955078 C37.54329844 297.51341135 42.69815247 296.4782112 48.4765625 294.12939453 C48.4765625 293.46939453 48.4765625 292.80939453 48.4765625 292.12939453 C49.2396875 292.00564453 50.0028125 291.88189453 50.7890625 291.75439453 C53.67923386 291.24836661 53.67923386 291.24836661 56.4765625 289.12939453 C56.4765625 288.46939453 56.4765625 287.80939453 56.4765625 287.12939453 C57.7965625 286.79939453 59.1165625 286.46939453 60.4765625 286.12939453 C60.4765625 285.46939453 60.4765625 284.80939453 60.4765625 284.12939453 C61.1365625 284.12939453 61.7965625 284.12939453 62.4765625 284.12939453 C62.4765625 283.46939453 62.4765625 282.80939453 62.4765625 282.12939453 C63.4665625 281.79939453 64.4565625 281.46939453 65.4765625 281.12939453 C65.4765625 280.13939453 65.4765625 279.14939453 65.4765625 278.12939453 C66.1365625 278.12939453 66.7965625 278.12939453 67.4765625 278.12939453 C70.22031921 275.17457961 70.4765625 274.35467546 70.4765625 270.12939453 C71.1365625 270.12939453 71.7965625 270.12939453 72.4765625 270.12939453 C75.22573824 263.36604646 75.94187278 257.3943552 75.8515625 250.12939453 C75.86316406 249.19611328 75.87476563 248.26283203 75.88671875 247.30126953 C75.86057932 241.0626586 74.82537917 235.90780456 72.4765625 230.12939453 C71.8165625 230.12939453 71.1565625 230.12939453 70.4765625 230.12939453 C70.3528125 229.36626953 70.2290625 228.60314453 70.1015625 227.81689453 C69.59553458 224.92672317 69.59553458 224.92672317 67.4765625 222.12939453 C66.8165625 222.12939453 66.1565625 222.12939453 65.4765625 222.12939453 C64.9815625 220.14939453 64.9815625 220.14939453 64.4765625 218.12939453 C63.8165625 218.12939453 63.1565625 218.12939453 62.4765625 218.12939453 C62.4765625 217.46939453 62.4765625 216.80939453 62.4765625 216.12939453 C61.8165625 216.12939453 61.1565625 216.12939453 60.4765625 216.12939453 C59.9815625 214.64439453 59.9815625 214.64439453 59.4765625 213.12939453 C58.4865625 213.12939453 57.4965625 213.12939453 56.4765625 213.12939453 C56.4765625 212.46939453 56.4765625 211.80939453 56.4765625 211.12939453 C53.52174758 208.38563782 52.70184342 208.12939453 48.4765625 208.12939453 C48.4765625 207.46939453 48.4765625 206.80939453 48.4765625 206.12939453 C41.71321443 203.38021879 35.74152317 202.66408425 28.4765625 202.75439453 C27.54328125 202.74279297 26.61 202.73119141 25.6484375 202.71923828 C19.40982656 202.74537771 14.25497253 203.78057786 8.4765625 206.12939453 Z " fill="#0078D7" transform="translate(221.5234375,-0.12939453125)"/>
</svg>
