<?xml version="1.0" encoding="UTF-8"?>
<svg version="1.1" xmlns="http://www.w3.org/2000/svg" width="400" height="400">
<path d="M0 0 C2.84003792 1.38577946 5.31478297 2.89708028 7.875 4.75 C29.73531443 19.27630294 59.48863471 21.51089591 84.8125 16.875 C96.0765305 14.27467365 106.77802366 10.66181381 115.984375 3.515625 C117.91921076 2.0607485 119.80547562 1.00829499 122 0 C123.36125 1.299375 123.36125 1.299375 124.75 2.625 C143.81678839 18.85857084 171.36626158 19.27829461 195 18 C209.81534156 16.58707974 226.1049861 12.19343534 237.421875 2.06640625 C239 1 239 1 243 1 C245.12792969 2.27832031 245.12792969 2.27832031 247.421875 4.078125 C248.27555664 4.73925293 249.12923828 5.40038086 250.00878906 6.08154297 C251.36568848 7.1549292 251.36568848 7.1549292 252.75 8.25 C254.63487097 9.71684731 256.52029395 11.18298556 258.40625 12.6484375 C259.3446875 13.3815918 260.283125 14.11474609 261.25 14.87011719 C265.87025023 18.44851411 270.57409172 21.91454779 275.28808594 25.36816406 C279.89110612 28.78221224 279.89110612 28.78221224 281 31 C279.73169194 33.82015615 278.39824904 36.55748239 277 39.3125 C262.42751357 69.09962121 257.08415988 99.53522343 267.765625 131.44921875 C270.6245458 139.59908349 273.82510511 147.60460313 277.11157227 155.58959961 C291.78693854 191.39947312 297.65211581 232.12083266 283 269 C263.41133256 314.29412313 221.80754381 341.35295913 177.34667969 359.08300781 C161.10646991 365.42905733 144.68254315 371.36015962 128.25190735 377.19360352 C126.3543797 377.87309844 124.46862039 378.58532781 122.5859375 379.30493164 C118.48918469 380.40608867 115.38126653 378.55046366 111.6875 376.875 C103.11282379 373.20400778 94.4488762 369.9534058 85.66394043 366.83294678 C72.47991705 362.13892277 59.60443699 357.11009544 47 351 C46.30745117 350.67080566 45.61490234 350.34161133 44.90136719 350.00244141 C7.77967193 332.33672685 -26.79919852 306.56563914 -42 267 C-56.33619037 225.79999443 -47.30258733 185.78787995 -31.625 146.62890625 C-17.44299397 111.07793032 -16.94154655 80.98209359 -32.09912109 45.42138672 C-34.33744564 40.25208389 -36.64603738 35.11757587 -39 30 C-31.57678666 23.69443901 -23.86009305 17.87100122 -15.9909668 12.13818359 C-10.57991555 8.19169724 -5.26369772 4.14102641 0 0 Z " fill="#F3CC83" transform="translate(79,10)"/>
<path d="M0 0 C2.67864565 57.96069633 2.67864565 57.96069633 -11.23388672 80.91210938 C-13.10985318 84.19206843 -14.60233955 87.50221834 -16.06640625 90.984375 C-16.54166748 92.11302979 -17.01692871 93.24168457 -17.5065918 94.40454102 C-18.39002646 96.52399614 -19.26576201 98.64668452 -20.13208008 100.77319336 C-23.12666251 107.56442566 -23.12666251 107.56442566 -27.1171875 109.5546875 C-28.39851563 109.70164062 -29.67984375 109.84859375 -31 110 C-31.81388184 110.11802979 -32.62776367 110.23605957 -33.46630859 110.35766602 C-36.38972974 110.77257797 -39.31548442 111.11047101 -42.25 111.4375 C-43.32306396 111.56165283 -44.39612793 111.68580566 -45.50170898 111.8137207 C-49.00037759 112.21620007 -52.50002325 112.60906775 -56 113 C-57.25506348 113.14115234 -58.51012695 113.28230469 -59.80322266 113.42773438 C-67.53424997 114.29645538 -75.26647399 115.15381966 -83 116 C-73.07997913 125.29560091 -73.07997913 125.29560091 -62.921875 134.328125 C-60.58894926 136.35758073 -58.29488755 138.427647 -56 140.5 C-52.86544464 143.32544666 -49.72650936 146.14504403 -46.5625 148.9375 C-45.94503906 149.48277344 -45.32757813 150.02804688 -44.69140625 150.58984375 C-42.84382494 152.18122039 -42.84382494 152.18122039 -40 154 C-40.55617441 161.20948207 -41.73166082 168.13067879 -43.28515625 175.1875 C-43.50570175 176.21182129 -43.72624725 177.23614258 -43.95347595 178.29150391 C-44.65131521 181.52881299 -45.35649029 184.76446389 -46.0625 188 C-46.77085657 191.26434922 -47.47764488 194.52902534 -48.18223572 197.79418945 C-48.61935573 199.81799825 -49.05886743 201.84129224 -49.50099182 203.86401367 C-49.69797165 204.77256104 -49.89495148 205.6811084 -50.09790039 206.6171875 C-50.27253311 207.41753418 -50.44716583 208.21788086 -50.62709045 209.04248047 C-51.06237856 210.99532422 -51.06237856 210.99532422 -51 213 C-38.09809767 205.82346264 -25.21301571 198.6330629 -12.5234375 191.0859375 C-11.34907471 190.39042846 -10.17459566 189.69511568 -9 189 C-8.3596582 188.6174707 -7.71931641 188.23494141 -7.05957031 187.84082031 C-2.22693909 185 -2.22693909 185 0 185 C0 226.58 0 268.16 0 311 C-2.94527075 310.26368231 -5.84151402 309.48643056 -8.75 308.625 C-9.54921875 308.39039063 -10.3484375 308.15578125 -11.171875 307.9140625 C-14.82999092 306.73174327 -18.40673186 305.36456425 -22 304 C-23.2859948 303.52218808 -24.572446 303.04560251 -25.859375 302.5703125 C-27.15625 302.08854167 -28.453125 301.60677083 -29.75 301.125 C-30.37648438 300.89425781 -31.00296875 300.66351563 -31.6484375 300.42578125 C-42.71265053 296.30425169 -53.47996753 291.53829222 -64.125 286.4375 C-64.75596588 286.1351947 -65.38693176 285.8328894 -66.03701782 285.52142334 C-77.00675984 280.23182514 -87.21335216 274.26618219 -97 267 C-97.94101563 266.31808594 -98.88203125 265.63617188 -99.8515625 264.93359375 C-120.46360984 249.26189426 -135.31415748 228.21183568 -139.6953125 202.34960938 C-140.70037248 194.5990507 -140.40158074 186.78437834 -140 179 C-139.95601074 178.13906738 -139.91202148 177.27813477 -139.86669922 176.39111328 C-138.96392868 161.08465333 -135.52771039 147.27532344 -129.38671875 133.23046875 C-127.63506222 129.14984917 -126.03520719 125.01785218 -124.4375 120.875 C-123.87402332 119.41393696 -123.31022575 117.95299764 -122.74609375 116.4921875 C-122.32493286 115.39596069 -122.32493286 115.39596069 -121.89526367 114.27758789 C-121.2788281 112.70935025 -120.64232889 111.14890003 -119.98950195 109.59545898 C-117.4847086 103.59634614 -115.74556191 97.64838466 -114.3125 91.3125 C-114.10044922 90.41466797 -113.88839844 89.51683594 -113.66992188 88.59179688 C-107.49443052 62.00017006 -110.44907951 33.60668251 -120.875 8.4375 C-122 5 -122 5 -121.1875 2.5 C-120.795625 2.005 -120.40375 1.51 -120 1 C-116.76191941 1.68386944 -113.7606064 2.83502406 -110.67675781 4.01904297 C-93.52461469 10.45604818 -77.15552263 12.36288636 -58.9375 12.375 C-57.74042419 12.37799103 -57.74042419 12.37799103 -56.51916504 12.38104248 C-43.89204471 12.37747091 -32.07405201 11.1195529 -19.875 7.6875 C-19.10873291 7.47456299 -18.34246582 7.26162598 -17.55297852 7.04223633 C-12.28267651 5.51787022 -7.46228655 3.59015919 -2.65234375 0.91796875 C-1 0 -1 0 0 0 Z " fill="#FDECA1" transform="translate(200,46)"/>
<path d="M0 0 C2.07233137 2.62064016 3.64659779 5.11539767 4.99291992 8.17016602 C5.53314034 9.38646446 5.53314034 9.38646446 6.08427429 10.62733459 C6.46251846 11.49410324 6.84076263 12.36087189 7.23046875 13.25390625 C7.62575272 14.15116928 8.02103668 15.04843231 8.42829895 15.97288513 C9.26035787 17.86547729 10.08978412 19.75922879 10.91674805 21.65405273 C12.18586379 24.5587551 13.46637401 27.45824198 14.74804688 30.35742188 C15.55537738 32.19761416 16.36204105 34.03809917 17.16796875 35.87890625 C17.74444405 37.18209557 17.74444405 37.18209557 18.33256531 38.51161194 C18.68325577 39.31932541 19.03394623 40.12703888 19.39526367 40.95922852 C19.70598312 41.66886246 20.01670258 42.3784964 20.33683777 43.1096344 C21 45 21 45 21 48 C21.6069017 47.99066437 22.21380341 47.98132874 22.83909607 47.97171021 C28.91328637 47.91912297 34.86621984 48.22172923 40.91015625 48.8046875 C41.80367294 48.88872833 42.69718964 48.97276917 43.61778259 49.05935669 C45.48427943 49.23676981 47.35053721 49.4167152 49.21655273 49.59912109 C52.08554509 49.87723393 54.95569633 50.14003704 57.82617188 50.40234375 C59.64592267 50.5771977 61.46558782 50.75294593 63.28515625 50.9296875 C64.57559593 51.04544632 64.57559593 51.04544632 65.8921051 51.1635437 C67.93659494 51.37079847 69.97077967 51.67571911 72 52 C72.33 52.66 72.66 53.32 73 54 C69.2947559 57.26797927 65.57506217 60.51753056 61.80859375 63.71484375 C55.09500656 69.41996444 48.4997125 75.21115225 42.0871582 81.25463867 C38.20062641 84.89968679 38.20062641 84.89968679 36 86 C36.56800239 93.43324429 37.80709595 100.59209436 39.375 107.875 C39.59760498 108.93058105 39.82020996 109.98616211 40.04956055 111.07373047 C41.37736709 117.30869004 42.78935311 123.49593756 44.51953125 129.6328125 C45.09320769 132.45921838 45.03029949 135.12228724 45 138 C36.67660571 133.9676172 28.64467352 129.58548464 20.6875 124.875 C17.6651169 123.0966834 14.6426635 121.31868413 11.61474609 119.54980469 C10.02423419 118.60708111 8.44525048 117.6440261 6.88916016 116.64550781 C3.52506798 114.49002624 3.52506798 114.49002624 -0.35327148 114.22802734 C-3.33289939 115.09709693 -5.7283017 116.31461046 -8.4296875 117.84375 C-9.46601318 118.42688965 -10.50233887 119.0100293 -11.57006836 119.61083984 C-12.6606958 120.2342627 -13.75132324 120.85768555 -14.875 121.5 C-15.9894751 122.12986816 -17.1039502 122.75973633 -18.25219727 123.40869141 C-25.15745137 127.32695647 -32.01970483 131.31175798 -38.75927734 135.50976562 C-42.79571216 138 -42.79571216 138 -45 138 C-44.29342888 132.60269391 -43.28495185 127.31888503 -42.15234375 121.99609375 C-41.79079597 120.26892617 -41.42947464 118.54171118 -41.06835938 116.81445312 C-40.5024774 114.11932033 -39.93476478 111.42461203 -39.36303711 108.73071289 C-38.80828932 106.11193142 -38.26104989 103.49166814 -37.71484375 100.87109375 C-37.54299057 100.07094345 -37.37113739 99.27079315 -37.19407654 98.44639587 C-36.32334282 94.24213801 -35.67142523 90.31970699 -36 86 C-37.35097203 84.10251205 -37.35097203 84.10251205 -39.375 82.6875 C-40.10460937 82.10355469 -40.83421875 81.51960938 -41.5859375 80.91796875 C-42.38257813 80.28503906 -43.17921875 79.65210938 -44 79 C-45.67662332 77.51113734 -47.34306098 76.01073852 -49 74.5 C-52.60648273 71.24536924 -56.2429674 68.03020257 -59.90625 64.83984375 C-63.97295412 61.26630337 -67.98345603 57.6297047 -72 54 C-68.80232494 51.86821663 -68.25734868 51.7806274 -64.64648438 51.96459961 C-40.92677281 53.53024989 -40.92677281 53.53024989 -19.8449707 45.09191895 C-11.72629933 35.35786779 -7.77884247 22.3798171 -4.33886719 10.36547852 C-3.2730079 6.67340583 -1.85552145 3.37979745 0 0 Z " fill="#FCEBA0" transform="translate(200,112)"/>
<path d="M0 0 C2.84003792 1.38577946 5.31478297 2.89708028 7.875 4.75 C29.73531443 19.27630294 59.48863471 21.51089591 84.8125 16.875 C96.0765305 14.27467365 106.77802366 10.66181381 115.984375 3.515625 C117.91921076 2.0607485 119.80547562 1.00829499 122 0 C123.36125 1.299375 123.36125 1.299375 124.75 2.625 C143.81678839 18.85857084 171.36626158 19.27829461 195 18 C209.81534156 16.58707974 226.1049861 12.19343534 237.421875 2.06640625 C239 1 239 1 243 1 C245.12792969 2.27832031 245.12792969 2.27832031 247.421875 4.078125 C248.27555664 4.73925293 249.12923828 5.40038086 250.00878906 6.08154297 C251.36568848 7.1549292 251.36568848 7.1549292 252.75 8.25 C254.63487097 9.71684731 256.52029395 11.18298556 258.40625 12.6484375 C259.3446875 13.3815918 260.283125 14.11474609 261.25 14.87011719 C265.87025023 18.44851411 270.57409172 21.91454779 275.28808594 25.36816406 C279.89110612 28.78221224 279.89110612 28.78221224 281 31 C279.73169194 33.82015615 278.39824904 36.55748239 277 39.3125 C262.42751357 69.09962121 257.08415988 99.53522343 267.765625 131.44921875 C270.6245458 139.59908349 273.82510511 147.60460313 277.11157227 155.58959961 C291.78693854 191.39947312 297.65211581 232.12083266 283 269 C263.41133256 314.29412313 221.80754381 341.35295913 177.34667969 359.08300781 C161.10646991 365.42905733 144.68254315 371.36015962 128.25190735 377.19360352 C126.3543797 377.87309844 124.46862039 378.58532781 122.5859375 379.30493164 C118.48918469 380.40608867 115.38126653 378.55046366 111.6875 376.875 C103.11282379 373.20400778 94.4488762 369.9534058 85.66394043 366.83294678 C72.47991705 362.13892277 59.60443699 357.11009544 47 351 C46.30745117 350.67080566 45.61490234 350.34161133 44.90136719 350.00244141 C7.77967193 332.33672685 -26.79919852 306.56563914 -42 267 C-56.33619037 225.79999443 -47.30258733 185.78787995 -31.625 146.62890625 C-17.44299397 111.07793032 -16.94154655 80.98209359 -32.09912109 45.42138672 C-34.33744564 40.25208389 -36.64603738 35.11757587 -39 30 C-31.57678666 23.69443901 -23.86009305 17.87100122 -15.9909668 12.13818359 C-10.57991555 8.19169724 -5.26369772 4.14102641 0 0 Z M-2.91601562 8.02880859 C-3.90118164 8.8305249 -3.90118164 8.8305249 -4.90625 9.6484375 C-5.64496338 10.2377002 -6.38367676 10.82696289 -7.14477539 11.43408203 C-7.92199951 12.07458496 -8.69922363 12.71508789 -9.5 13.375 C-11.11235259 14.67302938 -12.72563678 15.96990242 -14.33984375 17.265625 C-15.12987793 17.90435547 -15.91991211 18.54308594 -16.73388672 19.20117188 C-20.68020834 22.33374004 -24.79281954 25.22977949 -28.91015625 28.1328125 C-31.03765144 29.82158086 -31.03765144 29.82158086 -31.99609375 31.83984375 C-32.00216508 35.19729171 -30.53357858 37.47280175 -29 40.4375 C-25.87838896 46.74186786 -23.40609233 53.13831392 -21.1875 59.8125 C-20.89810547 60.67093506 -20.60871094 61.52937012 -20.31054688 62.41381836 C-9.13297877 96.65991453 -18.17622909 126.79283411 -31.24145508 158.73632812 C-39.65247855 179.45660706 -44.25220178 199.37956153 -44.3125 221.8125 C-44.31805908 223.1113916 -44.32361816 224.4102832 -44.3293457 225.74853516 C-44.24469912 237.10854035 -43.11614759 248.04344764 -39.375 258.8125 C-39.11557617 259.56821289 -38.85615234 260.32392578 -38.58886719 261.10253906 C-23.70073137 303.00275678 11.35904015 328.76929364 50.1015625 347.5 C63.85904067 353.91744297 78.10403235 359.19338528 92.31924438 364.49362183 C94.55852451 365.32888583 96.79631285 366.16816056 99.03256226 367.01150513 C102.20770958 368.20519815 105.3895433 369.37887652 108.57421875 370.546875 C110.01655884 371.09283577 110.01655884 371.09283577 111.48803711 371.64982605 C120.76099767 374.99929944 126.63031193 372.58624826 135.6015625 369.28125 C136.63324554 368.9044812 137.66492859 368.5277124 138.72787476 368.13952637 C140.9159212 367.33853864 143.10296256 366.53480072 145.2890625 365.72851562 C148.56179553 364.52327612 151.83915943 363.33137439 155.1171875 362.140625 C172.49075012 355.78452389 189.42907596 348.68335946 205.8125 340.0625 C207.25157715 339.30682739 207.25157715 339.30682739 208.71972656 338.53588867 C221.13285996 331.9157592 232.34623312 324.21362635 243 315 C243.82886719 314.30519531 244.65773438 313.61039062 245.51171875 312.89453125 C266.8686225 294.48803178 282.74640484 267.7399961 285.83007812 239.38964844 C288.31667514 204.42009155 280.53695451 174.67234772 266.85717773 142.6105957 C253.62629156 111.23930981 254.66652216 80.38363425 267 49 C268.7980295 44.9028649 270.75694111 40.90737893 272.8125 36.93359375 C274.09713576 33.76003633 274.21974664 33.06853565 273 30 C271.42372943 28.32593568 271.42372943 28.32593568 269.38671875 26.86328125 C268.6385791 26.289729 267.89043945 25.71617676 267.11962891 25.12524414 C265.9157251 24.22793579 265.9157251 24.22793579 264.6875 23.3125 C263.46812744 22.38908813 263.46812744 22.38908813 262.22412109 21.44702148 C260.58600618 20.20766888 258.94507715 18.97202651 257.30126953 17.74023438 C255.26899073 16.20341247 253.26723756 14.63790737 251.27734375 13.046875 C250.73698486 12.62108154 250.19662598 12.19528809 249.63989258 11.7565918 C248.2172764 10.63523551 246.79985781 9.50729418 245.3828125 8.37890625 C243.17123294 6.76475369 243.17123294 6.76475369 241.07006836 7.30712891 C237.68736317 8.43935173 234.59417072 10.17086836 231.4375 11.8125 C205.04522515 25.18367612 173.09050627 27.5451455 144.671875 18.7109375 C137.19832257 16.18435005 130.66061051 12.90880794 124.33203125 8.125 C122.01795432 6.69890504 122.01795432 6.69890504 119.421875 7.66796875 C117.34804371 8.80857596 115.386786 9.97372863 113.4375 11.3125 C91.95772413 24.92304957 59.93511844 26.58943764 35.5625 21.3125 C24.78540908 18.76774995 14.90803306 14.81701779 5.33984375 9.234375 C1.29583742 6.96835454 1.29583742 6.96835454 -2.91601562 8.02880859 Z " fill="#967B45" transform="translate(79,10)"/>
<path d="M0 0 C2.75927201 3.32843303 4.36593415 6.79802308 6.07421875 10.7578125 C6.35884476 11.4145697 6.64347076 12.0713269 6.9367218 12.74798584 C7.54344658 14.14895331 8.14806093 15.55083635 8.75073242 16.95355225 C9.69253667 19.13667512 10.64806259 21.31330989 11.60742188 23.48876953 C14.30393554 29.62307364 16.96714526 35.72739245 19.20703125 42.046875 C19.67653198 43.30153564 19.67653198 43.30153564 20.15551758 44.58154297 C20.69739185 46.05317259 21.19518775 47.54222265 21.63549805 49.04736328 C22.38346123 51.35283775 22.38346123 51.35283775 25 54 C28.83851273 55.18181717 32.68488184 55.49516697 36.67834473 55.80462646 C40.20973556 56.1018025 43.72406863 56.53166271 47.24359131 56.94387817 C52.28451231 57.53027653 57.33012748 58.07383931 62.375 58.625 C64.47918937 58.85656461 66.58335623 59.08833392 68.6875 59.3203125 C73.79141039 59.88256639 78.89561666 60.44205679 84 61 C83.06916636 62.10878104 82.13499104 63.21475713 81.19946289 64.31958008 C80.67961319 64.93577713 80.15976349 65.55197418 79.62416077 66.18684387 C77.12771629 68.97378694 74.31983402 71.31287309 71.4375 73.6875 C66.55714748 77.78576983 61.78757941 81.96780813 57.125 86.3125 C49.66731814 93.24363889 49.66731814 93.24363889 46.375 96.1875 C45.78460938 96.71730469 45.19421875 97.24710937 44.5859375 97.79296875 C43 99 43 99 40 100 C41.03698614 104.8135213 42.07914028 109.62590039 43.125 114.4375 C43.2810672 115.15586029 43.4371344 115.87422058 43.59793091 116.61434937 C45.99017997 127.60398768 48.51049395 138.55224853 51.22119141 149.46850586 C51.45628418 150.42378174 51.69137695 151.37905762 51.93359375 152.36328125 C52.14040771 153.19126221 52.34722168 154.01924316 52.56030273 154.87231445 C53 157 53 157 53 160 C49.12366858 158.55537958 45.63917687 156.75219208 42.0546875 154.69140625 C41.49118088 154.36836014 40.92767426 154.04531403 40.34709167 153.71247864 C39.14359714 153.02195169 37.94093506 152.32997216 36.73904419 151.63665771 C34.86044756 150.55411414 32.97838341 149.47782778 31.09545898 148.40283203 C25.39181062 145.14077582 19.71383795 141.85013614 14.10546875 138.42578125 C13.24260254 137.90491943 12.37973633 137.38405762 11.49072266 136.84741211 C9.90927934 135.88846533 8.33671715 134.91466623 6.77490234 133.92407227 C6.07703613 133.50311279 5.37916992 133.08215332 4.66015625 132.6484375 C3.77275757 132.09422119 3.77275757 132.09422119 2.86743164 131.52880859 C-0.69203189 130.5208601 -3.5339321 132.74864632 -6.62109375 134.41357422 C-7.55050781 134.9551416 -8.47992188 135.49670898 -9.4375 136.0546875 C-11.01362061 136.96915649 -11.01362061 136.96915649 -12.62158203 137.90209961 C-14.29389893 138.8786853 -14.29389893 138.8786853 -16 139.875 C-17.74139937 140.88698082 -19.48349582 141.89775449 -21.22561646 142.90849304 C-22.40624046 143.5935821 -23.58663905 144.27905974 -24.76681519 144.96492004 C-30.5368827 148.31713469 -36.32841018 151.63137938 -42.125 154.9375 C-43.02476562 155.45103027 -43.92453125 155.96456055 -44.8515625 156.49365234 C-46.90075433 157.66294001 -48.95021127 158.83175915 -51 160 C-52.07922592 156.76232225 -51.93227994 155.74040981 -51.22729492 152.50366211 C-51.03346725 151.59519028 -50.83963959 150.68671844 -50.63993835 149.75071716 C-50.42231339 148.76950394 -50.20468842 147.78829071 -49.98046875 146.77734375 C-49.7618367 145.76209122 -49.54320465 144.74683868 -49.31794739 143.70082092 C-48.61513767 140.44474028 -47.90158148 137.19112536 -47.1875 133.9375 C-46.48656558 130.70837598 -45.78780533 127.47878669 -45.08918762 124.24916077 C-44.65364057 122.23966792 -44.21631737 120.23055891 -43.77690125 118.22190857 C-42.45266177 112.16017783 -41.19534153 106.08847502 -40 100 C-40.62674622 99.69700485 -41.25349243 99.3940097 -41.89923096 99.08183289 C-44.02174881 97.98880001 -45.44886865 96.84615297 -47.171875 95.20703125 C-47.74969727 94.66272461 -48.32751953 94.11841797 -48.92285156 93.55761719 C-49.52581055 92.98172852 -50.12876953 92.40583984 -50.75 91.8125 C-52.00963593 90.62547304 -53.2700465 89.43926755 -54.53125 88.25390625 C-55.13324219 87.68687988 -55.73523438 87.11985352 -56.35546875 86.53564453 C-58.87484598 84.1830788 -61.4692744 81.9239597 -64.078125 79.671875 C-67.26624428 76.89847042 -70.38892975 74.05242264 -73.5234375 71.21875 C-76.51305965 68.54035035 -79.54892436 65.91870489 -82.6015625 63.3125 C-83.06304687 62.879375 -83.52453125 62.44625 -84 62 C-84 61.67 -84 61.34 -84 61 C-79.35562346 60.46777537 -74.71120383 59.93592882 -70.06674194 59.40444946 C-68.44305668 59.21862394 -66.81937906 59.03273154 -65.19570923 58.84677124 C-54.89780039 57.66756795 -44.59903999 56.50059908 -34.29296875 55.39453125 C-33.20628906 55.26433594 -32.11960938 55.13414062 -31 55 C-29.55330933 55.00664673 -29.55330933 55.00664673 -28.07739258 55.01342773 C-24.56334141 53.85620231 -24.3315781 53.44320834 -22.66992188 50.32910156 C-21.91272301 48.69360785 -21.18058724 47.04636579 -20.46875 45.390625 C-19.87024231 44.07393829 -19.87024231 44.07393829 -19.25964355 42.73065186 C-17.98470766 39.91295997 -16.74205807 37.0823162 -15.5 34.25 C-14.6648746 32.38837305 -13.82765628 30.52768348 -12.98828125 28.66796875 C-11.37397508 25.08375082 -9.77132118 21.49473218 -8.1796875 17.90039062 C-5.52008651 11.90232723 -2.77481973 5.94564666 0 0 Z M0 12 C-4.05383023 19.36509105 -7.2311591 26.27068081 -9.3125 34.41015625 C-14.64005745 53.34846741 -14.64005745 53.34846741 -22 59 C-33.9776611 64.37553444 -48.98152091 63.93154726 -61.87774658 63.85336304 C-62.77048279 63.84817657 -63.66321899 63.84299011 -64.58300781 63.83764648 C-65.75757538 63.8149192 -65.75757538 63.8149192 -66.95587158 63.79173279 C-69.31289317 63.87095221 -69.31289317 63.87095221 -72 66 C-67.87911351 70.23678642 -63.64289702 74.2568045 -59.16796875 78.1171875 C-56.75157049 80.2157532 -54.37470976 82.354397 -52 84.5 C-48.86544464 87.32544666 -45.72650936 90.14504403 -42.5625 92.9375 C-41.94503906 93.48277344 -41.32757813 94.02804688 -40.69140625 94.58984375 C-38.84382494 96.18122039 -38.84382494 96.18122039 -36 98 C-36.51204012 107.62948921 -38.48382881 116.85194331 -40.5 126.25 C-40.98431763 128.52885716 -41.46678997 130.80808212 -41.94689941 133.08782959 C-42.24354092 134.49421619 -42.54275578 135.90006359 -42.84509277 137.30523682 C-43.7410296 141.52605664 -44.43270838 145.72594192 -45 150 C-41.31441906 148.60872658 -37.93651584 146.94644662 -34.5 145.0234375 C-33.45368408 144.43828369 -32.40736816 143.85312988 -31.3293457 143.25024414 C-29.68131958 142.32199829 -29.68131958 142.32199829 -28 141.375 C-26.87746826 140.74779053 -25.75493652 140.12058105 -24.59838867 139.47436523 C-17.73359712 135.61724314 -11.03530898 131.62686771 -4.55078125 127.16015625 C-1.19732097 125.6349224 0.44070219 126.14837388 4 127 C6.84570312 128.36352539 6.84570312 128.36352539 9.78125 130.09765625 C10.8647876 130.7311499 11.9483252 131.36464355 13.06469727 132.01733398 C14.19834717 132.69223877 15.33199707 133.36714355 16.5 134.0625 C17.66992034 134.74975257 18.84041413 135.43602988 20.01147461 136.12133789 C22.30557899 137.46508161 24.59660822 138.81362441 26.88623047 140.16503906 C30.76301067 142.44964624 34.65684206 144.70272602 38.5625 146.9375 C39.61566406 147.54464844 40.66882813 148.15179688 41.75390625 148.77734375 C43.72016594 150.0796838 43.72016594 150.0796838 45 150 C44.41189158 143.95499223 43.50291923 138.15543326 42.15234375 132.23828125 C41.79095192 130.60873809 41.42962571 128.97918037 41.06835938 127.34960938 C40.50186102 124.82141657 39.93326115 122.29371249 39.36303711 119.76635742 C38.808322 117.29981798 38.26127134 114.83166774 37.71484375 112.36328125 C37.54299057 111.61315262 37.37113739 110.86302399 37.19407654 110.09016418 C36.29044524 105.99478663 35.68483541 102.19481295 36 98 C37.3984375 96.19921875 37.3984375 96.19921875 39.375 94.6875 C40.10847656 94.10097656 40.84195313 93.51445312 41.59765625 92.91015625 C42.39042969 92.27980469 43.18320313 91.64945312 44 91 C45.61315495 89.55161541 47.21702485 88.09283714 48.8125 86.625 C53.21512097 82.64843912 57.76044427 78.88414966 62.37109375 75.15234375 C65.99150687 72.18823137 69.5070741 69.11260732 73 66 C72.67 65.34 72.34 64.68 72 64 C69.07759393 63.53298297 66.22798102 63.19367343 63.28515625 62.9296875 C62.40025009 62.84373322 61.51534393 62.75777893 60.60362244 62.66921997 C58.72176723 62.4883986 56.83946534 62.31217759 54.95678711 62.14013672 C52.10482619 61.87887737 49.25460802 61.60284106 46.40429688 61.32421875 C44.57300106 61.15015153 42.74162286 60.97694839 40.91015625 60.8046875 C40.06808121 60.72346649 39.22600616 60.64224548 38.3584137 60.55856323 C32.55883063 60.03582319 26.82160692 59.91044945 21 60 C20.87331436 59.26811966 20.74662872 58.53623932 20.61610413 57.78218079 C20.03088828 55.1394842 19.24072647 52.95103492 18.14233398 50.48510742 C17.76201523 49.62459274 17.38169647 48.76407806 16.98985291 47.87748718 C16.37419212 46.50533806 16.37419212 46.50533806 15.74609375 45.10546875 C15.32578384 44.15811356 14.90547394 43.21075836 14.47242737 42.23469543 C13.13219544 39.21682781 11.78495172 36.20214995 10.4375 33.1875 C9.52622831 31.13887839 8.61541561 29.09005254 7.70507812 27.04101562 C5.47536772 22.02496388 3.23989608 17.01151099 1 12 C0.67 12 0.34 12 0 12 Z " fill="#997E47" transform="translate(200,100)"/>
</svg>
