<?xml version="1.0" encoding="UTF-8"?>
<svg version="1.1" xmlns="http://www.w3.org/2000/svg" width="512" height="512">
<path d="M0 0 C1.1695372 -0.00570007 2.3390744 -0.01140015 3.54405212 -0.01727295 C6.01576853 -0.02667935 8.48749724 -0.03323948 10.95922852 -0.03710938 C14.65209383 -0.04671183 18.34437672 -0.07773501 22.03710938 -0.109375 C80.29021453 -0.37165219 134.85920098 19.89779117 179.65234375 57.203125 C180.17795898 57.63850586 180.70357422 58.07388672 181.24511719 58.52246094 C192.64492517 67.99737265 203.29155237 77.87315702 212.51953125 89.515625 C213.91118264 91.2692077 215.33218287 93.00000602 216.78515625 94.703125 C241.14075814 123.33623404 257.72862502 159.41058075 267.08984375 195.578125 C267.32477539 196.46669189 267.55970703 197.35525879 267.80175781 198.27075195 C272.08247428 215.84230031 271.97185271 233.82896177 271.91308594 251.80029297 C271.90236213 255.69644733 271.91304076 259.59214077 271.92578125 263.48828125 C271.93624692 280.58327453 271.77922752 297.72159288 267.52734375 314.390625 C267.31416504 315.2468042 267.10098633 316.1029834 266.88134766 316.98510742 C256.91714245 355.68792126 238.79789372 391.88592884 212.65234375 422.203125 C212.02972656 422.93660156 211.40710938 423.67007812 210.765625 424.42578125 C198.66862947 438.28147554 185.56877119 451.41165409 170.65234375 462.203125 C169.31637641 463.19527232 167.98044024 464.18746162 166.64453125 465.1796875 C156.7657397 472.4209209 146.49008852 478.51835611 135.65234375 484.203125 C134.99975586 484.5532666 134.34716797 484.9034082 133.67480469 485.26416016 C100.34591702 503.12441236 63.33242195 512.25154267 25.5546875 512.40625 C24.44033829 512.41195007 23.32598907 512.41765015 22.1778717 512.42352295 C19.83416675 512.43290297 17.49044903 512.43947878 15.14672852 512.44335938 C11.62296663 512.45303406 8.09979677 512.48411351 4.57617188 512.515625 C-8.68852548 512.57839981 -21.35307782 511.94312693 -34.34765625 509.203125 C-35.41959229 508.97866699 -36.49152832 508.75420898 -37.59594727 508.52294922 C-40.28274458 507.91146002 -42.93860715 507.23760844 -45.59765625 506.515625 C-46.550354 506.25998779 -47.50305176 506.00435059 -48.48461914 505.7409668 C-102.56819842 490.85700252 -154.75660133 459.8242372 -188.15332031 413.84619141 C-189.35386685 412.19458099 -190.57923365 410.56383215 -191.80859375 408.93359375 C-225.09363556 364.22528315 -240.561158 312.45961716 -240.59765625 257.203125 C-240.59833099 256.2809317 -240.59900574 255.3587384 -240.59970093 254.40859985 C-240.54085612 203.49354141 -227.7768071 152.91872452 -197.34765625 111.203125 C-196.9084082 110.59694336 -196.46916016 109.99076172 -196.01660156 109.36621094 C-192.53867604 104.583769 -188.9772176 99.87141739 -185.34765625 95.203125 C-184.71682129 94.39004883 -184.71682129 94.39004883 -184.07324219 93.56054688 C-171.301308 77.31290355 -156.10335194 62.29654327 -139.34765625 50.203125 C-138.31769531 49.41679688 -137.28773438 48.63046875 -136.2265625 47.8203125 C-97.45799774 18.56536114 -48.72113318 0.18911344 0 0 Z M-159.34765625 158.203125 C-156.76587587 159.92431192 -155.20965 160.67731987 -152.32861328 161.52148438 C-151.09730682 161.88562691 -151.09730682 161.88562691 -149.84112549 162.25712585 C-148.4869754 162.64805168 -148.4869754 162.64805168 -147.10546875 163.046875 C-146.14372742 163.32799637 -145.18198608 163.60911774 -144.19110107 163.89875793 C-140.95372146 164.84098203 -137.71355807 165.77309162 -134.47265625 166.703125 C-133.3461969 167.02759613 -132.21973755 167.35206726 -131.05914307 167.68637085 C-91.19246212 179.14234961 -50.99238608 189.58037848 -10.66015625 199.265625 C-9.39374298 199.57217514 -9.39374298 199.57217514 -8.10174561 199.88491821 C4.20090836 202.84994633 14.72806377 205.1342949 27.27734375 202.390625 C28.35266357 202.1632666 29.4279834 201.9359082 30.53588867 201.70166016 C34.2484909 200.89774921 37.95092104 200.05701342 41.65234375 199.203125 C42.62636139 198.97879791 42.62636139 198.97879791 43.62005615 198.74993896 C91.73973106 187.61651667 139.429636 173.63560237 186.65234375 159.203125 C186.65234375 158.873125 186.65234375 158.543125 186.65234375 158.203125 C72.47234375 158.203125 -41.70765625 158.203125 -159.34765625 158.203125 Z M-165.34765625 180.203125 C-165.34765625 230.033125 -165.34765625 279.863125 -165.34765625 331.203125 C-152.02147922 325.49190627 -138.74078051 319.74066806 -125.53515625 313.765625 C-123.81535094 312.98907173 -122.09545942 312.21270936 -120.37548828 311.43652344 C-117.70951954 310.23340872 -115.04361476 309.03015478 -112.37805176 307.82614136 C-106.2304472 305.04989188 -100.07763751 302.28545198 -93.921875 299.52734375 C-61.90341718 285.3582839 -61.90341718 285.3582839 -30.34765625 270.203125 C-31.88197279 266.13901274 -34.33823273 264.46961545 -37.84765625 262.015625 C-38.44731201 261.59619629 -39.04696777 261.17676758 -39.66479492 260.74462891 C-57.50856904 248.39441911 -75.94591398 236.85406328 -94.23876953 225.18701172 C-100.48070882 221.20381722 -106.71515447 217.20890204 -112.95092773 213.21606445 C-118.28096756 209.80381726 -123.61315524 206.39500856 -128.94921875 202.9921875 C-131.12385241 201.60440873 -133.29833396 200.21639157 -135.47265625 198.828125 C-137.0342749 197.83123657 -137.0342749 197.83123657 -138.62744141 196.81420898 C-145.15135493 192.63892523 -151.63353415 188.40921718 -158.02392578 184.03173828 C-160.47166963 182.36932754 -162.51923105 181.1459334 -165.34765625 180.203125 Z M188.65234375 186.015625 C187.64993652 186.60875488 186.6475293 187.20188477 185.61474609 187.81298828 C179.07054649 191.70822103 172.62913749 195.7252239 166.26074219 199.90014648 C152.72736543 208.76339897 138.91014092 217.19427077 125.15234375 225.703125 C122.55404227 227.31143292 119.95589098 228.91998276 117.35791016 230.52880859 C115.50407886 231.67603608 113.64955131 232.82213903 111.79443359 233.96728516 C100.23734751 241.10633136 88.77351658 248.36385204 77.46484375 255.890625 C76.45510498 256.56198486 75.44536621 257.23334473 74.4050293 257.92504883 C66.0172985 262.7905214 66.0172985 262.7905214 60.65234375 270.203125 C71.43227343 275.70700054 82.32174696 280.83612491 93.40234375 285.703125 C94.97389148 286.39689673 96.54525756 287.09108005 98.11645508 287.78564453 C101.36098861 289.21961165 104.60627808 290.65184797 107.85205078 292.08300781 C112.42390667 294.10038571 116.99028643 296.12988266 121.5546875 298.1640625 C138.00460018 305.49398013 154.47446546 312.77716116 170.96484375 320.015625 C171.85505219 320.4064325 172.74526062 320.79723999 173.66244507 321.19989014 C176.19662407 322.31213489 178.73105416 323.42380475 181.265625 324.53515625 C182.01196198 324.86257309 182.75829895 325.18998993 183.5272522 325.52732849 C184.91532433 326.13551525 186.30419668 326.74188016 187.69400024 327.34609985 C189.00731624 327.92084316 190.31671634 328.50461287 191.62216187 329.09701538 C194.48928735 330.37996416 196.47153599 331.203125 199.65234375 331.203125 C199.65234375 281.373125 199.65234375 231.543125 199.65234375 180.203125 C196.20086849 180.203125 191.54686893 184.3012895 188.65234375 186.015625 Z M-126.34765625 183.203125 C-122.79145732 186.97744967 -119.06758674 189.9490419 -114.71875 192.78515625 C-114.08840347 193.20302902 -113.45805695 193.62090179 -112.80860901 194.05143738 C-110.80437091 195.37834764 -108.79494792 196.69714551 -106.78515625 198.015625 C-105.46383405 198.88812896 -104.14286755 199.76117185 -102.82226562 200.63476562 C-100.23828308 202.34360528 -97.65109248 204.04743242 -95.06201172 205.74853516 C-92.62139788 207.35529181 -90.19411385 208.97944667 -87.77783203 210.62255859 C-86.69872559 211.3542627 -85.61961914 212.0859668 -84.5078125 212.83984375 C-83.08094116 213.81570435 -83.08094116 213.81570435 -81.62524414 214.8112793 C-79.50809527 216.37694044 -79.50809527 216.37694044 -77.34765625 216.203125 C-76.95578125 215.048125 -76.56390625 213.893125 -76.16015625 212.703125 C-74.46568946 208.14109904 -72.05546517 204.22737857 -69.34765625 200.203125 C-74.2727317 197.51793737 -79.19406283 195.90074063 -84.55078125 194.35546875 C-85.42861267 194.0981044 -86.30644409 193.84074005 -87.21087646 193.57557678 C-89.06246611 193.0341891 -90.9148825 192.49562187 -92.76806641 191.9597168 C-95.5767942 191.14666402 -98.38226849 190.32307152 -101.1875 189.49804688 C-102.99590882 188.97071955 -104.80449706 188.44400706 -106.61328125 187.91796875 C-107.43967102 187.67521713 -108.26606079 187.43246552 -109.11749268 187.18235779 C-114.810407 185.54418607 -120.5236353 184.28271582 -126.34765625 183.203125 Z M149.0324707 184.44067383 C148.09752274 184.71128128 147.16257477 184.98188873 146.19929504 185.26069641 C145.18993393 185.55751816 144.18057281 185.8543399 143.140625 186.16015625 C142.09843307 186.46378586 141.05624115 186.76741547 139.98246765 187.08024597 C137.77363106 187.72480777 135.56537832 188.37137322 133.35766602 189.01977539 C129.99713785 190.00614615 126.63449035 190.98500577 123.27148438 191.96289062 C121.12356608 192.59069495 118.97577546 193.21893631 116.828125 193.84765625 C115.82888504 194.1384053 114.82964508 194.42915436 113.80012512 194.72871399 C108.31884799 196.3434125 102.97496877 198.12295986 97.65234375 200.203125 C98.05066406 200.77160156 98.44898438 201.34007812 98.859375 201.92578125 C102.03937784 206.56038393 104.64169909 210.9531084 106.65234375 216.203125 C113.78837619 212.85918709 120.29327893 208.73191787 126.90234375 204.453125 C127.95808594 203.77507812 129.01382812 203.09703125 130.1015625 202.3984375 C133.29232187 200.34416648 136.47311142 198.27518139 139.65234375 196.203125 C140.73966797 195.50251953 141.82699219 194.80191406 142.94726562 194.08007812 C143.99978516 193.39365234 145.05230469 192.70722656 146.13671875 192 C147.07741211 191.38995117 148.01810547 190.77990234 148.98730469 190.15136719 C151.83997124 188.06596236 154.21827624 185.75850988 156.65234375 183.203125 C153.74267617 183.203125 151.80251304 183.6329732 149.0324707 184.44067383 Z M-28.34765625 212.203125 C-28.30125 213.10933594 -28.25484375 214.01554688 -28.20703125 214.94921875 C-27.97509489 222.77707097 -28.44491897 228.3947001 -32.34765625 235.203125 C-33.01988035 236.53366511 -33.68812914 237.86624572 -34.34765625 239.203125 C-35.00765625 239.203125 -35.66765625 239.203125 -36.34765625 239.203125 C-32.60124977 248.04080183 -20.48243442 254.03455708 -12.34765625 258.203125 C-6.8721763 259.9375938 -2.54716502 259.09221163 2.875 257.69140625 C11.00210471 256.26259037 20.11928589 256.41764455 28.15234375 258.265625 C38.44760136 260.59760449 45.3741543 256.70709329 53.94970703 251.30371094 C57.93886672 248.72511445 61.82961955 246.02172349 65.65234375 243.203125 C65.05278314 239.85742876 63.89333188 238.0310914 61.71484375 235.453125 C56.43545559 228.56200055 56.37459626 222.78942912 57.36328125 214.328125 C57.45867187 213.626875 57.5540625 212.925625 57.65234375 212.203125 C53.51074354 212.79828829 49.78712386 213.76968237 45.83984375 215.140625 C24.17487683 221.92634926 -1.20526566 221.13976701 -22.40625 213.2265625 C-25.3008262 212.03881604 -25.3008262 212.03881604 -28.34765625 212.203125 Z M-69.34765625 305.203125 C-70.02717346 305.50410095 -70.70669067 305.8050769 -71.40679932 306.11517334 C-80.40591033 310.10289965 -89.38282845 314.1389485 -98.34765625 318.203125 C-99.37439453 318.6681543 -99.37439453 318.6681543 -100.421875 319.14257812 C-119.84090867 327.93908433 -139.18232178 336.86389114 -158.34765625 346.203125 C-158.34765625 346.533125 -158.34765625 346.863125 -158.34765625 347.203125 C-42.84765625 347.203125 72.65234375 347.203125 191.65234375 347.203125 C188.8997881 344.45056935 185.59525138 343.28985189 182.0703125 341.7734375 C181.28659775 341.43160431 180.502883 341.08977112 179.69541931 340.73757935 C177.98379978 339.99152968 176.27125714 339.24759522 174.55792236 338.50549316 C169.86787677 336.47394399 165.18438473 334.42737224 160.5 332.3828125 C159.03164703 331.74267212 159.03164703 331.74267212 157.53363037 331.08959961 C148.17533054 327.00560179 138.85147384 322.84599591 129.52890015 318.68127441 C83.51615157 297.8738931 83.51615157 297.8738931 36.71484375 278.953125 C35.22766846 278.38924072 35.22766846 278.38924072 33.71044922 277.81396484 C0.33269154 265.75941633 -38.99073599 291.74760288 -69.34765625 305.203125 Z " fill="#000000" transform="translate(240.34765625,-0.203125)"/>
</svg>
