<?xml version="1.0" encoding="UTF-8"?>
<svg version="1.1" xmlns="http://www.w3.org/2000/svg" width="512" height="512">
<path d="M0 0 C168.96 0 337.92 0 512 0 C512 168.96 512 337.92 512 512 C343.04 512 174.08 512 0 512 C0 343.04 0 174.08 0 0 Z " fill="#002864" transform="translate(0,0)"/>
<path d="M0 0 C112.86 0 225.72 0 342 0 C342 112.86 342 225.72 342 342 C229.14 342 116.28 342 0 342 C0 229.14 0 116.28 0 0 Z " fill="#FDFDFD" transform="translate(85,85)"/>
<path d="M0 0 C56.1 0 112.2 0 170 0 C170 56.1 170 112.2 170 170 C113.9 170 57.8 170 0 170 C0 113.9 0 57.8 0 0 Z " fill="#002864" transform="translate(171,171)"/>
</svg>
