<?xml version="1.0" encoding="UTF-8"?>
<svg version="1.1" xmlns="http://www.w3.org/2000/svg" width="300" height="351">
<path d="M0 0 C3.91565015 0.00315309 7.83053653 -0.02037839 11.74609375 -0.0456543 C34.05227984 -0.10136903 57.41617471 0.3183971 78.81640625 7.31567383 C79.60273438 7.55415039 80.3890625 7.79262695 81.19921875 8.03833008 C93.61398864 12.8825246 100.46940496 29.122293 105.81640625 40.31567383 C106.14640625 41.30567383 106.47640625 42.29567383 106.81640625 43.31567383 C107.44160156 43.62633789 108.06679687 43.93700195 108.7109375 44.25708008 C111.27519098 45.54634296 112.05759895 46.80312013 113.50390625 49.25317383 C114.12845703 50.28764648 114.12845703 50.28764648 114.765625 51.34301758 C117.44576591 56.37450888 117.03714595 61.32237444 117.06640625 66.87817383 C117.09734375 68.30613281 117.09734375 68.30613281 117.12890625 69.76293945 C117.18595901 80.23925339 114.72938135 89.27526072 107.81640625 97.31567383 C100.14481953 104.31567383 100.14481953 104.31567383 96.81640625 104.31567383 C96.87699219 104.94546143 96.93757812 105.57524902 97 106.22412109 C97.27553467 109.10849216 97.54600801 111.9933169 97.81640625 114.87817383 C97.95949219 116.36414063 97.95949219 116.36414063 98.10546875 117.88012695 C98.58648746 123.05107811 98.93294259 128.12252334 98.81640625 133.31567383 C100.46640625 133.64567383 102.11640625 133.97567383 103.81640625 134.31567383 C103.89058961 140.08143297 103.94502422 145.846914 103.98120117 151.61303711 C103.9962832 153.57434936 104.01675172 155.53562791 104.04272461 157.49682617 C104.07913356 160.31673501 104.09613841 163.13619775 104.109375 165.95629883 C104.12485886 166.83247864 104.14034271 167.70865845 104.15629578 168.61138916 C104.15755061 173.15543492 104.15290902 175.91131904 100.81640625 179.31567383 C100.11125779 181.46301309 100.11125779 181.46301309 99.81640625 183.31567383 C102.45640625 183.31567383 105.09640625 183.31567383 107.81640625 183.31567383 C108.20795898 182.5523877 108.59951172 181.78910156 109.00292969 181.00268555 C116.05490049 167.27130866 123.13356677 153.56582405 130.58666992 140.04638672 C132.99750315 135.66876708 135.37243021 131.27831116 137.67578125 126.84301758 C138.13170654 125.96532715 138.58763184 125.08763672 139.05737305 124.18334961 C139.9128142 122.52935975 140.76355524 120.87292695 141.60864258 119.21362305 C141.98786865 118.48030762 142.36709473 117.74699219 142.7578125 116.99145508 C143.24809937 116.03106323 143.24809937 116.03106323 143.74829102 115.05126953 C144.92863808 113.13330673 146.07822644 111.75026279 147.81640625 110.31567383 C150.87890625 110.00317383 150.87890625 110.00317383 153.81640625 110.31567383 C155.81640625 112.31567383 155.81640625 112.31567383 156.30078125 115.21801758 C156.11557186 121.01178543 152.77982327 125.91786913 150.06640625 130.87817383 C149.47802979 131.98080566 148.88965332 133.0834375 148.28344727 134.21948242 C146.47720527 137.59387638 144.6503186 140.9562503 142.81640625 144.31567383 C142.28837402 145.28649902 141.7603418 146.25732422 141.21630859 147.25756836 C139.73127235 149.98660399 138.2430554 152.71388068 136.75390625 155.44067383 C136.27244141 156.32335937 135.79097656 157.20604492 135.29492188 158.11547852 C134.81087891 159.00267578 134.32683594 159.88987305 133.828125 160.80395508 C133.34134277 161.69679199 132.85456055 162.58962891 132.35302734 163.50952148 C131.28343423 165.46279496 130.20777698 167.41275492 129.12744141 169.36010742 C127.42256612 172.44005298 125.74273073 175.53261609 124.06640625 178.62817383 C123.54038818 179.56483887 123.01437012 180.50150391 122.47241211 181.46655273 C119.69838717 186.64541629 118.22902823 190.46103316 118.79663086 196.37475586 C118.83262866 199.90787324 117.15081316 201.85508276 114.81640625 204.31567383 C112.06640625 204.69067383 112.06640625 204.69067383 109.81640625 204.31567383 C107.73854987 207.77876779 107.79470735 210.03599242 108.66015625 213.82348633 C117.09223386 253.1185361 117.09223386 253.1185361 111.1640625 263.09692383 C109.15369409 265.16344778 107.21872625 266.73312361 104.81640625 268.31567383 C104.11 268.87383789 103.40359375 269.43200195 102.67578125 270.00708008 C100.81640625 271.31567383 100.81640625 271.31567383 98.81640625 271.31567383 C98.74164063 271.85192383 98.666875 272.38817383 98.58984375 272.94067383 C96.02954761 288.20204693 89.54512475 301.35657226 79.81640625 313.31567383 C80.92831576 316.04490626 82.07830161 317.57756919 84.19140625 319.69067383 C88.00735639 323.50662397 90.52344908 326.4602784 91.37890625 331.87817383 C90.67079807 336.20550159 89.17396446 337.59765052 85.81640625 340.31567383 C82.79861688 341.82456851 81.19317988 341.81593659 77.81640625 341.31567383 C74.87814226 339.26981646 72.39089287 336.79445463 69.81640625 334.31567383 C68.32305569 332.99561309 66.82331226 331.6827391 65.31640625 330.37817383 C64.14973958 329.35734049 62.98307292 328.33650716 61.81640625 327.31567383 C60.85863281 327.70239258 59.90085938 328.08911133 58.9140625 328.48754883 C23.38742364 342.51585446 -13.29006324 342.39738467 -49.4296875 330.58129883 C-53.0351142 330.03526539 -56.23991031 332.45976968 -59.18359375 334.31567383 C-62.21830508 336.62495616 -65.20758371 338.97159043 -68.15625 341.38989258 C-71.64419121 343.60867324 -74.07027453 344.18486156 -78.18359375 344.31567383 C-79.17359375 343.65567383 -80.16359375 342.99567383 -81.18359375 342.31567383 C-81.18359375 341.65567383 -81.18359375 340.99567383 -81.18359375 340.31567383 C-82.50359375 339.65567383 -83.82359375 338.99567383 -85.18359375 338.31567383 C-85.78602344 334.18472737 -86.04364466 330.7441062 -83.8359375 327.07739258 C-80.37058443 323.03321131 -76.68771699 320.1039406 -72.18359375 317.31567383 C-71.85359375 316.65567383 -71.52359375 315.99567383 -71.18359375 315.31567383 C-71.76238281 315.08750977 -72.34117188 314.8593457 -72.9375 314.62426758 C-82.14355936 309.26073734 -87.01683816 295.60534437 -89.93359375 285.87817383 C-91.24633131 280.84480441 -91.57845327 275.9392091 -91.6796875 270.74926758 C-91.84597656 269.94618164 -92.01226562 269.1430957 -92.18359375 268.31567383 C-94.00390133 267.06939657 -94.00390133 267.06939657 -96.18359375 266.31567383 C-98.91683454 264.33470114 -100.59050598 262.294616 -102.18359375 259.31567383 C-103.30180157 249.6022504 -101.64525981 239.72282641 -100.18359375 230.12817383 C-99.80703571 227.57241332 -99.43196048 225.01643375 -99.05859375 222.46020508 C-98.89101562 221.35008057 -98.7234375 220.23995605 -98.55078125 219.09619141 C-98.11813344 216.28742035 -98.11813344 216.28742035 -98.18359375 213.31567383 C-98.65796875 212.84129883 -99.13234375 212.36692383 -99.62109375 211.87817383 C-101.43462967 210.06463791 -101.7545267 208.80426269 -102.18359375 206.31567383 C-103.11171875 206.27442383 -104.03984375 206.23317383 -104.99609375 206.19067383 C-108.18359375 205.31567383 -108.18359375 205.31567383 -109.99609375 202.50317383 C-110.38796875 201.45129883 -110.77984375 200.39942383 -111.18359375 199.31567383 C-111.43109375 198.65567383 -111.67859375 197.99567383 -111.93359375 197.31567383 C-112.18359375 195.31567383 -112.18359375 195.31567383 -111.50805664 192.64477539 C-111.09684179 188.42556867 -112.39576684 185.72069116 -114.2421875 182.05004883 C-114.57795807 181.35113022 -114.91372864 180.65221161 -115.25967407 179.93211365 C-115.98681859 178.42357324 -116.72117463 176.918492 -117.46194458 175.41659546 C-118.63249279 173.04255494 -119.7833497 170.65985835 -120.92944336 168.27392578 C-122.9299688 164.11568576 -124.94578725 159.96508087 -126.96618652 155.81646729 C-130.05994316 149.46128376 -133.13701535 143.09847625 -136.18215942 136.71984863 C-137.22867291 134.53946962 -138.29145792 132.36755786 -139.35522461 130.19555664 C-139.99804345 128.85447342 -140.64009379 127.51302148 -141.28125 126.17114258 C-141.84336182 125.01251709 -142.40547363 123.8538916 -142.98461914 122.66015625 C-144.31359583 118.95303922 -144.57212539 116.22454661 -144.18359375 112.31567383 C-141.99609375 110.25317383 -141.99609375 110.25317383 -139.18359375 109.31567383 C-135.5395251 110.11652822 -134.408407 110.97023639 -132.35351562 114.12768555 C-131.79212891 115.32151855 -131.23074219 116.51535156 -130.65234375 117.74536133 C-130.33932816 118.3994397 -130.02631256 119.05351807 -129.70381165 119.72741699 C-128.68112147 121.87468636 -127.68232301 124.03216922 -126.68359375 126.19067383 C-125.9788166 127.68301557 -125.27266589 129.17470936 -124.56518555 130.66577148 C-122.76488181 134.47114556 -120.98484934 138.28559799 -119.21185303 142.10375977 C-117.9224676 144.87738877 -116.62448637 147.6469444 -115.32632446 150.41647339 C-112.37896849 156.70728881 -109.45158191 163.00715551 -106.55712891 169.32250977 C-105.61504192 171.37547572 -104.6664563 173.4254683 -103.71240234 175.47290039 C-103.02331787 176.96128418 -103.02331787 176.96128418 -102.3203125 178.47973633 C-101.90869873 179.3635498 -101.49708496 180.24736328 -101.07299805 181.15795898 C-100.18359375 183.31567383 -100.18359375 183.31567383 -100.18359375 185.31567383 C-96.88359375 184.98567383 -93.58359375 184.65567383 -90.18359375 184.31567383 C-91.22263846 181.00962248 -92.06787168 179.41769595 -94.70776367 177.09033203 C-97.81448471 173.60863549 -97.89909511 171.72097755 -98.109375 167.10864258 C-98.14669235 166.42441727 -98.1840097 165.74019196 -98.22245789 165.03523254 C-98.33572985 162.85830005 -98.41618181 160.68155896 -98.49609375 158.50317383 C-98.56754774 157.05189634 -98.64109639 155.60072038 -98.71679688 154.1496582 C-98.91247009 150.20571729 -99.07433245 146.26315405 -99.18359375 142.31567383 C-99.21053314 141.59546051 -99.23747253 140.87524719 -99.26522827 140.13320923 C-99.39902817 134.54547054 -99.39902817 134.54547054 -97.30859375 132.31567383 C-95.18359375 131.31567383 -95.18359375 131.31567383 -93.18359375 131.31567383 C-93.34859375 130.20192383 -93.51359375 129.08817383 -93.68359375 127.94067383 C-94.11552861 124.54998519 -94.16079 121.35550425 -93.93359375 117.95629883 C-93.06413683 109.48382838 -93.06413683 109.48382838 -95.97265625 101.91333008 C-98.28481829 100.21586309 -98.28481829 100.21586309 -100.7890625 98.81567383 C-105.64793762 95.77194129 -108.16864759 90.53888923 -110.49609375 85.44067383 C-112.78746395 75.02535473 -114.63141634 58.92906848 -108.80859375 49.44067383 C-107.53515625 47.76098633 -107.53515625 47.76098633 -106.18359375 46.31567383 C-105.67570312 45.7562207 -105.1678125 45.19676758 -104.64453125 44.62036133 C-103.18359375 43.31567383 -103.18359375 43.31567383 -101.18359375 43.31567383 C-100.92449219 42.44168945 -100.66539063 41.56770508 -100.3984375 40.66723633 C-96.32307686 29.42395843 -85.40467773 15.82055175 -75.2421875 9.26489258 C-70.12440624 6.90508073 -64.6454897 5.62046008 -59.18359375 4.31567383 C-58.3328125 4.11071289 -57.48203125 3.90575195 -56.60546875 3.69458008 C-38.09835765 -0.15609304 -18.80273116 -0.03150905 0 0 Z M-54.05859375 9.19067383 C-54.84935303 9.33988281 -55.6401123 9.4890918 -56.45483398 9.64282227 C-72.38000042 12.97326443 -81.3280167 22.10490373 -91.18359375 34.31567383 C-90.52359375 34.64567383 -89.86359375 34.97567383 -89.18359375 35.31567383 C-87.47299345 34.73377732 -85.788343 34.07461972 -84.12109375 33.37817383 C-73.98793578 29.61105422 -65.17262936 31.22871787 -55.18359375 35.31567383 C-54.15245095 36.20991163 -53.14571164 37.13299418 -52.1640625 38.08129883 C-51.18050781 38.81864258 -50.19695312 39.55598633 -49.18359375 40.31567383 C-45.95681385 39.96584842 -45.95681385 39.96584842 -42.68359375 38.37817383 C-36.15594068 35.79930652 -29.72016596 34.26892417 -22.80859375 33.06567383 C-21.89400391 32.90333252 -20.97941406 32.74099121 -20.03710938 32.57373047 C2.98050559 28.62671933 29.57760572 28.55548538 51.60546875 37.44067383 C53.88502348 38.49966846 53.88502348 38.49966846 56.81640625 38.31567383 C56.81640625 37.65567383 56.81640625 36.99567383 56.81640625 36.31567383 C57.46867188 36.12231445 58.1209375 35.92895508 58.79296875 35.72973633 C59.66695312 35.4693457 60.5409375 35.20895508 61.44140625 34.94067383 C62.36308594 34.66868164 63.28476563 34.39668945 64.234375 34.11645508 C66.90306304 33.32811371 66.90306304 33.32811371 69.75390625 32.12817383 C77.97330147 29.94751795 84.89000494 31.25234357 92.6015625 34.53833008 C93.33246094 34.79485352 94.06335938 35.05137695 94.81640625 35.31567383 C95.80640625 34.82067383 95.80640625 34.82067383 96.81640625 34.31567383 C95.5693752 32.41788628 94.31864567 30.52252872 93.06640625 28.62817383 C92.3703125 27.57243164 91.67421875 26.51668945 90.95703125 25.42895508 C83.55732844 14.66697854 74.78630009 12.19523207 62.45214844 9.78149414 C25.06268055 3.1735741 -16.67909281 2.07342186 -54.05859375 9.19067383 Z M-91.18359375 200.31567383 C-91.51359375 200.97567383 -91.84359375 201.63567383 -92.18359375 202.31567383 C-91.52359375 202.97567383 -90.86359375 203.63567383 -90.18359375 204.31567383 C-90.51359375 202.99567383 -90.84359375 201.67567383 -91.18359375 200.31567383 Z " fill="#38AAC7" transform="translate(144.18359375,-0.315673828125)"/>
<path d="M0 0 C3.52572058 2.0232982 4.35454668 4.22896535 6.07617188 7.89013672 C6.38918747 8.54421509 6.70220306 9.19829346 7.02470398 9.87219238 C8.04739415 12.01946175 9.04619262 14.17694461 10.04492188 16.33544922 C10.74969903 17.82779096 11.45584974 19.31948475 12.16333008 20.81054688 C13.96363381 24.61592095 15.74366628 28.43037338 17.5166626 32.24853516 C18.80604802 35.02216416 20.10402926 37.79171979 21.40219116 40.56124878 C24.34954714 46.85206421 27.27693372 53.1519309 30.17138672 59.46728516 C31.11347371 61.52025111 32.06205932 63.57024369 33.01611328 65.61767578 C33.47550293 66.60993164 33.93489258 67.6021875 34.40820312 68.62451172 C34.81981689 69.5083252 35.23143066 70.39213867 35.65551758 71.30273438 C36.54492188 73.46044922 36.54492188 73.46044922 36.54492188 75.46044922 C41.49492188 74.96544922 41.49492188 74.96544922 46.54492188 74.46044922 C45.50587717 71.15439787 44.66064395 69.56247134 42.02075195 67.23510742 C38.91403091 63.75341088 38.82942051 61.86575295 38.61914062 57.25341797 C38.5631646 56.22708 38.5631646 56.22708 38.50605774 55.18000793 C38.39278577 53.00307544 38.31233382 50.82633435 38.23242188 48.64794922 C38.16096789 47.19667173 38.08741923 45.74549578 38.01171875 44.29443359 C37.81604554 40.35049268 37.65418317 36.40792944 37.54492188 32.46044922 C37.51798248 31.7402359 37.49104309 31.02002258 37.46328735 30.27798462 C37.32948745 24.69024594 37.32948745 24.69024594 39.41992188 22.46044922 C41.54492188 21.46044922 41.54492188 21.46044922 43.54492188 21.46044922 C44.03992187 23.93544922 44.03992187 23.93544922 44.54492188 26.46044922 C50.97713805 28.0814296 57.41036689 29.69834624 63.84423828 31.31274414 C66.0221949 31.85971152 68.19993779 32.40753079 70.37744141 32.95629883 C83.49237245 36.26077683 96.62464667 39.43355134 109.82128906 42.39526367 C115.18380317 43.59919185 120.52685098 44.872193 125.85742188 46.21044922 C127.12682617 46.52175781 127.12682617 46.52175781 128.421875 46.83935547 C134.4228673 48.33839464 134.4228673 48.33839464 135.54492188 49.46044922 C136.25555044 53.99767656 136.65931596 58.57804671 137.10742188 63.14794922 C137.175289 63.8397226 137.24315613 64.53149597 137.31307983 65.24423218 C139.58749821 89.02199411 138.98783388 112.71397067 136.54492188 136.46044922 C136.42479736 137.62906494 136.42479736 137.62906494 136.30224609 138.82128906 C135.24094074 148.60287412 133.62821099 156.23985751 126.81835938 163.66748047 C122.34045095 167.19902681 117.01771343 168.2298807 111.54492188 169.46044922 C110.69285156 169.68474609 109.84078125 169.90904297 108.96289062 170.14013672 C88.6095031 174.81981322 64.34387695 171.40894736 46.54492188 160.46044922 C45.43117187 159.82107422 44.31742188 159.18169922 43.16992188 158.52294922 C42.30367187 157.84232422 41.43742187 157.16169922 40.54492188 156.46044922 C39.98804688 156.02861328 39.43117187 155.59677734 38.85742188 155.15185547 C36.00618119 152.5052177 34.65568421 150.45441289 34.21826172 146.52905273 C34.31721457 137.64064505 35.2069591 129.05559001 36.54492188 120.27294922 C36.92147992 117.71718871 37.29655514 115.16120914 37.66992188 112.60498047 C37.8375 111.49485596 38.00507812 110.38473145 38.17773438 109.2409668 C38.61038218 106.43219574 38.61038218 106.43219574 38.54492188 103.46044922 C38.07054687 102.98607422 37.59617188 102.51169922 37.10742188 102.02294922 C35.29388596 100.2094133 34.97398892 98.94903809 34.54492188 96.46044922 C33.61679687 96.41919922 32.68867187 96.37794922 31.73242188 96.33544922 C28.54492188 95.46044922 28.54492188 95.46044922 26.73242188 92.64794922 C26.34054688 91.59607422 25.94867188 90.54419922 25.54492188 89.46044922 C25.29742187 88.80044922 25.04992188 88.14044922 24.79492188 87.46044922 C24.54492188 85.46044922 24.54492188 85.46044922 25.22045898 82.78955078 C25.63167384 78.57034407 24.33274879 75.86546655 22.48632812 72.19482422 C22.15055756 71.49590561 21.81478699 70.796987 21.46884155 70.07688904 C20.74169703 68.56834863 20.00734099 67.06326739 19.26657104 65.56137085 C18.09602284 63.18733033 16.94516593 60.80463374 15.79907227 58.41870117 C13.79854682 54.26046115 11.78272838 50.10985626 9.7623291 45.96124268 C6.66857247 39.60605916 3.59150027 33.24325164 0.5463562 26.86462402 C-0.50015728 24.68424502 -1.5629423 22.51233325 -2.62670898 20.34033203 C-3.26952783 18.99924881 -3.91157817 17.65779687 -4.55273438 16.31591797 C-5.3959021 14.57797974 -5.3959021 14.57797974 -6.25610352 12.80493164 C-7.58508021 9.09781461 -7.84360976 6.369322 -7.45507812 2.46044922 C-4.83436563 -0.01050827 -3.56512477 -0.78350495 0 0 Z M45.54492188 90.46044922 C45.21492188 91.12044922 44.88492188 91.78044922 44.54492188 92.46044922 C45.20492187 93.12044922 45.86492188 93.78044922 46.54492188 94.46044922 C46.21492188 93.14044922 45.88492188 91.82044922 45.54492188 90.46044922 Z " fill="#EE9325" transform="translate(7.455078125,109.53955078125)"/>
<path d="M0 0 C2.9375 0.3125 2.9375 0.3125 4.9375 2.3125 C6.13399785 9.48183795 2.54707391 14.73347803 -0.8125 20.875 C-1.40087646 21.97763184 -1.98925293 23.08026367 -2.59545898 24.21630859 C-4.40170098 27.59070255 -6.22858765 30.95307647 -8.0625 34.3125 C-8.59053223 35.2833252 -9.11856445 36.25415039 -9.66259766 37.25439453 C-11.1476339 39.98343016 -12.63585085 42.71070686 -14.125 45.4375 C-14.60646484 46.32018555 -15.08792969 47.20287109 -15.58398438 48.11230469 C-16.06802734 48.99950195 -16.55207031 49.88669922 -17.05078125 50.80078125 C-17.53756348 51.69361816 -18.0243457 52.58645508 -18.52587891 53.50634766 C-19.59547202 55.45962114 -20.67112927 57.40958109 -21.75146484 59.35693359 C-23.45634013 62.43687916 -25.13617552 65.52944226 -26.8125 68.625 C-27.33851807 69.56166504 -27.86453613 70.49833008 -28.40649414 71.46337891 C-31.18051908 76.64224247 -32.64987802 80.45785933 -32.08227539 86.37158203 C-32.04627759 89.90469941 -33.72809309 91.85190893 -36.0625 94.3125 C-38.8125 94.6875 -38.8125 94.6875 -41.0625 94.3125 C-43.14035638 97.77559396 -43.0841989 100.03281859 -42.21875 103.8203125 C-33.84782378 142.8303854 -33.84782378 142.8303854 -39.609375 153.05859375 C-41.62950565 155.19225887 -43.58711949 156.74006078 -46.0625 158.3125 C-47.114375 159.034375 -48.16625 159.75625 -49.25 160.5 C-50.50405065 161.13827242 -51.77794452 161.73808557 -53.0625 162.3125 C-53.95195312 162.71082031 -54.84140625 163.10914063 -55.7578125 163.51953125 C-77.38102004 172.48855593 -102.41360444 174.84562736 -124.91796875 167.26953125 C-132.53722624 163.86931616 -136.08841611 157.8642061 -139.0625 150.3125 C-139.97701909 146.48024552 -140.43043319 142.66769087 -140.8125 138.75 C-140.92827393 137.69135742 -141.04404785 136.63271484 -141.16333008 135.54199219 C-141.4887585 132.46733515 -141.78286477 129.39162368 -142.0625 126.3125 C-142.13452637 125.55018066 -142.20655273 124.78786133 -142.28076172 124.00244141 C-144.55596689 98.72171338 -143.40023999 73.28510863 -139.0625 48.3125 C-137.82387207 48.00546143 -136.58524414 47.69842285 -135.30908203 47.38208008 C-130.62290604 46.21972742 -125.93756409 45.05404147 -121.25244141 43.88745117 C-119.24159254 43.38722168 -117.2305316 42.88784374 -115.21923828 42.3894043 C-104.47580893 39.72634255 -93.76283784 37.00037546 -83.10865784 33.99856567 C-77.31053635 32.36762715 -71.48903906 30.8768529 -65.625 29.5 C-64.72974609 29.28408203 -63.83449219 29.06816406 -62.91210938 28.84570312 C-56.44345238 27.3125 -56.44345238 27.3125 -53.0625 27.3125 C-53.0625 25.6625 -53.0625 24.0125 -53.0625 22.3125 C-51.0825 22.9725 -49.1025 23.6325 -47.0625 24.3125 C-46.98831664 30.07825914 -46.93388203 35.84374017 -46.89770508 41.60986328 C-46.88262305 43.57117553 -46.86215453 45.53245408 -46.83618164 47.49365234 C-46.79977269 50.31356118 -46.78276784 53.13302392 -46.76953125 55.953125 C-46.75404739 56.82930481 -46.73856354 57.70548462 -46.72261047 58.60821533 C-46.72135564 63.15226109 -46.72599723 65.90814522 -50.0625 69.3125 C-50.76764846 71.45983927 -50.76764846 71.45983927 -51.0625 73.3125 C-48.4225 73.3125 -45.7825 73.3125 -43.0625 73.3125 C-42.4751709 72.1675708 -42.4751709 72.1675708 -41.87597656 70.99951172 C-34.82400576 57.26813484 -27.74533948 43.56265022 -20.29223633 30.04321289 C-17.8814031 25.66559325 -15.50647604 21.27513733 -13.203125 16.83984375 C-12.51923706 15.52330811 -12.51923706 15.52330811 -11.8215332 14.18017578 C-10.96609205 12.52618592 -10.11535101 10.86975312 -9.27026367 9.21044922 C-8.8910376 8.47713379 -8.51181152 7.74381836 -8.12109375 6.98828125 C-7.79423584 6.34802002 -7.46737793 5.70775879 -7.13061523 5.0480957 C-5.0943078 1.73927066 -3.95364041 0.4034327 0 0 Z " fill="#EE9325" transform="translate(295.0625,109.6875)"/>
<path d="M0 0 C3.91565015 0.00315309 7.83053653 -0.02037839 11.74609375 -0.0456543 C34.05227984 -0.10136903 57.41617471 0.3183971 78.81640625 7.31567383 C79.60273438 7.55415039 80.3890625 7.79262695 81.19921875 8.03833008 C93.61398864 12.8825246 100.46940496 29.122293 105.81640625 40.31567383 C106.14640625 41.30567383 106.47640625 42.29567383 106.81640625 43.31567383 C107.44160156 43.62633789 108.06679687 43.93700195 108.7109375 44.25708008 C111.27519098 45.54634296 112.05759895 46.80312013 113.50390625 49.25317383 C113.92027344 49.94282227 114.33664062 50.6324707 114.765625 51.34301758 C117.44576591 56.37450888 117.03714595 61.32237444 117.06640625 66.87817383 C117.09734375 68.30613281 117.09734375 68.30613281 117.12890625 69.76293945 C117.18551454 80.15763755 114.80481627 89.40773617 107.81640625 97.31567383 C103.45483536 101.31044594 98.61969142 105.60451965 92.56640625 106.44067383 C86.69026022 104.67783002 84.84426127 100.39291673 81.81640625 95.31567383 C81.05328125 94.38754883 80.29015625 93.45942383 79.50390625 92.50317383 C76.81622608 87.42644462 76.54237745 81.96060874 75.81640625 76.31567383 C74.6908923 68.8577228 72.5579957 62.26956023 66.44140625 57.44067383 C63.75175753 56.21230075 63.75175753 56.21230075 60.50390625 55.44067383 C56.66831878 54.2704946 53.98473571 52.68375332 50.7109375 50.43676758 C44.65537053 46.85337022 35.62862081 47.34181159 28.81640625 48.31567383 C24.3070935 49.91282172 19.2680391 51.86404098 15.81640625 55.31567383 C13.33963864 55.45406739 10.89283723 55.52883948 8.4140625 55.55395508 C7.66233261 55.56202682 6.91060272 55.57009857 6.13609314 55.57841492 C4.53630899 55.59228148 2.93649492 55.60299207 1.33666992 55.61083984 C-1.08018949 55.62788534 -3.49561985 55.67172292 -5.91210938 55.71606445 C-13.67695715 55.79285639 -20.01643482 55.66110732 -27.15014648 52.22607422 C-33.18807848 49.52281471 -41.58714902 50.51646611 -47.74609375 52.56567383 C-48.431875 52.8415332 -49.11765625 53.11739258 -49.82421875 53.40161133 C-53.85907533 54.96478424 -58.08604348 55.94929849 -62.265625 57.05786133 C-66.53358062 58.89759588 -68.2886701 61.61958043 -70.4140625 65.64770508 C-72.58996716 71.2872947 -73.32803565 76.17473968 -73.37109375 82.19067383 C-73.51558297 91.96816631 -78.35489048 98.48697056 -85.18359375 105.31567383 C-90.47259476 105.95303759 -94.64056675 104.40610966 -98.87109375 101.31567383 C-106.40406205 94.90211515 -110.66388065 87.29337764 -111.87109375 77.50317383 C-113.462801 55.57965885 -113.462801 55.57965885 -107.53515625 47.76098633 C-107.08914062 47.2840332 -106.643125 46.80708008 -106.18359375 46.31567383 C-105.67570312 45.7562207 -105.1678125 45.19676758 -104.64453125 44.62036133 C-103.18359375 43.31567383 -103.18359375 43.31567383 -101.18359375 43.31567383 C-100.92449219 42.44168945 -100.66539063 41.56770508 -100.3984375 40.66723633 C-96.32307686 29.42395843 -85.40467773 15.82055175 -75.2421875 9.26489258 C-70.12440624 6.90508073 -64.6454897 5.62046008 -59.18359375 4.31567383 C-58.3328125 4.11071289 -57.48203125 3.90575195 -56.60546875 3.69458008 C-38.09835765 -0.15609304 -18.80273116 -0.03150905 0 0 Z M-54.05859375 9.19067383 C-54.84935303 9.33988281 -55.6401123 9.4890918 -56.45483398 9.64282227 C-72.38000042 12.97326443 -81.3280167 22.10490373 -91.18359375 34.31567383 C-90.52359375 34.64567383 -89.86359375 34.97567383 -89.18359375 35.31567383 C-87.47299345 34.73377732 -85.788343 34.07461972 -84.12109375 33.37817383 C-73.98793578 29.61105422 -65.17262936 31.22871787 -55.18359375 35.31567383 C-54.15245095 36.20991163 -53.14571164 37.13299418 -52.1640625 38.08129883 C-51.18050781 38.81864258 -50.19695312 39.55598633 -49.18359375 40.31567383 C-45.95681385 39.96584842 -45.95681385 39.96584842 -42.68359375 38.37817383 C-36.15594068 35.79930652 -29.72016596 34.26892417 -22.80859375 33.06567383 C-21.89400391 32.90333252 -20.97941406 32.74099121 -20.03710938 32.57373047 C2.98050559 28.62671933 29.57760572 28.55548538 51.60546875 37.44067383 C53.88502348 38.49966846 53.88502348 38.49966846 56.81640625 38.31567383 C56.81640625 37.65567383 56.81640625 36.99567383 56.81640625 36.31567383 C57.46867188 36.12231445 58.1209375 35.92895508 58.79296875 35.72973633 C59.66695312 35.4693457 60.5409375 35.20895508 61.44140625 34.94067383 C62.36308594 34.66868164 63.28476563 34.39668945 64.234375 34.11645508 C66.90306304 33.32811371 66.90306304 33.32811371 69.75390625 32.12817383 C77.97330147 29.94751795 84.89000494 31.25234357 92.6015625 34.53833008 C93.33246094 34.79485352 94.06335938 35.05137695 94.81640625 35.31567383 C95.80640625 34.82067383 95.80640625 34.82067383 96.81640625 34.31567383 C95.5693752 32.41788628 94.31864567 30.52252872 93.06640625 28.62817383 C92.3703125 27.57243164 91.67421875 26.51668945 90.95703125 25.42895508 C83.55732844 14.66697854 74.78630009 12.19523207 62.45214844 9.78149414 C25.06268055 3.1735741 -16.67909281 2.07342186 -54.05859375 9.19067383 Z " fill="#595858" transform="translate(144.18359375,-0.315673828125)"/>
<path d="M0 0 C1.91796875 1.16796875 1.91796875 1.16796875 3.44140625 2.75 C5.58437888 4.80793403 8.04416445 4.88555951 10.859375 5.53125 C15.18674865 6.86969764 17.86622349 9.38622924 20.10546875 13.1796875 C25.76632141 25.10493961 27.44819705 40.31861197 22.97265625 52.9140625 C20.51451092 58.16721012 17.78480046 62.92341427 12.91796875 66.16796875 C10.8515625 66.21484375 10.8515625 66.21484375 8.35546875 65.91796875 C7.38867188 65.81097656 6.421875 65.70398438 5.42578125 65.59375 C4.26820313 65.45324219 3.110625 65.31273438 1.91796875 65.16796875 C-0.35301132 64.90076422 -2.62435822 64.63735927 -4.89624023 64.37792969 C-6.44324951 64.20032838 -7.98968495 64.01763188 -9.53540039 63.82910156 C-14.41983198 63.25832684 -19.16398807 63.08442328 -24.08203125 63.16796875 C-23.99953125 64.07546875 -23.91703125 64.98296875 -23.83203125 65.91796875 C-24.08203125 69.16796875 -24.08203125 69.16796875 -25.70703125 71.48046875 C-28.52304006 73.48131711 -30.7003466 73.70009183 -34.08203125 74.16796875 C-34.02402344 75.07160156 -33.96601563 75.97523437 -33.90625 76.90625 C-33.83857422 78.67548828 -33.83857422 78.67548828 -33.76953125 80.48046875 C-33.71152344 81.65222656 -33.65351563 82.82398438 -33.59375 84.03125 C-34.08203125 87.16796875 -34.08203125 87.16796875 -36.4375 89.09375 C-39.57858987 90.36967277 -40.92258824 90.33197407 -44.08203125 89.16796875 C-45.89453125 87.60546875 -45.89453125 87.60546875 -47.08203125 86.16796875 C-47.80390625 87.01359375 -48.52578125 87.85921875 -49.26953125 88.73046875 C-52.08203125 91.16796875 -52.08203125 91.16796875 -54.70703125 91.29296875 C-57.79715789 89.82922455 -58.60371367 88.19851979 -60.08203125 85.16796875 C-60.41203125 84.50796875 -60.74203125 83.84796875 -61.08203125 83.16796875 C-61.21484375 81.29296875 -61.21484375 81.29296875 -61.20703125 79.16796875 C-61.21089844 78.11609375 -61.21089844 78.11609375 -61.21484375 77.04296875 C-61.08203125 75.16796875 -61.08203125 75.16796875 -60.08203125 73.16796875 C-61.17515625 73.22984375 -62.26828125 73.29171875 -63.39453125 73.35546875 C-67.08203125 73.16796875 -67.08203125 73.16796875 -68.78125 71.92578125 C-70.83017433 69.15696458 -70.61317251 66.80994847 -70.50390625 63.4609375 C-69.77903436 59.52112452 -68.02689685 57.8451193 -65.08203125 55.16796875 C-63.08203125 54.04296875 -63.08203125 54.04296875 -61.08203125 54.16796875 C-60.40140625 54.80734375 -59.72078125 55.44671875 -59.01953125 56.10546875 C-54.54677889 59.2459119 -50.38141131 58.76664348 -45.08203125 58.16796875 C-41.85624604 57.54742819 -40.02902343 56.80518663 -37.08203125 55.16796875 C-35.78792217 51.51401369 -35.85901969 49.83700344 -37.08203125 46.16796875 C-38.72755087 45.45069097 -40.39625414 44.78471647 -42.08203125 44.16796875 C-42.74203125 43.50796875 -43.40203125 42.84796875 -44.08203125 42.16796875 C-47.45258553 41.61030328 -50.85827061 41.65851743 -54.26953125 41.60546875 C-55.20345703 41.55583984 -56.13738281 41.50621094 -57.09960938 41.45507812 C-62.4667194 41.35663741 -62.4667194 41.35663741 -67.15405273 43.68261719 C-68.34346247 44.91227795 -69.49736271 46.17750143 -70.60913086 47.4777832 C-72.42723685 49.56409975 -74.20641328 50.53980947 -76.76953125 51.54296875 C-77.49527344 51.83945313 -78.22101563 52.1359375 -78.96875 52.44140625 C-87.74568232 55.45898372 -97.08579085 55.58685963 -105.58203125 51.66796875 C-110.31792494 49.04664847 -112.71536261 46.30573463 -115.5703125 41.8046875 C-117.58614596 39.62217013 -119.04087183 39.47992999 -121.95703125 39.16796875 C-123.33155224 39.13167777 -124.70789956 39.11911073 -126.08203125 39.16796875 C-124.34885384 34.33432953 -121.84951217 29.99836664 -119.33203125 25.54296875 C-116.39599837 20.34331704 -113.55989003 15.1381327 -110.89453125 9.79296875 C-108.31486998 5.04172821 -106.09990206 3.17511707 -101.08203125 1.16796875 C-97.17471414 0.20442967 -93.41406861 -0.05900918 -89.39453125 -0.14453125 C-88.25628906 -0.18191406 -87.11804688 -0.21929687 -85.9453125 -0.2578125 C-82.43224685 0.12937067 -80.79881944 0.68417446 -77.71875 2.1484375 C-71.00035567 5.00953912 -64.09766247 4.83996839 -56.92333984 4.79931641 C-54.58502931 4.79297688 -52.25175344 4.84009359 -49.9140625 4.890625 C-40.76487661 4.96531124 -34.5691673 3.74020116 -27.08203125 -1.83203125 C-18.59369037 -4.66147821 -8.04949019 -3.61603604 0 0 Z " fill="#FDFEFE" transform="translate(197.08203125,49.83203125)"/>
<path d="M0 0 C5.53227327 14.68258538 8.56045138 34.39109446 6 50 C3.92263902 53.68784032 1.5439973 55.74874193 -2 58 C-3.051875 58.721875 -4.10375 59.44375 -5.1875 60.1875 C-6.44155065 60.82577242 -7.71544452 61.42558557 -9 62 C-9.88945312 62.39832031 -10.77890625 62.79664063 -11.6953125 63.20703125 C-33.31852004 72.17605593 -58.35110444 74.53312736 -80.85546875 66.95703125 C-88.47635066 63.55609124 -92.02344553 57.55166507 -95 50 C-95.93585506 46.1268141 -96.40900014 42.27296679 -96.8125 38.3125 C-96.93302734 37.33861328 -97.05355469 36.36472656 -97.17773438 35.36132812 C-98.10560796 27.22255125 -98.11988565 19.17956642 -98 11 C-97.13648926 10.98018066 -96.27297852 10.96036133 -95.38330078 10.93994141 C-64.34105301 10.19604536 -34.62379186 8.39208733 -4.41162109 0.56616211 C-2 0 -2 0 0 0 Z " fill="#E5E3E2" transform="translate(251,210)"/>
<path d="M0 0 C0.98097656 0.18949219 1.96195313 0.37898437 2.97265625 0.57421875 C5.75200619 1.13603387 8.53048355 1.70164874 11.30859375 2.26953125 C37.72611884 7.6565944 63.76750832 8.57352098 90.625 9.3125 C90.9027082 19.00335891 90.59144167 28.31914679 89.3125 37.9375 C89.13593872 39.32219482 89.13593872 39.32219482 88.95581055 40.73486328 C87.67980762 49.69382432 84.96763068 57.5216624 77.625 63.3125 C73.39966466 65.20219483 69.1318178 66.29913268 64.625 67.3125 C63.77292969 67.53679687 62.92085938 67.76109375 62.04296875 67.9921875 C41.68958122 72.671864 17.42395507 69.26099814 -0.375 58.3125 C-2.045625 57.3534375 -2.045625 57.3534375 -3.75 56.375 C-4.61625 55.694375 -5.4825 55.01375 -6.375 54.3125 C-6.931875 53.88066406 -7.48875 53.44882812 -8.0625 53.00390625 C-10.91546217 50.35567054 -12.26565781 48.30784527 -12.69726562 44.37890625 C-12.58984087 35.5291528 -11.77520218 26.94207948 -10.5 18.1875 C-10.32597656 16.90101563 -10.15195312 15.61453125 -9.97265625 14.2890625 C-8.4655775 3.61671225 -8.4655775 3.61671225 -6.375 0.3125 C-3.80555756 -0.97222122 -2.80586879 -0.55320757 0 0 Z " fill="#E5E3E2" transform="translate(54.375,211.6875)"/>
<path d="M0 0 C3.91565015 0.00315309 7.83053653 -0.02037839 11.74609375 -0.0456543 C34.05227984 -0.10136903 57.41617471 0.3183971 78.81640625 7.31567383 C79.60273438 7.55415039 80.3890625 7.79262695 81.19921875 8.03833008 C93.61398864 12.8825246 100.46940496 29.122293 105.81640625 40.31567383 C106.14640625 41.30567383 106.47640625 42.29567383 106.81640625 43.31567383 C107.44160156 43.62633789 108.06679687 43.93700195 108.7109375 44.25708008 C111.27519098 45.54634296 112.05759895 46.80312013 113.50390625 49.25317383 C113.92027344 49.94282227 114.33664062 50.6324707 114.765625 51.34301758 C117.44576591 56.37450888 117.03714595 61.32237444 117.06640625 66.87817383 C117.09734375 68.30613281 117.09734375 68.30613281 117.12890625 69.76293945 C117.18551454 80.15763755 114.80481627 89.40773617 107.81640625 97.31567383 C103.45483536 101.31044594 98.61969142 105.60451965 92.56640625 106.44067383 C86.69026022 104.67783002 84.84426127 100.39291673 81.81640625 95.31567383 C81.05328125 94.38754883 80.29015625 93.45942383 79.50390625 92.50317383 C76.81622608 87.42644462 76.54237745 81.96060874 75.81640625 76.31567383 C74.85171057 69.92334692 73.30809397 64.17885452 68.81640625 59.31567383 C66.86007004 58.27833536 66.86007004 58.27833536 64.75390625 57.50317383 C61.8837686 56.29554987 60.98231607 55.61573359 59.44921875 52.84301758 C58.40902578 50.02234832 57.56417731 47.22648885 56.81640625 44.31567383 C56.48640625 43.18129883 56.15640625 42.04692383 55.81640625 40.87817383 C55.81640625 38.31567383 55.81640625 38.31567383 57.4375 36.29614258 C63.66047375 31.1154403 73.09674017 29.6286945 81.02734375 29.90942383 C86.18105681 30.66010472 90.98211452 32.42582854 95.81640625 34.31567383 C94.59475425 32.41498945 93.36371831 30.520335 92.12890625 28.62817383 C91.44441406 27.57243164 90.75992188 26.51668945 90.0546875 25.42895508 C82.56406593 15.01006259 72.03530798 12.34765992 59.81640625 10.31567383 C22.79618764 4.7987518 -17.13920801 3.16103019 -54.05859375 10.19067383 C-54.84935303 10.33988281 -55.6401123 10.4890918 -56.45483398 10.64282227 C-71.81009888 13.85408049 -80.74811644 22.38303502 -90.18359375 34.31567383 C-91.10591797 35.38881836 -91.10591797 35.38881836 -92.046875 36.48364258 C-95.77441108 40.96963513 -97.02482435 44.97941514 -98.3359375 50.62426758 C-99.95445133 55.76323544 -103.43038967 59.56246974 -107.18359375 63.31567383 C-108.50359375 63.31567383 -109.82359375 63.31567383 -111.18359375 63.31567383 C-111.92180017 56.22889217 -110.64980954 51.87642701 -106.18359375 46.31567383 C-104.640625 44.58911133 -104.640625 44.58911133 -103.18359375 43.31567383 C-102.52359375 43.31567383 -101.86359375 43.31567383 -101.18359375 43.31567383 C-100.92449219 42.44168945 -100.66539063 41.56770508 -100.3984375 40.66723633 C-96.32307686 29.42395843 -85.40467773 15.82055175 -75.2421875 9.26489258 C-70.12440624 6.90508073 -64.6454897 5.62046008 -59.18359375 4.31567383 C-58.3328125 4.11071289 -57.48203125 3.90575195 -56.60546875 3.69458008 C-38.09835765 -0.15609304 -18.80273116 -0.03150905 0 0 Z " fill="#595858" transform="translate(144.18359375,-0.315673828125)"/>
<path d="M0 0 C4.95921764 4.49678255 7.84887478 10.73571674 8.94921875 17.3046875 C9.25185017 25.98012142 7.15894993 33.59720616 1.2421875 40.078125 C-6.43098595 47.08981798 -15.75597754 48.69982189 -25.8203125 48.60546875 C-32.51799552 47.88686318 -38.96997976 45.36849678 -43.33203125 40.05859375 C-44.25206772 38.65963419 -45.1617513 37.25378455 -46.05859375 35.83984375 C-48.07442721 33.65732638 -49.52915308 33.51508624 -52.4453125 33.203125 C-53.81983349 33.16683402 -55.19618081 33.15426698 -56.5703125 33.203125 C-54.83713509 28.36948578 -52.33779342 24.03352289 -49.8203125 19.578125 C-46.88427962 14.37847329 -44.04817128 9.17328895 -41.3828125 3.828125 C-38.80315123 -0.92311554 -36.58818331 -2.78972668 -31.5703125 -4.796875 C-20.47105459 -7.5339369 -9.43599383 -6.59659143 0 0 Z " fill="#FEFEFE" transform="translate(127.5703125,55.796875)"/>
<path d="M0 0 C5.29952495 1.23244766 8.09946538 3.50417133 11 8 C16.70393829 19.19661961 18.09473103 33.24443574 14.875 45.4375 C12.70989102 51.53073527 9.42641728 57.38238848 4 61 C1.93359375 61.046875 1.93359375 61.046875 -0.5625 60.75 C-1.52929688 60.64300781 -2.49609375 60.53601563 -3.4921875 60.42578125 C-4.64976562 60.28527344 -5.80734375 60.14476562 -7 60 C-9.27098007 59.73279547 -11.54232697 59.46939052 -13.81420898 59.20996094 C-15.36121826 59.03235963 -16.9076537 58.84966313 -18.45336914 58.66113281 C-23.33780073 58.09035809 -28.08195682 57.91645453 -33 58 C-32.9175 58.9075 -32.835 59.815 -32.75 60.75 C-33 64 -33 64 -34.625 66.3125 C-37.44100881 68.31334836 -39.61831535 68.53212308 -43 69 C-42.91298828 70.35544922 -42.91298828 70.35544922 -42.82421875 71.73828125 C-42.77910156 72.91777344 -42.73398438 74.09726563 -42.6875 75.3125 C-42.60048828 77.07013672 -42.60048828 77.07013672 -42.51171875 78.86328125 C-43 82 -43 82 -45.35546875 83.92578125 C-48.49655862 85.20170402 -49.84055699 85.16400532 -53 84 C-54.8125 82.4375 -54.8125 82.4375 -56 81 C-57.0828125 82.2684375 -57.0828125 82.2684375 -58.1875 83.5625 C-61 86 -61 86 -63.625 86.125 C-66.71512664 84.6612558 -67.52168242 83.03055104 -69 80 C-69.33 79.34 -69.66 78.68 -70 78 C-70.1328125 76.125 -70.1328125 76.125 -70.125 74 C-70.12757813 73.29875 -70.13015625 72.5975 -70.1328125 71.875 C-70 70 -70 70 -69 68 C-70.093125 68.061875 -71.18625 68.12375 -72.3125 68.1875 C-76 68 -76 68 -77.69921875 66.7578125 C-79.74814308 63.98899583 -79.53114126 61.64197972 -79.421875 58.29296875 C-78.69700311 54.35315577 -76.9448656 52.67715055 -74 50 C-72 48.875 -72 48.875 -70 49 C-69.319375 49.639375 -68.63875 50.27875 -67.9375 50.9375 C-63.46474764 54.07794315 -59.29938006 53.59867473 -54 53 C-50.77421479 52.37945944 -48.94699218 51.63721788 -46 50 C-44.70589092 46.34604494 -44.77698844 44.66903469 -46 41 C-48.00016466 39.79117904 -48.00016466 39.79117904 -50 39 C-48.515 38.505 -48.515 38.505 -47 38 C-45.16796875 38.92578125 -45.16796875 38.92578125 -43.1875 40.3125 C-35.92128865 45.37419214 -28.62326062 45.78664849 -20 45 C-11.4281549 43.14091152 -4.99856902 39.14263551 0.37890625 32.2265625 C3.9288827 26.36353519 3.756673 19.6516836 3 13 C2.36574414 11.65094784 1.70095174 10.3156325 1 9 C0.5859375 6.640625 0.5859375 6.640625 0.375 4.25 C0.26285156 3.05117188 0.26285156 3.05117188 0.1484375 1.828125 C0.09945312 1.22484375 0.05046875 0.6215625 0 0 Z " fill="#AEDCE8" transform="translate(206,55)"/>
<path d="M0 0 C1.33417969 0.34224609 1.33417969 0.34224609 2.6953125 0.69140625 C5.0772147 1.53078507 6.30063807 2.12199895 8 4 C10.28141777 9.11510959 12 14.36747149 12 20 C8.02372114 19.21894522 5.32153674 17.3879075 2 15.15625 C-4.16566416 11.59172541 -13.09216406 12.0124679 -20 13 C-24.50931275 14.59714789 -29.54836715 16.54836715 -33 20 C-35.47676761 20.13839357 -37.92356902 20.21316565 -40.40234375 20.23828125 C-41.15407364 20.246353 -41.90580353 20.25442474 -42.68031311 20.26274109 C-44.28009726 20.27660766 -45.87991133 20.28731824 -47.47973633 20.29516602 C-49.89659574 20.31221151 -52.3120261 20.3560491 -54.72851562 20.40039062 C-62.4933634 20.47718256 -68.83284107 20.34543349 -75.96655273 16.91040039 C-82.26694886 14.08963233 -90.80065302 15.33628976 -97.1875 17.4375 C-98.46453316 17.94294142 -99.73647579 18.46167732 -101 19 C-101.99 19.33 -102.98 19.66 -104 20 C-103.54464901 18.43662827 -103.08557224 16.87434151 -102.625 15.3125 C-102.36976562 14.44238281 -102.11453125 13.57226562 -101.8515625 12.67578125 C-101.43003906 11.35126953 -101.43003906 11.35126953 -101 10 C-100.73832031 9.11828125 -100.47664063 8.2365625 -100.20703125 7.328125 C-98.15711386 3.37423903 -94.80875868 2.7217039 -90.80078125 1.1953125 C-61.31856916 -8.07658565 -29.67611458 -8.45609717 0 0 Z " fill="#38ABC7" transform="translate(193,35)"/>
<path d="M0 0 C3.91565015 0.00315309 7.83053653 -0.02037839 11.74609375 -0.0456543 C34.05227984 -0.10136903 57.41617471 0.3183971 78.81640625 7.31567383 C79.60273438 7.55415039 80.3890625 7.79262695 81.19921875 8.03833008 C93.61398864 12.8825246 100.46940496 29.122293 105.81640625 40.31567383 C106.14640625 41.30567383 106.47640625 42.29567383 106.81640625 43.31567383 C107.44160156 43.62633789 108.06679687 43.93700195 108.7109375 44.25708008 C111.27519098 45.54634296 112.05759895 46.80312013 113.50390625 49.25317383 C113.92027344 49.94282227 114.33664062 50.6324707 114.765625 51.34301758 C116.93162922 55.40930803 116.90195071 58.78181738 116.81640625 63.31567383 C114.69140625 63.75317383 114.69140625 63.75317383 111.81640625 63.31567383 C106.39255956 59.27900021 104.81318643 53.69795156 102.921875 47.48364258 C100.99353835 41.95756121 97.98745444 37.20814818 94.81640625 32.31567383 C94.23898682 31.41220215 94.23898682 31.41220215 93.64990234 30.49047852 C87.19597598 20.03842376 87.19597598 20.03842376 76.81640625 14.31567383 C75.13417969 13.82260742 75.13417969 13.82260742 73.41796875 13.31958008 C34.23826217 2.61326956 -14.26715121 2.61417559 -54.05859375 10.19067383 C-54.84935303 10.33988281 -55.6401123 10.4890918 -56.45483398 10.64282227 C-71.81009888 13.85408049 -80.74811644 22.38303502 -90.18359375 34.31567383 C-91.10591797 35.38881836 -91.10591797 35.38881836 -92.046875 36.48364258 C-95.77441108 40.96963513 -97.02482435 44.97941514 -98.3359375 50.62426758 C-99.95445133 55.76323544 -103.43038967 59.56246974 -107.18359375 63.31567383 C-108.50359375 63.31567383 -109.82359375 63.31567383 -111.18359375 63.31567383 C-111.92180017 56.22889217 -110.64980954 51.87642701 -106.18359375 46.31567383 C-104.640625 44.58911133 -104.640625 44.58911133 -103.18359375 43.31567383 C-102.52359375 43.31567383 -101.86359375 43.31567383 -101.18359375 43.31567383 C-100.92449219 42.44168945 -100.66539063 41.56770508 -100.3984375 40.66723633 C-96.32307686 29.42395843 -85.40467773 15.82055175 -75.2421875 9.26489258 C-70.12440624 6.90508073 -64.6454897 5.62046008 -59.18359375 4.31567383 C-58.3328125 4.11071289 -57.48203125 3.90575195 -56.60546875 3.69458008 C-38.09835765 -0.15609304 -18.80273116 -0.03150905 0 0 Z " fill="#353535" transform="translate(144.18359375,-0.315673828125)"/>
<path d="M0 0 C-5.36463892 11.78191385 -11.07890063 23.05386411 -18 34 C-17.41992188 33.9071875 -16.83984375 33.814375 -16.2421875 33.71875 C-13.64655706 33.47888976 -11.5547864 33.44921686 -9 34 C-7.48828125 35.5703125 -7.48828125 35.5703125 -6.1875 37.625 C-2.44565626 43.38641419 2.53997308 45.9346005 9 48 C18.73502853 49.4108737 28.38437117 48.14831936 36.421875 42.2109375 C38.36331845 40.53799155 40.20539356 38.82819533 42 37 C44.35767657 34.64232343 50.08748144 35.71899919 53.25 35.6875 C54.68279297 35.64399414 54.68279297 35.64399414 56.14453125 35.59960938 C63.26139508 35.53527055 63.26139508 35.53527055 67.0234375 37.90234375 C67.67570312 38.59457031 68.32796875 39.28679687 69 40 C69.78375 40.61875 70.5675 41.2375 71.375 41.875 C73 44 73 44 73.0625 47.0625 C72 50 72 50 69.6875 51.8125 C63.95199806 54.34679155 58.21349545 54.69038838 52 54 C49.53415818 52.92442328 48.05816002 51.78003029 46 50 C42.73539027 51.80412643 41.11070205 52.83394693 39 56 C38.60612212 58.32387947 38.26513915 60.65793749 38 63 C37.67 63 37.34 63 37 63 C37 61.35 37 59.7 37 58 C36.01 58.33 35.02 58.66 34 59 C32.62091278 59.1463301 31.23664801 59.24689225 29.8515625 59.31640625 C29.02076172 59.35878418 28.18996094 59.40116211 27.33398438 59.44482422 C23.55150773 59.60913151 19.76911778 59.76429456 15.98535156 59.89599609 C14.00268211 59.96506848 12.02023493 60.04086392 10.03808594 60.12353516 C7.19209631 60.23533849 4.34740934 60.31034333 1.5 60.375 C0.18443115 60.43216187 0.18443115 60.43216187 -1.15771484 60.49047852 C-5.48225455 60.54752492 -7.37775103 60.47001426 -10.921875 57.79296875 C-12.83363016 55.22359857 -14.37559338 52.82464638 -15.75 49.9375 C-16.36101562 48.68259766 -16.36101562 48.68259766 -16.984375 47.40234375 C-21.12317026 37.61250111 -20.7209885 22.40935569 -17.3125 12.5 C-15.02350882 7.4787271 -12.45008355 3.34754595 -7.5 0.625 C-4.8970724 -0.0257319 -2.67071627 -0.04451194 0 0 Z " fill="#ABDBE7" transform="translate(89,55)"/>
<path d="M0 0 C0.825 0.639375 1.65 1.27875 2.5 1.9375 C6.91330787 5.0992728 11.80266097 4.63310362 17 4 C19.84958619 3.22453884 22.28601275 2.21160145 25 1 C25.99 0.67 26.98 0.34 28 0 C29.97265625 1.109375 29.97265625 1.109375 32.0625 2.75 C32.75472656 3.28109375 33.44695312 3.8121875 34.16015625 4.359375 C36.80137668 6.71460341 37.92455395 8.40900597 38.375 11.9375 C38 15 38 15 36.375 17.3125 C33.55899119 19.31334836 31.38168465 19.53212308 28 20 C28.05800781 20.90363281 28.11601562 21.80726562 28.17578125 22.73828125 C28.22089844 23.91777344 28.26601562 25.09726563 28.3125 26.3125 C28.37050781 27.48425781 28.42851562 28.65601563 28.48828125 29.86328125 C28 33 28 33 25.64453125 34.92578125 C22.50344138 36.20170402 21.15944301 36.16400532 18 35 C16.1875 33.4375 16.1875 33.4375 15 32 C13.9171875 33.2684375 13.9171875 33.2684375 12.8125 34.5625 C10 37 10 37 7.375 37.125 C4.28487336 35.6612558 3.47831758 34.03055104 2 31 C1.67 30.34 1.34 29.68 1 29 C0.8671875 27.125 0.8671875 27.125 0.875 25 C0.87242187 24.29875 0.86984375 23.5975 0.8671875 22.875 C1 21 1 21 2 19 C0.906875 19.061875 -0.18625 19.12375 -1.3125 19.1875 C-5 19 -5 19 -6.69921875 17.7578125 C-8.7478839 14.98934608 -8.52956966 12.64151057 -8.42578125 9.29296875 C-7.70169294 5.39352072 -5.87808744 3.67729064 -3 1 C-2.01 0.67 -1.02 0.34 0 0 Z " fill="#F3D0A2" transform="translate(135,104)"/>
<path d="M0 0 C-3.22154417 7.49432906 -10.13277691 12.53176161 -17.50683594 15.56835938 C-20.96425047 16.85917264 -24.45623884 17.97175431 -28 19 C-28.7228418 19.21027832 -29.44568359 19.42055664 -30.19042969 19.63720703 C-48.21542994 24.67161113 -71.57359848 25.941145 -89 18 C-92.79710147 15.46395425 -95.53630235 13.39109296 -97 9 C-95.4679895 9.01571045 -95.4679895 9.01571045 -93.9050293 9.03173828 C-85.72564387 9.10803287 -77.5468986 9.14236942 -69.3671875 9.109375 C-68.18324654 9.10757736 -68.18324654 9.10757736 -66.97538757 9.10574341 C-58.2136625 9.0569993 -49.64289784 8.4336212 -41 7 C-40.36823853 6.89584778 -39.73647705 6.79169556 -39.08557129 6.68438721 C-30.70136451 5.29776284 -22.32726955 3.85236892 -13.96484375 2.33984375 C-12.6718335 2.10644287 -11.37882324 1.87304199 -10.04663086 1.63256836 C-1.93807296 -0.05100192 -1.93807296 -0.05100192 0 0 Z " fill="#EC942A" transform="translate(257,258)"/>
<path d="M0 0 C7.41593075 0.69843157 14.63292208 1.99508766 21.9375 3.4375 C23.05318359 3.65470703 24.16886719 3.87191406 25.31835938 4.09570312 C26.96868164 4.41764648 26.96868164 4.41764648 28.65234375 4.74609375 C29.73628418 4.95733887 30.82022461 5.16858398 31.93701172 5.38623047 C33.81235354 5.76201632 35.68479163 6.15320984 37.55126953 6.57080078 C50.96128982 9.52675827 64.72078074 9.13286889 78.375 9.0625 C80.09374868 9.05746967 81.8124988 9.05290951 83.53125 9.04882812 C87.68753651 9.0379561 91.8437517 9.02077804 96 9 C93.70942296 13.97171329 90.67798795 17.00215099 85.546875 18.9140625 C82.71377575 19.71542486 79.87750791 20.37783613 77 21 C76.19046875 21.20625 75.3809375 21.4125 74.546875 21.625 C54.07460611 26.26023069 29.92481423 23.02591666 12 12 C10.88625 11.360625 9.7725 10.72125 8.625 10.0625 C5.27068245 7.42696478 2.53708344 4.42776167 0 1 C0 0.67 0 0.34 0 0 Z " fill="#EC9429" transform="translate(42,258)"/>
<path d="M0 0 C0.495 3.96 0.495 3.96 1 8 C-9.95740579 11.01761514 -20.8842649 13.47351671 -32.125 15.1875 C-33.13481934 15.34186523 -34.14463867 15.49623047 -35.18505859 15.65527344 C-38.45328596 16.13410796 -41.72454386 16.5733783 -45 17 C-45.66082581 17.08926758 -46.32165161 17.17853516 -47.00250244 17.27050781 C-58.92065563 18.85780988 -70.61200575 19.25142746 -82.625 19.125 C-84.32551543 19.11492817 -86.02603679 19.1058099 -87.7265625 19.09765625 C-91.81785983 19.07602587 -95.90886048 19.04173977 -100 19 C-100.33 15.7 -100.66 12.4 -101 9 C-100.05608398 9.01571045 -99.11216797 9.0314209 -98.13964844 9.04760742 C-69.49052324 9.48005136 -42.11658836 7.19857399 -13.92724609 1.98193359 C-13.22123764 1.85146133 -12.51522919 1.72098907 -11.78782654 1.58656311 C-9.86368333 1.22888964 -7.9404755 0.86619465 -6.01733398 0.50317383 C-3 0 -3 0 0 0 Z " fill="#EE952A" transform="translate(255,230)"/>
<path d="M0 0 C5.7125448 0.6216796 11.29016119 1.60366103 16.92700195 2.71411133 C44.8275711 8.16062757 71.67891055 9.44064569 100 9 C100.125 15.625 100.125 15.625 99 19 C65.31101368 19.56384451 32.41254154 18.08867187 0 8 C0 5.36 0 2.72 0 0 Z " fill="#EE952A" transform="translate(44,230)"/>
<path d="M0 0 C2.875 0.4375 2.875 0.4375 4.875 2.4375 C6.07148428 9.60675659 2.48474817 14.85856547 -0.875 21 C-1.45975098 22.09538086 -2.04450195 23.19076172 -2.64697266 24.31933594 C-4.45752831 27.70066437 -6.28875612 31.07006407 -8.125 34.4375 C-9.22157596 36.46211947 -10.31794001 38.48685374 -11.4140625 40.51171875 C-13.87062659 45.03727104 -16.34506929 49.55275878 -18.82519531 54.06542969 C-21.62355461 59.17227772 -24.37459687 64.30470543 -27.125 69.4375 C-28.81770833 68.39583333 -30.51041667 67.35416667 -32.203125 66.3125 C-34.37979385 65.16125977 -34.37979385 65.16125977 -38.125 65.4375 C-36.56516128 61.31381643 -34.65338688 57.41593629 -32.6328125 53.50390625 C-32.29053116 52.83739548 -31.94824982 52.1708847 -31.59559631 51.48417664 C-30.48331264 49.32126791 -29.36710816 47.16042054 -28.25 45 C-27.87050201 44.26495239 -27.49100403 43.52990479 -27.1000061 42.77258301 C-22.24357134 33.37190829 -17.35085326 23.99223982 -12.3125 14.6875 C-11.84021973 13.80908447 -11.36793945 12.93066895 -10.88134766 12.02563477 C-4.66226165 0.65271663 -4.66226165 0.65271663 0 0 Z " fill="#D1E161" transform="translate(295.125,109.5625)"/>
<path d="M0 0 C3.52572058 2.0232982 4.35454668 4.22896535 6.07617188 7.89013672 C6.38936874 8.54453232 6.70256561 9.19892792 7.0252533 9.87315369 C8.04784754 12.02006736 9.0465125 14.17719605 10.04492188 16.33544922 C10.74680192 17.82264817 11.45002185 19.30921546 12.15454102 20.79516602 C13.95274095 24.5984439 15.73070824 28.41082046 17.50372314 32.22589111 C18.82841753 35.06887054 20.16626326 37.90553393 21.50534058 40.74176025 C23.00334544 43.91618131 24.49382315 47.09410848 25.98242188 50.27294922 C26.80613281 52.03131104 26.80613281 52.03131104 27.64648438 53.82519531 C28.14792969 54.90752441 28.649375 55.98985352 29.16601562 57.10498047 C29.60357178 58.04704346 30.04112793 58.98910645 30.49194336 59.9597168 C31.54492188 62.46044922 31.54492188 62.46044922 32.54492188 66.46044922 C28.08992188 67.45044922 28.08992188 67.45044922 23.54492188 68.46044922 C23.54492188 69.12044922 23.54492188 69.78044922 23.54492188 70.46044922 C22.88492187 70.46044922 22.22492187 70.46044922 21.54492188 70.46044922 C12.37449445 51.64911989 3.35801308 32.77944118 -5.38623047 13.76586914 C-6.05594994 12.32133716 -6.74301116 10.88458315 -7.45507812 9.46044922 C-7.83007812 6.02294922 -7.83007812 6.02294922 -7.45507812 2.46044922 C-4.83436563 -0.01050827 -3.56512477 -0.78350495 0 0 Z " fill="#D1E161" transform="translate(7.455078125,109.53955078125)"/>
<path d="M0 0 C0.268125 0.87398437 0.53625 1.74796875 0.8125 2.6484375 C8.06112223 25.39575858 18.91874172 46.7195079 33 66 C33.99 67.485 33.99 67.485 35 69 C32.47760571 71.52239429 30.72806498 72.05795336 27.1875 72.8125 C24.10730903 72.7149893 23.22434769 72.23522516 21.06640625 69.97265625 C19.25180699 67.37758419 17.62141737 64.71886525 16 62 C15.236875 61.071875 14.47375 60.14375 13.6875 59.1875 C10.99981983 54.11077079 10.7259712 48.64493492 10 43 C9.03530432 36.60767309 7.49168772 30.86318069 3 26 C1.04366379 24.96266154 1.04366379 24.96266154 -1.0625 24.1875 C-3.93263765 22.97987605 -4.83409018 22.30005977 -6.3671875 19.52734375 C-7.40738047 16.70667449 -8.25222894 13.91081502 -9 11 C-9.33 9.865625 -9.66 8.73125 -10 7.5625 C-10 5 -10 5 -8.1875 2.6875 C-4.95499153 0.19385061 -4.28959658 0 0 0 Z " fill="#940303" transform="translate(210,33)"/>
<path d="M0 0 C6.75 2.75 6.75 2.75 9 5 C8.78108718 8.42129465 7.85768807 11.68823334 7 15 C6.84917969 15.69609375 6.69835937 16.3921875 6.54296875 17.109375 C6 18.9375 6 18.9375 4 22 C1.49082786 23.01141587 -1.00388703 23.64137996 -3.62890625 24.2890625 C-7.19398843 25.35799983 -8.23658466 26.74446398 -10 30 C-13.09884752 36.32075397 -14.13741737 41.87762143 -14.1875 48.875 C-14.33198922 58.65249248 -19.17129673 65.17129673 -26 72 C-28.09375 72.1171875 -28.09375 72.1171875 -30.5 71.875 C-31.2940625 71.81054688 -32.088125 71.74609375 -32.90625 71.6796875 C-35 71 -35 71 -36.28125 68.9453125 C-36.5184375 68.30335937 -36.755625 67.66140625 -37 67 C-36.5153125 66.42894531 -36.030625 65.85789062 -35.53125 65.26953125 C-29.9837517 58.55919196 -25.36168916 51.52303835 -21 44 C-20.60522461 43.32404785 -20.21044922 42.6480957 -19.80371094 41.95166016 C-11.9774793 28.4745099 -5.37549281 14.63054617 0 0 Z " fill="#940404" transform="translate(85,33)"/>
<path d="M0 0 C3.67629885 2.02571569 7.18189237 4.07232027 10.5625 6.5625 C13.55264867 8.75437369 16.62917078 10.43790841 20 12 C20 12.66 20 13.32 20 14 C18.9275 14.474375 17.855 14.94875 16.75 15.4375 C11.63432369 17.94536263 7.41559859 21.47526076 3.02734375 25.07421875 C-0.46059746 27.29299941 -2.88668078 27.86918773 -7 28 C-7.99 27.34 -8.98 26.68 -10 26 C-10 25.34 -10 24.68 -10 24 C-11.32 23.34 -12.64 22.68 -14 22 C-14.5977436 17.90118673 -14.86077238 14.44486792 -12.6875 10.796875 C-8.96034195 6.43743121 -4.7869114 3.12614622 0 0 Z " fill="#F5D1A2" transform="translate(73,316)"/>
<path d="M0 0 C5.29952495 1.23244766 8.09946538 3.50417133 11 8 C16.2474871 18.30062283 16.56268856 28.68079984 16 40 C15.67 40.66 15.34 41.32 15 42 C7.08 42 -0.84 42 -9 42 C-6.525 39.525 -6.525 39.525 -4 37 C1.16704039 31.44576537 3.28550382 27.09744959 3.25 19.4375 C3.25515625 18.32246094 3.2603125 17.20742187 3.265625 16.05859375 C3.00444121 13.05113927 2.40234479 11.5959436 1 9 C0.5859375 6.640625 0.5859375 6.640625 0.375 4.25 C0.30023438 3.45078125 0.22546875 2.6515625 0.1484375 1.828125 C0.09945312 1.22484375 0.05046875 0.6215625 0 0 Z " fill="#D5EDF3" transform="translate(206,55)"/>
<path d="M0 0 C5.9977781 2.44353923 11.13171268 8.26342535 14 14 C14.375 17.3125 14.375 17.3125 14 21 C11.0915176 24.52079449 8.878408 26.642208 4.375 27.5 C-0.77564999 26.73694074 -3.34361679 23.52045818 -7 20 C-8.49335056 18.67993926 -9.99309399 17.36706527 -11.5 16.0625 C-13.25 14.53125 -13.25 14.53125 -15 13 C-13.75507761 9.26523283 -12.41571777 8.6552962 -9.1875 6.5 C-6.06695932 4.39812917 -2.9894191 2.28561647 0 0 Z " fill="#F5D2A2" transform="translate(221,314)"/>
<path d="M0 0 C0.13496251 2.10241603 0.23197307 4.2072961 0.3125 6.3125 C0.37050781 7.48425781 0.42851562 8.65601563 0.48828125 9.86328125 C0 13 0 13 -2.35546875 14.92578125 C-5.49655862 16.20170402 -6.84055699 16.16400532 -10 15 C-11.8125 13.4375 -11.8125 13.4375 -13 12 C-13.721875 12.845625 -14.44375 13.69125 -15.1875 14.5625 C-18 17 -18 17 -20.625 17.125 C-23.71512664 15.6612558 -24.52168242 14.03055104 -26 11 C-26.33 10.34 -26.66 9.68 -27 9 C-27.35555556 1.53333333 -27.35555556 1.53333333 -25 -2 C-15.60459201 -5.13180266 -8.59940501 -5.00329019 0 0 Z " fill="#F7FBFC" transform="translate(163,124)"/>
<path d="M0 0 C1.32 3.3 2.64 6.6 4 10 C3.34 10.53625 2.68 11.0725 2 11.625 C-0.31024799 13.89958592 -0.31024799 13.89958592 -0.25 17.25 C-0.12625 18.61125 -0.12625 18.61125 0 20 C0.90492187 19.98646484 0.90492187 19.98646484 1.828125 19.97265625 C8.18722571 20.20855837 8.18722571 20.20855837 10.48828125 22.44921875 C12.0904894 25.13510224 12.91770591 27.64613543 13.625 30.6875 C13 33 13 33 10.25 35.375 C7 37 7 37 4.75 37.125 C2.03208079 35.37776622 1.77181645 33.02294777 1 30 C-0.3921875 29.938125 -0.3921875 29.938125 -1.8125 29.875 C-5 29 -5 29 -6.8125 26.1875 C-7.204375 25.135625 -7.59625 24.08375 -8 23 C-8.2475 22.34 -8.495 21.68 -8.75 21 C-9 19 -9 19 -8.375 16.3125 C-7.85470438 11.71655537 -9.33179046 8.2412107 -11 4 C-7.65667474 -0.27945633 -5.29105716 -0.4070044 0 0 Z " fill="#060504" transform="translate(41,176)"/>
<path d="M0 0 C2.3125 1.5625 2.3125 1.5625 4 3 C3.55673216 6.01422128 2.95637001 8.07678877 1.4375 10.75 C0.01566446 13.96458469 -0.10669405 15.13867821 0.0625 18.5 C0.18283508 22.05590171 -0.07535615 23.15908521 -1.6875 26.5625 C-4 29 -4 29 -6.75 29.375 C-7.4925 29.25125 -8.235 29.1275 -9 29 C-9.309375 29.804375 -9.61875 30.60875 -9.9375 31.4375 C-11 34 -11 34 -12 35 C-17.21848739 35.45378151 -17.21848739 35.45378151 -19.9375 33.875 C-21.58432718 30.96883438 -20.86792757 29.16173616 -20 26 C-19.06057514 23.97084231 -18.07401615 21.96124688 -17 20 C-16.28972656 20.01160156 -15.57945312 20.02320313 -14.84765625 20.03515625 C-13.92855469 20.04417969 -13.00945312 20.05320313 -12.0625 20.0625 C-10.68771484 20.07990234 -10.68771484 20.07990234 -9.28515625 20.09765625 C-7.03406673 20.25949049 -7.03406673 20.25949049 -6 19 C-5.49940084 16.58517587 -5.49940084 16.58517587 -6 14 C-8.40858714 12.1375562 -8.40858714 12.1375562 -11 11 C-10.39294514 6.87202695 -9.06000669 3.62561178 -7 0 C-4.25700998 -1.37149501 -2.91518346 -0.83290956 0 0 Z " fill="#080705" transform="translate(263,175)"/>
<path d="M0 0 C10.89 0 21.78 0 33 0 C30.03 4.95 30.03 4.95 27 10 C25.60841092 14.38261068 25.60841092 14.38261068 25 18 C22.89535207 17.69075786 20.7912947 17.3774944 18.6875 17.0625 C17.51574219 16.88847656 16.34398437 16.71445313 15.13671875 16.53515625 C12 16 12 16 9 15 C7.61328125 12.78515625 7.61328125 12.78515625 6.3125 10.0625 C5.65701172 8.71865234 5.65701172 8.71865234 4.98828125 7.34765625 C4 5 4 5 4 3 C2.68 2.34 1.36 1.68 0 1 C0 0.67 0 0.34 0 0 Z " fill="#AEDCE8" transform="translate(126,55)"/>
<path d="M0 0 C1.93798521 0.30947671 3.87537426 0.62268834 5.8125 0.9375 C6.89144531 1.11152344 7.97039062 1.28554687 9.08203125 1.46484375 C12 2 12 2 15 3 C15.08636719 3.70125 15.17273438 4.4025 15.26171875 5.125 C16.15115242 11.13071725 17.41717044 15.49323405 20.9765625 20.44140625 C22 22 22 22 22 24 C18.125 23.125 18.125 23.125 17 22 C14.59589012 21.95256997 12.21516393 21.95445187 9.8125 22 C5.05544767 22.07469366 0.67127155 21.92989543 -4 21 C-3.79503906 20.48953125 -3.59007812 19.9790625 -3.37890625 19.453125 C-0.99030189 13.00732185 -0.33564879 6.8402909 0 0 Z " fill="#D6EDF3" transform="translate(136,70)"/>
<path d="M0 0 C3.125 1.6875 3.125 1.6875 5.125 4.6875 C5.0625 7.6875 5.0625 7.6875 4.125 10.6875 C-1.71339579 15.26353994 -8.7235576 15.42694013 -15.875 14.6875 C-19.125 13.125 -19.125 13.125 -20.875 10.6875 C-21 7.1875 -21 7.1875 -19.875 3.6875 C-14.29945056 -1.88804944 -7.23300778 -2.89017675 0 0 Z " fill="#050606" transform="translate(156.875,94.3125)"/>
<path d="M0 0 C3.16953056 1.19105533 4.32639426 2.74245097 5.87109375 5.703125 C6.58017704 10.11519883 6.43029558 11.92363154 3.80859375 15.578125 C0.26394244 18.14234084 -1.75217837 18.85943671 -6.12890625 18.703125 C-9.25430772 16.70818789 -10.79141768 15.22319546 -11.609375 11.5390625 C-11.8698845 7.3286657 -11.43683999 5.18427147 -9.12890625 1.578125 C-5.62875 -0.60947266 -3.95914634 -0.80829453 0 0 Z " fill="#D0D0D0" transform="translate(95.12890625,69.296875)"/>
<path d="M0 0 C-4.30008878 9.44393021 -8.63891581 18.79026523 -14 27.6875 C-14.38534912 28.32824463 -14.77069824 28.96898926 -15.16772461 29.62915039 C-16.07802935 31.10744587 -17.03400644 32.55747836 -18 34 C-18.33 34 -18.66 34 -19 34 C-19.52511704 23.19134102 -19.41352232 13.45656736 -12.5625 4.4375 C-8.46365416 0.53859786 -5.51141412 -0.0918569 0 0 Z " fill="#E8C8C9" transform="translate(89,55)"/>
<path d="M0 0 C3.5 0.625 3.5 0.625 6.4375 2.625 C8.73092162 5.96088599 9.25815509 7.72484094 8.98046875 11.6875 C8.11102978 15.1935303 6.41963173 16.63716563 3.5 18.625 C0 19.3125 0 19.3125 -3.5 18.625 C-7.19374497 15.40279694 -8.27969084 13.88076218 -9.125 9.0625 C-8.09801265 3.41406959 -5.64279511 1.00764198 0 0 Z " fill="#D2D2D2" transform="translate(165.5,66.375)"/>
<path d="M0 0 C3 2 3 2 4 5 C4.14619515 7.28851645 4.22091336 9.58200316 4.25 11.875 C4.27578125 13.08929688 4.3015625 14.30359375 4.328125 15.5546875 C3.98031164 19.20672783 3.12478034 21.05885669 1 24 C-0.70884005 22.37660195 -2.37446717 20.70680947 -4 19 C-4 18.34 -4 17.68 -4 17 C-5.093125 17.061875 -6.18625 17.12375 -7.3125 17.1875 C-11 17 -11 17 -13 15.8125 C-14 14 -14 14 -13.9375 11.5625 C-12.74506455 8.30317643 -11.86487844 7.0054149 -9 5 C-6.00731775 4.38082436 -3.050208 4.13035077 0 4 C0 2.68 0 1.36 0 0 Z " fill="#F2CEA0" transform="translate(54,180)"/>
<path d="M0 0 C0.66 0 1.32 0 2 0 C2 0.66 2 1.32 2 2 C4.64 2.33 7.28 2.66 10 3 C10 3.66 10 4.32 10 5 C10.61875 5.12375 11.2375 5.2475 11.875 5.375 C14 6 14 6 16 8 C16.25 10.5 16.25 10.5 16 13 C14 15 14 15 10.5625 15.1875 C7 15 7 15 4 14 C3.34 15.98 2.68 17.96 2 20 C1.34 20 0.68 20 0 20 C-1.02345486 16.62097444 -1.1338035 13.52139987 -1.125 10 C-1.12886719 8.453125 -1.12886719 8.453125 -1.1328125 6.875 C-1.01863671 4.40342991 -0.71350656 2.3557042 0 0 Z " fill="#EDCC9F" transform="translate(242,181)"/>
<path d="M0 0 C5.29952495 1.23244766 8.09946538 3.50417133 11 8 C14.95679151 15.76703518 16.31384914 23.36914874 16 32 C13.78860319 29.94416297 12.29239391 28.00305928 10.87890625 25.33984375 C10.50241943 24.63287354 10.12593262 23.92590332 9.73803711 23.19750977 C9.15614624 22.07880493 9.15614624 22.07880493 8.5625 20.9375 C8.16361572 20.17687256 7.76473145 19.41624512 7.35375977 18.63256836 C0 4.43662785 0 4.43662785 0 0 Z " fill="#D29696" transform="translate(206,55)"/>
<path d="M0 0 C2.3125 1.5625 2.3125 1.5625 4 3 C3.39254603 7.85963179 1.27241033 11.7405518 -1 16 C-1.66 16 -2.32 16 -3 16 C-3.33 16.99 -3.66 17.98 -4 19 C-4.33 19 -4.66 19 -5 19 C-5.2475 18.05125 -5.495 17.1025 -5.75 16.125 C-6.6857077 12.91306809 -6.6857077 12.91306809 -9.125 11.625 C-9.74375 11.41875 -10.3625 11.2125 -11 11 C-10.39294514 6.87202695 -9.06000669 3.62561178 -7 0 C-4.25700998 -1.37149501 -2.91518346 -0.83290956 0 0 Z " fill="#050504" transform="translate(263,175)"/>
<path d="M0 0 C2.6875 0.3125 2.6875 0.3125 5 1 C5.77351037 7.05916458 4.09322442 10.05845835 0.60546875 14.984375 C-2.33206626 18.67237516 -2.33206626 18.67237516 -4 20 C-5.32 20 -6.64 20 -8 20 C-8.73820642 12.91321834 -7.46621579 8.56075318 -3 3 C-1.5 1.25390625 -1.5 1.25390625 0 0 Z " fill="#930202" transform="translate(41,43)"/>
<path d="M0 0 C4.22901118 1.38256135 5.13345426 3.30791168 7.26953125 7.0546875 C9.28408681 11.18011202 9.33564885 14.5231107 9.25 19.0625 C7.125 19.5 7.125 19.5 4.25 19.0625 C0.07081868 15.5372737 -2.58439825 11.42426803 -3.75 6.0625 C-3.9375 3.25 -3.9375 3.25 -3.75 1.0625 C-2.75 0.0625 -2.75 0.0625 0 0 Z " fill="#940101" transform="translate(251.75,43.9375)"/>
<path d="M0 0 C2.9375 2.25 2.9375 2.25 5 5 C5 6.32 5 7.64 5 9 C2.70839681 9.02692484 0.41670454 9.04636124 -1.875 9.0625 C-3.15117187 9.07410156 -4.42734375 9.08570312 -5.7421875 9.09765625 C-9 9 -9 9 -11 8 C-10.6875 5.125 -10.6875 5.125 -10 2 C-6.24952518 -0.50031654 -4.44143734 -0.53603554 0 0 Z " fill="#9E9E9E" transform="translate(169,67)"/>
<path d="M0 0 C-1.98 3.96 -3.96 7.92 -6 12 C-9.3 12 -12.6 12 -16 12 C-14.67771571 6.31417757 -12.59744698 4.2838907 -8 1 C-5 0 -5 0 0 0 Z " fill="#D39696" transform="translate(89,55)"/>
<path d="M0 0 C3 2 3 2 4 5 C4.14619515 7.28851645 4.22091336 9.58200316 4.25 11.875 C4.27578125 13.08929688 4.3015625 14.30359375 4.328125 15.5546875 C3.97961401 19.21405292 3.19215409 21.08819936 1 24 C0.67 24 0.34 24 0 24 C0 16.08 0 8.16 0 0 Z " fill="#52ACBB" transform="translate(54,180)"/>
<path d="M0 0 C2.30854925 2.12333613 3.78412576 4.13612842 5.1875 6.9375 C5.53167969 7.60652344 5.87585937 8.27554688 6.23046875 8.96484375 C7 11 7 11 7 15 C4.6875 14.875 4.6875 14.875 2 14 C0.07418422 10.90493892 -1.6335829 7.66417104 -2 4 C-1.0625 1.75 -1.0625 1.75 0 0 Z " fill="#F1CE9F" transform="translate(34,191)"/>
<path d="M0 0 C0.99 0.33 1.98 0.66 3 1 C3.36875341 4.87191078 3.07486527 6.85026947 1.3125 10.375 C-1 13 -1 13 -3.75 13.375 C-4.4925 13.25125 -5.235 13.1275 -6 13 C-4.31326082 8.50202887 -2.18326108 4.27113698 0 0 Z " fill="#EDCA9C" transform="translate(260,191)"/>
<path d="M0 0 C0.33 0 0.66 0 1 0 C1.06058594 0.61488281 1.12117188 1.22976562 1.18359375 1.86328125 C1.26738281 2.67152344 1.35117188 3.47976562 1.4375 4.3125 C1.51871094 5.11300781 1.59992188 5.91351563 1.68359375 6.73828125 C1.95265693 9.16087179 1.95265693 9.16087179 3 12 C0.03 12 -2.94 12 -6 12 C-4.43358249 7.69235185 -2.31663844 3.93828536 0 0 Z " fill="#D7EDF2" transform="translate(77,77)"/>
<path d="M0 0 C0.66 0 1.32 0 2 0 C2 6.6 2 13.2 2 20 C1.34 20 0.68 20 0 20 C-1.02345486 16.62097444 -1.1338035 13.52139987 -1.125 10 C-1.12886719 8.453125 -1.12886719 8.453125 -1.1328125 6.875 C-1.01863671 4.40342991 -0.71350656 2.3557042 0 0 Z " fill="#55A8B1" transform="translate(242,181)"/>
<path d="M0 0 C1.98 0 3.96 0 6 0 C7.28317892 3.84953676 7.06643637 6.94738135 7 11 C4.59424393 8.81482901 3.20464419 6.74080329 1.8125 3.8125 C1.46832031 3.09707031 1.12414062 2.38164063 0.76953125 1.64453125 C0.51558594 1.10183594 0.26164063 0.55914062 0 0 Z " fill="#E1BABA" transform="translate(215,76)"/>
<path d="M0 0 C2.64179275 3.19184343 4.14549017 6.41581339 5.6875 10.25 C6.34298828 11.86648437 6.34298828 11.86648437 7.01171875 13.515625 C7.33785156 14.33546875 7.66398438 15.1553125 8 16 C6.35 16 4.7 16 3 16 C1.91681831 10.6787385 0.847126 5.36513131 0 0 Z " fill="#B7DBE6" transform="translate(207,60)"/>
<path d="M0 0 C4.43458973 1.3937282 6.87378374 3.60582235 10 7 C7.8125 7.375 7.8125 7.375 5 7 C2.96237639 5.16613875 1.61191578 3.25668209 0 1 C0 0.67 0 0.34 0 0 Z " fill="#F6EBD8" transform="translate(161,104)"/>
<path d="M0 0 C4.21912747 0.4794463 6.79663178 1.16625119 10 4 C9.67 4.99 9.34 5.98 9 7 C8.0925 6.34 7.185 5.68 6.25 5 C3.06824185 2.65060172 3.06824185 2.65060172 -1 3 C-0.67 2.01 -0.34 1.02 0 0 Z " fill="#A2A58A" transform="translate(258,172)"/>
<path d="M0 0 C0 0.66 0 1.32 0 2 C-2.97 2.66 -5.94 3.32 -9 4 C-9 4.66 -9 5.32 -9 6 C-9.66 6 -10.32 6 -11 6 C-8.60159776 0.46522561 -5.82500047 -0.25888891 0 0 Z " fill="#959789" transform="translate(40,174)"/>
<path d="M0 0 C-1.01176437 3.40320742 -1.64843582 4.75725331 -4.625 6.8125 C-5.40875 7.204375 -6.1925 7.59625 -7 8 C-4.18918919 0 -4.18918919 0 0 0 Z " fill="#F7E9D4" transform="translate(134,105)"/>
<path d="M0 0 C0 1.65 0 3.3 0 5 C-2.97 4.505 -2.97 4.505 -6 4 C-2.25 0 -2.25 0 0 0 Z " fill="#CA791F" transform="translate(51,131)"/>
</svg>
