<?xml version="1.0" encoding="UTF-8"?>
<svg version="1.1" xmlns="http://www.w3.org/2000/svg" width="250" height="217">
<path d="M0 0 C1.051875 0.45375 2.10375 0.9075 3.1875 1.375 C6.49568961 3.28639844 9.13537294 5.47639997 12 8 C11.40716913 11.60571107 9.97258223 13.54429438 7.5625 16.25 C6.94503906 16.95640625 6.32757813 17.6628125 5.69140625 18.390625 C4 20 4 20 2 20 C1.72800781 20.58910156 1.45601563 21.17820312 1.17578125 21.78515625 C-1.75266633 27.30153424 -6.62768943 31.62768943 -11 36 C-12.2375 37.485 -12.2375 37.485 -13.5 39 C-15.87431204 41.84917445 -18.37671841 44.38042361 -21 47 C-25.72093114 51.94846358 -30.35472145 56.98064092 -35 62 C-35.71470459 62.77077881 -35.71470459 62.77077881 -36.44384766 63.55712891 C-41.00661192 68.49166122 -45.24187831 73.42343233 -49 79 C-48.31035156 79.75023438 -47.62070313 80.50046875 -46.91015625 81.2734375 C-41.66166801 86.98804037 -36.43581379 92.72090878 -31.25390625 98.49609375 C-28.80549527 101.21607891 -26.34099921 103.92095561 -23.875 106.625 C-13.93480663 117.55303867 -13.93480663 117.55303867 -9.875 122.6875 C-6.93429236 126.31437275 -3.55955402 129.46531505 -0.1875 132.6875 C2 135 2 135 2 137 C2.99 137.33 3.98 137.66 5 138 C6.859375 139.70703125 6.859375 139.70703125 8.75 141.8125 C9.38421875 142.49957031 10.0184375 143.18664062 10.671875 143.89453125 C12 146 12 146 11.83203125 148.18359375 C10.72460349 150.60121773 9.42473702 151.06139212 7 152 C7 152.66 7 153.32 7 154 C5.44148245 154.82011312 3.87798284 155.63076213 2.3125 156.4375 C1.44238281 156.88996094 0.57226562 157.34242188 -0.32421875 157.80859375 C-8.8607979 161.60955235 -21.03358079 161.36714594 -29.875 158.5 C-39.03187093 154.59526825 -45.83598195 147.62183208 -52 140 C-54.70928461 136.70072791 -57.45350444 133.53166777 -60.48779297 130.52368164 C-63.6392051 127.34835663 -66.68625135 124.07207514 -69.75 120.8125 C-70.8162561 119.67856812 -70.8162561 119.67856812 -71.90405273 118.52172852 C-77.0109858 113.07903544 -82.05903835 107.59431195 -87 102 C-87.64453125 101.27296875 -88.2890625 100.5459375 -88.953125 99.796875 C-91.40840342 97.01147512 -93.8215901 94.22563605 -96.125 91.3125 C-98.02025666 88.89314999 -98.02025666 88.89314999 -100.5 86.5 C-102.87675345 84.12324655 -104.94892056 81.65880668 -107 79 C-103.70106168 73.22685793 -99.74431025 68.63397745 -95 64 C-90.33914387 59.50832797 -90.33914387 59.50832797 -86.1875 54.5625 C-85.795625 54.046875 -85.40375 53.53125 -85 53 C-84.34 53 -83.68 53 -83 53 C-82.78472656 52.46632812 -82.56945312 51.93265625 -82.34765625 51.3828125 C-80.5027221 48.12075502 -78.00243323 45.57336217 -75.4375 42.875 C-74.34846701 41.71269974 -73.25992983 40.54993473 -72.171875 39.38671875 C-71.63369141 38.81356934 -71.09550781 38.24041992 -70.54101562 37.64990234 C-63.67290834 30.29650104 -56.83045681 22.81262523 -50.5625 14.9375 C-37.59156327 0.06837741 -19.31149567 -8.67617921 0 0 Z " fill="#EF9325" transform="translate(238,30)"/>
<path d="M0 0 C2.52858013 1.87837381 4.64120243 4.01097054 6.77734375 6.3203125 C7.56109375 7.0834375 8.34484375 7.8465625 9.15234375 8.6328125 C11.86938826 11.41454855 14.4078329 14.30314887 16.93359375 17.2578125 C19.12464786 19.70882219 21.45088507 21.99720606 23.77734375 24.3203125 C44.77734375 46.3145092 44.77734375 46.3145092 44.77734375 49.3203125 C45.6590625 49.69736328 45.6590625 49.69736328 46.55859375 50.08203125 C49.0541655 51.47480633 50.4426489 52.95202748 52.27734375 55.1328125 C52.88320312 55.84695312 53.4890625 56.56109375 54.11328125 57.296875 C55.39331634 58.85334959 56.65243393 60.4270442 57.90234375 62.0078125 C59.79760041 64.42716251 59.79760041 64.42716251 62.27734375 66.8203125 C64.6540972 69.19706595 66.72626431 71.66150582 68.77734375 74.3203125 C65.46827814 80.11117732 61.47509554 84.62256071 56.77734375 89.3203125 C55.95234375 90.3103125 55.12734375 91.3003125 54.27734375 92.3203125 C51.90221821 95.17046315 49.40169748 97.69962407 46.77734375 100.3203125 C44.34254259 102.86585139 41.93410699 105.43577796 39.52734375 108.0078125 C38.52936768 109.07346436 38.52936768 109.07346436 37.51123047 110.16064453 C32.53249856 115.48816622 27.63030272 120.87799988 22.77734375 126.3203125 C20.45919936 128.87969468 18.14083603 131.43886836 15.8203125 133.99609375 C13.72550181 136.37929138 11.75066312 138.83615472 9.77734375 141.3203125 C2.29453354 149.68345332 -6.73618827 155.77458434 -18.02734375 156.59765625 C-28.31082564 156.95109042 -36.15088785 155.20511087 -45.22265625 150.3203125 C-45.22265625 149.6603125 -45.22265625 149.0003125 -45.22265625 148.3203125 C-46.18171875 147.9490625 -46.18171875 147.9490625 -47.16015625 147.5703125 C-49.22265625 146.3203125 -49.22265625 146.3203125 -50.08984375 144.5390625 C-50.22265625 142.3203125 -50.22265625 142.3203125 -48.640625 139.9609375 C-47.53654297 138.77757812 -47.53654297 138.77757812 -46.41015625 137.5703125 C-45.31767578 136.37148438 -45.31767578 136.37148438 -44.203125 135.1484375 C-42.22265625 133.3203125 -42.22265625 133.3203125 -40.22265625 133.3203125 C-39.95066406 132.73121094 -39.67867187 132.14210937 -39.3984375 131.53515625 C-36.46998992 126.01877826 -31.59496682 121.69262307 -27.22265625 117.3203125 C-26.39765625 116.3303125 -25.57265625 115.3403125 -24.72265625 114.3203125 C-22.34834421 111.47113805 -19.84593784 108.93988889 -17.22265625 106.3203125 C-12.50172511 101.37184892 -7.8679348 96.33967158 -3.22265625 91.3203125 C-2.50795166 90.54953369 -2.50795166 90.54953369 -1.77880859 89.76318359 C2.78395567 84.82865128 7.01922206 79.89688017 10.77734375 74.3203125 C10.08769531 73.57007812 9.39804687 72.81984375 8.6875 72.046875 C3.43901176 66.33227213 -1.78684246 60.59940372 -6.96875 54.82421875 C-9.41716098 52.10423359 -11.88165704 49.39935689 -14.34765625 46.6953125 C-24.28784962 35.76727383 -24.28784962 35.76727383 -28.34765625 30.6328125 C-31.28836389 27.00593975 -34.66310223 23.85499745 -38.03515625 20.6328125 C-40.22265625 18.3203125 -40.22265625 18.3203125 -40.22265625 16.3203125 C-41.21265625 15.9903125 -42.20265625 15.6603125 -43.22265625 15.3203125 C-45.08203125 13.61328125 -45.08203125 13.61328125 -46.97265625 11.5078125 C-47.606875 10.82074219 -48.24109375 10.13367188 -48.89453125 9.42578125 C-50.22265625 7.3203125 -50.22265625 7.3203125 -50.15234375 5.25 C-47.38042394 -0.50348062 -39.94647861 -3.62775118 -34.22265625 -5.6796875 C-21.93235351 -8.68398373 -10.44941945 -6.91110118 0 0 Z " fill="#EF9325" transform="translate(50.22265625,33.6796875)"/>
<path d="M0 0 C0.66 0.37125 1.32 0.7425 2 1.125 C3.051875 1.7025 4.10375 2.28 5.1875 2.875 C8.21289362 5.2953149 10.57890952 7.87558634 13.0625 10.8359375 C15.96311476 14.26287349 19.03342018 17.53289651 22.08203125 20.828125 C23.7964109 22.88119065 24.94224795 24.68489475 26 27.125 C26.66 27.125 27.32 27.125 28 27.125 C29.53612476 28.86807894 31.00540359 30.67049096 32.4375 32.5 C34.88669719 35.62302904 36.68910701 37.91773801 40 40.125 C40 40.785 40 41.445 40 42.125 C40.66 42.125 41.32 42.125 42 42.125 C42.33 41.135 42.66 40.145 43 39.125 C44.64302953 37.43502677 46.31471312 35.77283606 48 34.125 C49.58026013 32.26199725 51.13251782 30.38053864 52.66796875 28.48046875 C53.10753906 28.03316406 53.54710937 27.58585937 54 27.125 C54.66 27.125 55.32 27.125 56 27.125 C56.26119629 26.54234375 56.52239258 25.9596875 56.79150391 25.359375 C58.07360053 22.98892079 59.4830302 21.32617136 61.3359375 19.375 C61.98820312 18.6840625 62.64046875 17.993125 63.3125 17.28125 C63.993125 16.5696875 64.67375 15.858125 65.375 15.125 C66.04789062 14.4134375 66.72078125 13.701875 67.4140625 12.96875 C68.70994092 11.60144521 70.01029567 10.2383652 71.31567383 8.88012695 C72.61073344 7.53062941 73.88912978 6.16512572 75.16015625 4.79296875 C77.31227881 2.84189374 79.44543308 1.68879746 82.0625 0.4375 C83.34833984 -0.18705078 83.34833984 -0.18705078 84.66015625 -0.82421875 C92.15460648 -4.18983997 102.21145071 -4.06770895 110.16796875 -2.0859375 C112.54680571 -1.14303995 114.76128445 -0.11077098 117 1.125 C117.99 1.640625 118.98 2.15625 120 2.6875 C122 4.125 122 4.125 124 7.125 C123.85884954 11.35951386 120.90695337 13.34724456 118 16.125 C116.51376635 17.82188094 115.06580811 19.54573114 113.625 21.28125 C111.52008422 23.66951983 109.2525833 25.87577877 107 28.125 C105.36347365 29.8851867 103.7386403 31.65630919 102.125 33.4375 C100.81789062 34.87996094 100.81789062 34.87996094 99.484375 36.3515625 C97.42329603 38.65245254 95.39127707 40.97250873 93.375 43.3125 C90.3959621 46.74608594 87.21533499 49.92612022 83.98046875 53.1171875 C79.77421895 57.38151175 75.93489669 61.95719009 72.1875 66.625 C71.465625 67.45 70.74375 68.275 70 69.125 C69.34 69.125 68.68 69.125 68 69.125 C67.773125 69.67027344 67.54625 70.21554688 67.3125 70.77734375 C65.61645183 73.81104895 63.37133043 76.17958159 61 78.6875 C60.0101131 79.74971718 59.02053697 80.81222406 58.03125 81.875 C57.27714844 82.68130859 57.27714844 82.68130859 56.5078125 83.50390625 C54.14663871 86.04247393 51.82528035 88.61601349 49.5 91.1875 C48.00618126 92.83894571 46.50714079 94.4857032 45 96.125 C44.24203125 97.05119141 44.24203125 97.05119141 43.46875 97.99609375 C42 99.125 42 99.125 40.01171875 99.02734375 C37.5780259 97.93572618 36.49529229 96.75255621 34.8125 94.6875 C34.20921875 93.965625 33.6059375 93.24375 32.984375 92.5 C32.32953125 91.71625 31.6746875 90.9325 31 90.125 C29.52789202 88.47285004 28.04847119 86.82719235 26.5625 85.1875 C25.81226562 84.35347656 25.06203125 83.51945312 24.2890625 82.66015625 C22.74847238 80.95393954 21.20145923 79.25350285 19.6484375 77.55859375 C18.91882813 76.75550781 18.18921875 75.95242187 17.4375 75.125 C16.77621094 74.403125 16.11492187 73.68125 15.43359375 72.9375 C14 71.125 14 71.125 14 69.125 C13.40316406 68.86460938 12.80632812 68.60421875 12.19140625 68.3359375 C9.83893217 67.03599639 8.63949215 65.8132846 6.9375 63.75 C3.37406757 59.53095771 -0.33331321 55.47051169 -4.09204102 51.42626953 C-6.15110742 49.19718847 -8.13537797 46.95401003 -10.01953125 44.57421875 C-12.18577137 41.89525908 -14.54783247 39.54342211 -17 37.125 C-30.59562842 22.50204918 -30.59562842 22.50204918 -36.1875 15.3125 C-37.95843899 13.17515984 -39.71111587 11.67817137 -42 10.125 C-41.42503061 6.79017754 -40.54916458 5.32527229 -38 3.125 C-36.363972 2.19397091 -34.6936237 1.32160912 -33 0.5 C-32.13375 0.07460938 -31.2675 -0.35078125 -30.375 -0.7890625 C-21.43612161 -4.87624703 -8.79119841 -4.27679923 0 0 Z " fill="#37ABC8" transform="translate(84,2.875)"/>
<path d="M0 0 C2.43369285 1.09161757 3.51642646 2.27478754 5.19921875 4.33984375 C5.8025 5.06171875 6.40578125 5.78359375 7.02734375 6.52734375 C8.00960937 7.70296875 8.00960937 7.70296875 9.01171875 8.90234375 C10.48382673 10.55449371 11.96324756 12.2001514 13.44921875 13.83984375 C14.19945312 14.67386719 14.9496875 15.50789062 15.72265625 16.3671875 C17.26324637 18.07340421 18.81025952 19.7738409 20.36328125 21.46875 C21.09289062 22.27183594 21.8225 23.07492188 22.57421875 23.90234375 C23.23550781 24.62421875 23.89679688 25.34609375 24.578125 26.08984375 C26.01171875 27.90234375 26.01171875 27.90234375 26.01171875 29.90234375 C26.60855469 30.16273438 27.20539063 30.423125 27.8203125 30.69140625 C30.17278658 31.99134736 31.3722266 33.21405915 33.07421875 35.27734375 C36.63765118 39.49638604 40.34503196 43.55683206 44.10375977 47.60107422 C46.16282617 49.83015528 48.14709672 52.07333372 50.03125 54.453125 C52.19749012 57.13208467 54.55955122 59.48392164 57.01171875 61.90234375 C70.60734717 76.52529457 70.60734717 76.52529457 76.19921875 83.71484375 C77.97015774 85.85218391 79.72283462 87.34917238 82.01171875 88.90234375 C81.43674936 92.23716621 80.56088333 93.70207146 78.01171875 95.90234375 C76.37569075 96.83337284 74.70534245 97.70573463 73.01171875 98.52734375 C72.14546875 98.95273438 71.27921875 99.378125 70.38671875 99.81640625 C62.49445298 103.42504093 50.79915061 103.35539488 42.57421875 100.46484375 C33.65784715 96.11904919 27.10073374 88.0589133 20.38671875 80.96484375 C19.75797852 80.30186279 19.12923828 79.63888184 18.48144531 78.95581055 C17.90104492 78.33101807 17.32064453 77.70622559 16.72265625 77.0625 C16.19978027 76.50183838 15.6769043 75.94117676 15.13818359 75.36352539 C14.01171875 73.90234375 14.01171875 73.90234375 14.01171875 71.90234375 C13.35171875 71.90234375 12.69171875 71.90234375 12.01171875 71.90234375 C10.47559399 70.15926481 9.00631516 68.35685279 7.57421875 66.52734375 C5.12502156 63.40431471 3.32261174 61.10960574 0.01171875 58.90234375 C0.01171875 58.24234375 0.01171875 57.58234375 0.01171875 56.90234375 C-0.64828125 56.90234375 -1.30828125 56.90234375 -1.98828125 56.90234375 C-2.31828125 57.89234375 -2.64828125 58.88234375 -2.98828125 59.90234375 C-4.63131078 61.59231698 -6.30299437 63.25450769 -7.98828125 64.90234375 C-9.56854138 66.7653465 -11.12079907 68.64680511 -12.65625 70.546875 C-13.31560547 71.21783203 -13.31560547 71.21783203 -13.98828125 71.90234375 C-14.64828125 71.90234375 -15.30828125 71.90234375 -15.98828125 71.90234375 C-16.24947754 72.485 -16.51067383 73.06765625 -16.77978516 73.66796875 C-18.06188178 76.03842296 -19.47131145 77.70117239 -21.32421875 79.65234375 C-21.97648437 80.34328125 -22.62875 81.03421875 -23.30078125 81.74609375 C-23.98140625 82.45765625 -24.66203125 83.16921875 -25.36328125 83.90234375 C-26.37261719 84.9696875 -26.37261719 84.9696875 -27.40234375 86.05859375 C-28.69822217 87.42589854 -29.99857692 88.78897855 -31.30395508 90.1472168 C-32.59901469 91.49671434 -33.87741103 92.86221803 -35.1484375 94.234375 C-37.30056006 96.18545001 -39.43371433 97.33854629 -42.05078125 98.58984375 C-42.90800781 99.00621094 -43.76523438 99.42257813 -44.6484375 99.8515625 C-52.14288773 103.21718372 -62.19973196 103.0950527 -70.15625 101.11328125 C-72.53508696 100.1703837 -74.7495657 99.13811473 -76.98828125 97.90234375 C-77.97828125 97.38671875 -78.96828125 96.87109375 -79.98828125 96.33984375 C-81.98828125 94.90234375 -81.98828125 94.90234375 -83.98828125 91.90234375 C-83.84713079 87.66782989 -80.89523462 85.68009919 -77.98828125 82.90234375 C-76.5020476 81.20546281 -75.05408936 79.48161261 -73.61328125 77.74609375 C-71.50836547 75.35782392 -69.24086455 73.15156498 -66.98828125 70.90234375 C-65.3517549 69.14215705 -63.72692155 67.37103456 -62.11328125 65.58984375 C-61.241875 64.62820312 -60.37046875 63.6665625 -59.47265625 62.67578125 C-57.41157728 60.37489121 -55.37955832 58.05483502 -53.36328125 55.71484375 C-50.38424335 52.28125781 -47.20361624 49.10122353 -43.96875 45.91015625 C-39.7625002 41.645832 -35.92317794 37.07015366 -32.17578125 32.40234375 C-31.45390625 31.57734375 -30.73203125 30.75234375 -29.98828125 29.90234375 C-29.32828125 29.90234375 -28.66828125 29.90234375 -27.98828125 29.90234375 C-27.76140625 29.35707031 -27.53453125 28.81179687 -27.30078125 28.25 C-25.60473308 25.2162948 -23.35961168 22.84776216 -20.98828125 20.33984375 C-19.99839435 19.27762657 -19.00881822 18.21511969 -18.01953125 17.15234375 C-17.51679687 16.61480469 -17.0140625 16.07726562 -16.49609375 15.5234375 C-14.13491996 12.98486982 -11.8135616 10.41133026 -9.48828125 7.83984375 C-7.99446251 6.18839804 -6.49542204 4.54164055 -4.98828125 2.90234375 C-4.2303125 1.97615234 -4.2303125 1.97615234 -3.45703125 1.03125 C-1.98828125 -0.09765625 -1.98828125 -0.09765625 0 0 Z " fill="#37AAC7" transform="translate(125.98828125,115.09765625)"/>
</svg>
