<?xml version="1.0" encoding="UTF-8"?>
<svg version="1.1" xmlns="http://www.w3.org/2000/svg" width="449" height="500">
<path d="M0 0 C1.13467762 -0.00445784 2.26935523 -0.00891569 3.43841702 -0.01350862 C4.7008213 -0.01332426 5.96322559 -0.01313989 7.26388454 -0.01294994 C8.60628012 -0.01624677 9.94867471 -0.01997195 11.29106802 -0.02409142 C14.99763654 -0.03414172 18.70418888 -0.03783312 22.4107691 -0.04048073 C26.40224025 -0.0443753 30.39369847 -0.05395477 34.3851614 -0.0626936 C44.03859735 -0.08249078 53.6920344 -0.09253217 63.3454856 -0.10142139 C67.89256001 -0.10580239 72.43963325 -0.11117 76.98670673 -0.11641026 C92.10778626 -0.13343221 107.22886505 -0.14792288 122.3499527 -0.155159 C126.27743499 -0.1570689 130.20491728 -0.15898922 134.13239956 -0.16094494 C135.59663832 -0.16167055 135.59663832 -0.16167055 137.09045767 -0.16241082 C152.87734561 -0.17069777 168.66415744 -0.19600774 184.4510122 -0.22852562 C200.66454057 -0.26164923 216.87803036 -0.27961288 233.09159273 -0.28280324 C242.19236615 -0.28496435 251.29302888 -0.29365342 260.39376926 -0.31926441 C268.15132642 -0.34104462 275.90874603 -0.34898634 283.66633029 -0.33929763 C287.61972214 -0.33477288 291.57283069 -0.33653131 295.52618313 -0.35605907 C322.95580541 -0.4838316 344.46238321 1.97504705 365.35383511 21.52484608 C378.77750525 35.15252337 385.06723896 53.22557664 385.29914761 72.13422108 C385.06769026 92.56081792 377.40536235 110.76100676 362.79914761 125.13422108 C347.38777863 139.02347953 329.30646677 144.63980373 308.78369045 144.49498463 C307.41953439 144.49629631 306.05537907 144.49892937 304.69122773 144.50275213 C300.98078382 144.50939791 297.2706042 144.49754703 293.5601939 144.48241794 C289.54470731 144.46937552 285.52923378 144.4738528 281.51373196 144.47612476 C274.56925056 144.47769235 267.62485419 144.46833725 260.68039417 144.45141125 C250.64007591 144.42695561 240.59979846 144.41920928 230.55945364 144.41544727 C214.26685116 144.40889305 197.97429391 144.38895991 181.68171597 144.36053944 C165.86173128 144.33297216 150.04175891 144.31175166 134.22175503 144.299016 C133.24543588 144.29822783 132.26911674 144.29743966 131.26321217 144.2966276 C126.36495512 144.29271229 121.46669799 144.28892121 116.56844079 144.28519189 C75.97864494 144.25412806 35.38889887 144.20132041 -5.20085239 144.13422108 C-6.96502486 140.08436823 -8.57650467 136.26740689 -9.51725864 131.94672108 C-9.72415318 130.99926014 -9.93104771 130.0517992 -10.14421177 129.07562733 C-10.34852818 128.10496326 -10.55284458 127.1342992 -10.76335239 126.13422108 C-10.97153599 125.19449451 -11.17971958 124.25476795 -11.39421177 123.28656483 C-12.0474877 120.24340484 -12.6384059 117.19546311 -13.20085239 114.13422108 C-13.39356724 113.08854969 -13.58628208 112.0428783 -13.78483677 110.96551991 C-15.6064587 99.47673319 -15.57306322 87.96706368 -15.57145786 76.35956287 C-15.57579662 72.8666219 -15.61212559 69.37498382 -15.65007114 65.88226795 C-15.76013619 43.86489494 -13.25317908 22.08146651 -6.20085239 1.13422108 C-4.50022354 -0.56640777 -2.32742781 0.00421617 0 0 Z " fill="#221F20" transform="translate(15.200852394104004,177.86577892303467)"/>
<path d="M0 0 C43.37274648 -0.06876022 86.74548715 -0.12157648 130.11827745 -0.15319599 C135.24608805 -0.15694783 140.37389854 -0.16083082 145.50170898 -0.16479492 C146.52250595 -0.16558185 147.54330292 -0.16636878 148.59503313 -0.16717956 C165.09448944 -0.18021129 181.59391419 -0.20385275 198.09335182 -0.23145839 C215.04023757 -0.25957486 231.98710686 -0.27618942 248.93401498 -0.28226548 C259.37982333 -0.28636901 269.82554247 -0.29930022 280.27132335 -0.3237494 C287.44746274 -0.33968376 294.62355644 -0.34438305 301.79971222 -0.34050413 C305.93164579 -0.33859449 310.06342414 -0.34139149 314.19532967 -0.35761642 C354.11813656 -0.50641611 387.21830519 5.72558119 417 34 C418.09248047 34.928125 418.09248047 34.928125 419.20703125 35.875 C422.3661851 38.66652056 423.85796743 40.05903426 424.5 44.3125 C422.6445426 48.87383278 420.01367192 51.75745765 416.6171875 55.27734375 C414.55934033 57.41811909 412.60723898 59.58318663 410.66796875 61.828125 C400.54030661 73.46674698 389.46136392 83.91592271 377 93 C376.34418945 93.4842041 375.68837891 93.9684082 375.01269531 94.46728516 C347.63676827 114.60805339 317.33859255 129.27103755 284.25 137.375 C283.33057617 137.60155273 282.41115234 137.82810547 281.46386719 138.06152344 C263.82373638 142.11918065 246.4216026 143.49404835 228.35253906 143.39111328 C225.00284124 143.37501366 221.65434944 143.39107404 218.3046875 143.41015625 C200.2937442 143.42868271 182.9363096 141.61606639 165.4375 137.25 C164.39505127 136.99323486 163.35260254 136.73646973 162.27856445 136.47192383 C128.23312346 127.83655185 96.50730314 111.75784163 69 90 C68.21375244 89.38366699 67.42750488 88.76733398 66.61743164 88.13232422 C59.83345997 82.71268936 53.58375085 76.92587635 47.46557617 70.78125 C45.94374027 69.25625323 44.40901789 67.74511798 42.87304688 66.234375 C35.88504418 59.29125606 29.82425395 51.93641765 24 44 C23.42499756 43.23155762 22.84999512 42.46311523 22.25756836 41.67138672 C14.97341132 31.87817672 8.65967379 21.70735569 2.99560547 10.89697266 C2.07416997 9.14131945 1.11857732 7.40370797 0.16015625 5.66796875 C-1 3 -1 3 0 0 Z " fill="#3DBDAF" transform="translate(25,357)"/>
<path d="M0 0 C3.50392403 -0.00434311 7.0065539 -0.04068485 10.51025391 -0.07861328 C67.90783013 -0.36341282 123.85486032 22.06334158 167.17041016 59.37060547 C167.94900391 60.03833984 168.72759766 60.70607422 169.52978516 61.39404297 C181.75753763 72.14327636 194.09958402 83.76436627 203.17041016 97.37060547 C202.5572802 104.56758326 194.22799814 110.49161874 189.10791016 114.80810547 C158.42992147 139.07893469 127.2549387 143.86938552 89.13600385 143.71880233 C84.96520242 143.70569704 80.79441246 143.71024153 76.62359619 143.71250916 C69.4189396 143.71407285 62.21436529 143.70475904 55.00972939 143.68779564 C44.59338916 143.66328637 34.17708823 143.65558825 23.7607223 143.65183166 C6.85583991 143.64528576 -10.04899874 143.62537544 -26.95385742 143.59692383 C-43.36336042 143.56933485 -59.7728515 143.54812503 -76.18237305 143.53540039 C-77.70273367 143.53421813 -77.70273367 143.53421813 -79.25380864 143.533012 C-84.33923481 143.52909653 -89.42466106 143.52530549 -94.51008737 143.52157629 C-136.61661859 143.49053841 -178.7231017 143.43775371 -220.82958984 143.37060547 C-222.02702327 139.7783052 -221.28741523 138.62190177 -219.68334961 135.33251953 C-219.33973389 134.66446289 -218.99611816 133.99640625 -218.64208984 133.30810547 C-218.10829712 132.25768066 -218.10829712 132.25768066 -217.5637207 131.18603516 C-206.04154852 109.15885404 -189.87159435 88.97174382 -172.32958984 71.49560547 C-171.8059082 70.97213531 -171.28222656 70.44866516 -170.74267578 69.90933228 C-162.5888093 61.78810973 -154.2279668 54.32143295 -144.76806641 47.72802734 C-142.83448564 46.37403376 -140.93695818 44.97914743 -139.04052734 43.57373047 C-113.22820869 24.76057849 -82.17182726 12.12228592 -51.14208984 5.12060547 C-50.05009277 4.87415283 -48.9580957 4.6277002 -47.83300781 4.3737793 C-31.77758472 0.90074662 -16.38251879 -0.00226184 0 0 Z " fill="#EFBE1A" transform="translate(245.82958984375,-0.37060546875)"/>
<path d="M0 0 C15.23927117 -0.09387727 30.47852894 -0.16419007 45.71802521 -0.20724869 C52.79567695 -0.22778233 59.87314795 -0.25572426 66.95068359 -0.30175781 C73.12701124 -0.34191024 79.30320785 -0.36749945 85.47966242 -0.37635398 C88.74329527 -0.38152136 92.00647103 -0.39564195 95.27000427 -0.42292023 C121.4615965 -0.63297527 141.75952732 2.86671364 161.5546875 21.390625 C174.97835764 35.01830229 181.26809135 53.09135557 181.5 72 C181.26854266 92.42659685 173.60621475 110.62678569 159 125 C144.20970061 138.32952908 126.39858263 144.54089564 106.6003418 144.34057617 C105.43776855 144.34101425 104.27519531 144.34145233 103.07739258 144.34190369 C99.28448924 144.33983542 95.49204361 144.3165974 91.69921875 144.29296875 C89.04978183 144.2873658 86.40036934 144.2829512 83.75093079 144.28010559 C77.52161802 144.2708378 71.29246609 144.24629669 65.06322366 144.21605712 C57.96271735 144.18234749 50.86220274 144.16598579 43.76163614 144.15097082 C29.17434172 144.11974138 14.58717311 144.06708521 0 144 C0.28463081 141.16580388 0.57750619 138.33285146 0.875 135.5 C0.95363281 134.70851563 1.03226563 133.91703125 1.11328125 133.1015625 C1.66704977 127.90465795 2.64432341 123.04733725 4 118 C9.99970387 85.13864818 7.83658527 50.99988201 3.3671875 18.12402344 C3 15 3 15 3 11 C2.34 11 1.68 11 1 11 C-0.28317892 7.15046324 -0.06643637 4.05261865 0 0 Z " fill="#07A4DD" transform="translate(219,178)"/>
<path d="M0 0 C62.7 0 125.4 0 190 0 C189.09079566 4.54602172 188.30585907 6.24666736 186 10 C185.06203522 12.25375763 184.16711236 14.5258345 183.3125 16.8125 C182.87550781 17.97394531 182.43851563 19.13539063 181.98828125 20.33203125 C181.66214844 21.21246094 181.33601562 22.09289062 181 23 C180.34 23 179.68 23 179 23 C178.69255859 23.93972656 178.69255859 23.93972656 178.37890625 24.8984375 C177.97478516 26.12433594 177.97478516 26.12433594 177.5625 27.375 C177.29566406 28.18710937 177.02882812 28.99921875 176.75390625 29.8359375 C176 32 176 32 175 34 C174.34 34 173.68 34 173 34 C172.64421875 35.00546875 172.64421875 35.00546875 172.28125 36.03125 C170.67571784 39.75138549 168.65292815 43.07449417 166.5 46.5 C166.05857666 47.20342529 165.61715332 47.90685059 165.16235352 48.6315918 C160.83708253 55.41968328 156.04501914 61.73637721 151 68 C150.27167969 68.92167969 149.54335937 69.84335937 148.79296875 70.79296875 C137.64433509 84.7136951 125.3046446 98.08968868 111.25 109.08984375 C108.8147599 110.9796154 108.8147599 110.9796154 107 114 C101.32396402 112.46938356 96.83305105 109.64203052 91.9375 106.5 C91.09767578 105.96463623 90.25785156 105.42927246 89.39257812 104.87768555 C82.9301551 100.70764268 76.73609147 96.300744 70.77319336 91.44091797 C69.39264618 90.31906894 68.0004437 89.21155732 66.60375977 88.10986328 C59.8242689 82.69526051 53.5790695 76.92117476 47.46557617 70.78125 C45.94374027 69.25625323 44.40901789 67.74511798 42.87304688 66.234375 C35.88504418 59.29125606 29.82425395 51.93641765 24 44 C23.42499756 43.23155762 22.84999512 42.46311523 22.25756836 41.67138672 C14.97341132 31.87817672 8.65967379 21.70735569 2.99560547 10.89697266 C2.07416997 9.14131945 1.11857732 7.40370797 0.16015625 5.66796875 C-1 3 -1 3 0 0 Z " fill="#019B8F" transform="translate(25,357)"/>
<path d="M0 0 C2.1875 1.875 2.1875 1.875 4 4 C4 4.66 4 5.32 4 6 C5.01126953 6.28810547 5.01126953 6.28810547 6.04296875 6.58203125 C10.18418298 8.56784468 13.0395316 11.50898363 16.3125 14.6875 C17.65398133 15.96846094 18.99641871 17.24842145 20.33984375 18.52734375 C20.97647949 19.13562012 21.61311523 19.74389648 22.26904297 20.37060547 C24.24833467 22.23376384 26.29215458 24.00377606 28.375 25.75 C36.5670353 32.82735231 43.24399413 41.5905166 50 50 C50.74636719 50.89074219 51.49273437 51.78148437 52.26171875 52.69921875 C54 55 54 55 54 57 C54.66 57 55.32 57 56 57 C60 63.75 60 63.75 60 66 C60.99 66.33 61.98 66.66 63 67 C64.0394002 68.9798099 65.0288775 70.98582 66 73 C66.92059635 74.38637427 67.85981498 75.76047719 68.8125 77.125 C71.7949711 81.52138333 74.16422506 86.085674 76.4765625 90.86328125 C77.52468613 93.02134094 78.60481185 95.16405569 79.7109375 97.29296875 C80.26007813 98.35128906 80.80921875 99.40960938 81.375 100.5 C81.87773437 101.4590625 82.38046875 102.418125 82.8984375 103.40625 C84 106 84 106 84 110 C23.28 110 -37.44 110 -100 110 C-101.19743342 106.40769973 -100.45782539 105.2512963 -98.85375977 101.96191406 C-98.51014404 101.29385742 -98.16652832 100.62580078 -97.8125 99.9375 C-97.27870728 98.8870752 -97.27870728 98.8870752 -96.73413086 97.81542969 C-85.21195868 75.78824857 -69.04200451 55.60113835 -51.5 38.125 C-50.97631836 37.60152985 -50.45263672 37.07805969 -49.91308594 36.53872681 C-41.18077844 27.84137902 -32.15087963 20.02000591 -22 13 C-21.2668457 12.48598633 -20.53369141 11.97197266 -19.77832031 11.44238281 C-3.44711096 0 -3.44711096 0 0 0 Z " fill="#D7A228" transform="translate(125,33)"/>
<path d="M0 0 C1.55660122 3.96135054 0.352978 7.27470094 -0.75 11.1875 C-5.65830643 29.89578827 -7.3016285 48.7936574 -9 68 C-9.33 68 -9.66 68 -10 68 C-10.85297946 45.17295732 -8.31316707 22.72200925 -1 1 C-0.67 0.67 -0.34 0.34 0 0 Z " fill="#202E36" transform="translate(10,178)"/>
<path d="M0 0 C3.95178181 1.79541583 6.09546047 4.27840546 8.75 7.625 C13.31629564 13.19365322 18.16719472 18.39950514 23.25 23.5 C23.9109668 24.1698291 24.57193359 24.8396582 25.25292969 25.52978516 C29.25742599 29.51122101 33.35225287 32.79821865 38 36 C39.66666667 37.66666667 41.33333333 39.33333333 43 41 C45.95414665 43.39430836 48.96681427 45.70693802 52 48 C47.94710219 48 45.97818531 45.97579889 42.9375 43.5625 C42.41478516 43.16095703 41.89207031 42.75941406 41.35351562 42.34570312 C32.23868059 35.22983072 23.94152832 27.14142723 15.75 19 C14.89148438 18.16210938 14.03296875 17.32421875 13.1484375 16.4609375 C8.0108899 11.35500557 3.72833335 6.21764354 0 0 Z " fill="#2DB2A5" transform="translate(53,405)"/>
<path d="M0 0 C0.66 0 1.32 0 2 0 C2.15855469 1.12792969 2.31710938 2.25585938 2.48046875 3.41796875 C3.95490651 13.48284408 5.87295914 23.30088118 8.46166992 33.14331055 C8.78228394 34.40075073 8.78228394 34.40075073 9.109375 35.68359375 C9.30499023 36.42150146 9.50060547 37.15940918 9.70214844 37.91967773 C10.03338068 40.23314491 9.70937912 41.79113803 9 44 C6.20896265 38.13229283 4.72482949 32.27987802 3.375 25.9375 C3.15626221 24.92486084 2.93752441 23.91222168 2.7121582 22.86889648 C1.12303196 15.23586034 0.1488736 7.80909728 0 0 Z " fill="#1F2E36" transform="translate(1,278)"/>
<path d="M0 0 C2.8125 0.25 2.8125 0.25 6 1 C7.01405257 2.32267727 8.01268258 3.65724831 9 5 C10.63994333 5.72157507 12.28432389 6.43614776 13.95703125 7.078125 C17.24960975 8.56387744 20.11908347 10.64521782 23.08203125 12.6953125 C24.96234808 14.03671496 24.96234808 14.03671496 27 15 C27 15.66 27 16.32 27 17 C21.07324756 15.440838 16.35474122 12.32968978 11.25 9.0625 C9.95642578 8.25522461 9.95642578 8.25522461 8.63671875 7.43164062 C2.25430182 3.38145273 2.25430182 3.38145273 0 0 Z " fill="#21AB9E" transform="translate(105,454)"/>
<path d="M0 0 C2.46671006 0.34023587 3.74885917 0.75890481 5.5625 2.5 C7.65071186 6.1316728 8.79535227 10.00159477 10 14 C6.15483385 10.45061586 2.84877917 6.38711992 0 2 C0 1.34 0 0.68 0 0 Z " fill="#24AB9E" transform="translate(43,391)"/>
<path d="M0 0 C3.16417672 1.53773074 6.2132349 3.22411398 9.25 5 C10.14203125 5.515625 11.0340625 6.03125 11.953125 6.5625 C12.96632812 7.2740625 12.96632812 7.2740625 14 8 C14 8.66 14 9.32 14 10 C8.70686681 8.48767623 3.60422244 6.62509127 0.625 1.75 C0.41875 1.1725 0.2125 0.595 0 0 Z " fill="#16A599" transform="translate(118,461)"/>
<path d="M0 0 C0.66 0.33 1.32 0.66 2 1 C0.21427748 2.83947337 -1.57802449 4.67157741 -3.375 6.5 C-3.88289062 7.02464844 -4.39078125 7.54929687 -4.9140625 8.08984375 C-6.23832604 9.43153181 -7.61605865 10.71995815 -9 12 C-9.66 12 -10.32 12 -11 12 C-9.49650623 8.33213607 -7.36271208 6.31089607 -4.375 3.75 C-3.14910156 2.69039063 -3.14910156 2.69039063 -1.8984375 1.609375 C-1.27195313 1.07828125 -0.64546875 0.5471875 0 0 Z " fill="#2DB2A5" transform="translate(143,459)"/>
</svg>
