<?xml version="1.0" encoding="UTF-8"?>
<svg version="1.1" xmlns="http://www.w3.org/2000/svg" width="300" height="300">
<path d="M0 0 C5.50415941 1.9672661 8.51936885 8.23283189 10.9921875 13.171875 C20.69954071 35.40730447 24.6009381 59.99283066 28.3671875 83.796875 C28.62471802 85.41118408 28.62471802 85.41118408 28.88745117 87.05810547 C30.57326329 98.17549553 30.57326329 98.17549553 30.0546875 103.734375 C28.55859375 105.5390625 28.55859375 105.5390625 26.6171875 106.609375 C23.78530192 108.12821654 23.78530192 108.12821654 22.0546875 110.734375 C21.61684136 115.48533232 22.24952387 117.6278311 25.2421875 121.296875 C31.23377136 129.35033994 36.81790087 141.4075266 35.7421875 151.734375 C35.0546875 153.734375 35.0546875 153.734375 34.0546875 154.734375 C31.98577024 155.0255249 29.90773118 155.25206516 27.828125 155.453125 C27.18174072 155.51569992 26.53535645 155.57827484 25.86938477 155.64274597 C23.72339816 155.84686593 21.57674582 156.0418673 19.4296875 156.234375 C18.69051086 156.30129547 17.95133423 156.36821594 17.1897583 156.43716431 C-28.7884746 160.54454981 -75.94228915 159.8418824 -122.0078125 156.921875 C-123.08836914 156.86402832 -124.16892578 156.80618164 -125.28222656 156.74658203 C-126.25514648 156.6742334 -127.22806641 156.60188477 -128.23046875 156.52734375 C-129.05426025 156.4708667 -129.87805176 156.41438965 -130.72680664 156.35620117 C-133.76159486 155.50557879 -134.96554297 154.16411572 -136.9453125 151.734375 C-138.2980957 149.19506836 -138.2980957 149.19506836 -139.49609375 146.32421875 C-139.9437207 145.26187012 -140.39134766 144.19952148 -140.85253906 143.10498047 C-141.3162793 141.97205566 -141.78001953 140.83913086 -142.2578125 139.671875 C-142.7434668 138.50027832 -143.22912109 137.32868164 -143.72949219 136.12158203 C-172.66774452 65.8141271 -172.66774452 65.8141271 -162.69921875 38.31640625 C-161.9453125 36.734375 -161.9453125 36.734375 -160.9453125 35.734375 C-159.41665002 35.63498944 -157.88345102 35.60357361 -156.3515625 35.6015625 C-154.9284375 35.59962891 -154.9284375 35.59962891 -153.4765625 35.59765625 C-152.47625 35.60152344 -151.4759375 35.60539062 -150.4453125 35.609375 C-149.4759375 35.60550781 -148.5065625 35.60164063 -147.5078125 35.59765625 C-138.21938149 35.6101407 -130.27346833 36.20825559 -121.6328125 39.734375 C-115.35919553 42.22269455 -110.17109594 43.90858391 -103.3828125 44.109375 C-102.24714844 44.15835938 -101.11148438 44.20734375 -99.94140625 44.2578125 C-96.78374341 44.05095775 -96.78374341 44.05095775 -95.16796875 41.4609375 C-94.42838942 39.81165197 -93.70771018 38.15345747 -93.0234375 36.48046875 C-91.9453125 34.734375 -91.9453125 34.734375 -89.9921875 34.01953125 C-84.50023693 33.48714829 -81.92619882 34.24393184 -76.9453125 36.734375 C-70.69076229 37.31813302 -66.15021706 35.1605251 -61.15234375 31.6015625 C-58.8796531 29.67882599 -57.07609526 27.61031175 -55.1328125 25.359375 C-49.00314907 18.93730713 -40.63181193 16.59481212 -32.46728516 13.65307617 C-25.24398204 11.02177998 -18.2857694 8.05260916 -11.4453125 4.546875 C-10.7440625 4.19173828 -10.0428125 3.83660156 -9.3203125 3.47070312 C-7.52694251 2.56194737 -5.73594296 1.64851695 -3.9453125 0.734375 C-1.9453125 -0.265625 -1.9453125 -0.265625 0 0 Z " fill="#60D0E4" transform="translate(207.9453125,84.265625)"/>
<path d="M0 0 C0.81911865 0.1635498 1.6382373 0.32709961 2.48217773 0.49560547 C10.93621383 2.32919606 19.11854918 5.01027474 27.3125 7.75 C27.98269165 7.97355164 28.6528833 8.19710327 29.34338379 8.4274292 C40.64188907 12.21959272 40.64188907 12.21959272 44.25 14.625 C43.64270203 18.51170698 42.43138426 21.93516704 40.96875 25.5625 C40.14070732 27.66786736 40.14070732 27.66786736 40.0234375 30.19140625 C39.25 32.625 39.25 32.625 36.7578125 34.21484375 C35.64148438 34.65957031 34.52515625 35.10429688 33.375 35.5625 C32.75931152 35.80919434 32.14362305 36.05588867 31.50927734 36.31005859 C4.96332471 46.67025388 -28.37284047 56.77525337 -56.75 48.625 C-57.41 48.295 -58.07 47.965 -58.75 47.625 C-60.11551297 35.13308505 -60.11551297 35.13308505 -57.02734375 29.4609375 C-54.73688696 26.67153043 -52.33576458 24.1414302 -49.75 21.625 C-49.13898438 20.94308594 -48.52796875 20.26117188 -47.8984375 19.55859375 C-43.79896186 15.08890114 -39.1025617 11.47887247 -34.25 7.875 C-33.63302246 7.41480469 -33.01604492 6.95460938 -32.38037109 6.48046875 C-21.45871941 -1.43318645 -13.20618483 -2.6658316 0 0 Z " fill="#628A18" transform="translate(119.75,30.375)"/>
<path d="M0 0 C6.91733149 3.81718597 11.50336146 9.48664688 14 16.9765625 C14.8987621 25.41208681 13.95070145 31.98073501 9 38.9765625 C4.52803348 44.00088593 -0.77311458 47.39039965 -7.53515625 48.328125 C-14.71179684 48.71168666 -20.12594294 47.12236808 -26 42.9765625 C-31.50247769 38.0141428 -34.42273583 33.35044872 -35.40625 25.8984375 C-35.64759135 17.73305499 -34.37802109 12.24903341 -29 5.9765625 C-20.91106303 -1.48780495 -10.57437519 -3.60740403 0 0 Z " fill="#FCFDFD" transform="translate(98,134.0234375)"/>
<path d="M0 0 C6.87111616 4.04809944 12.16743038 10.50601793 14.453125 18.125 C15.57063066 26.18345752 14.10714192 32.44291021 9.453125 39.125 C4.99652379 44.14264601 -0.34598569 47.60786925 -7.1171875 48.44140625 C-14.69631632 48.76863883 -20.55796162 47.26025488 -26.5546875 42.546875 C-31.54994564 37.90692811 -34.20975686 33.65631254 -34.859375 26.8515625 C-35.09920723 19.82148013 -35.0779371 13.76674027 -30.546875 8.125 C-22.33916187 -0.49395554 -11.68361314 -4.01400206 0 0 Z " fill="#FCFDFD" transform="translate(174.546875,115.875)"/>
<path d="M0 0 C2.3520681 0.85529749 3.38953751 1.92495001 5.0625 3.75 C6.0525 4.245 6.0525 4.245 7.0625 4.75 C5.7898902 11.15877151 5.7898902 11.15877151 2.68359375 13.68359375 C-21.80838371 25.25342359 -48.36866641 31.99130835 -75.4375 31.8125 C-76.736875 31.80798828 -78.03625 31.80347656 -79.375 31.79882812 C-82.56252001 31.7871093 -85.75001613 31.76917604 -88.9375 31.75 C-91.5775 26.47 -94.2175 21.19 -96.9375 15.75 C-94.81828125 15.98976563 -94.81828125 15.98976563 -92.65625 16.234375 C-76.63523484 17.82295667 -60.64064004 17.31841652 -44.9375 13.75 C-44.19258301 13.58371094 -43.44766602 13.41742188 -42.68017578 13.24609375 C-30.72769652 10.50714242 -11.32599247 -1.46141838 0 0 Z " fill="#E1CAA1" transform="translate(158.9375,66.25)"/>
<path d="M0 0 C7.95707068 -0.44205948 14.41741464 1.24013351 21.5625 4.75 C24 7 24 7 25 10.4375 C25 14.08394882 24.91389884 15.92111926 23 19 C17.62879526 23.29696379 13.25587234 24.13797989 6.53515625 24.03515625 C-6.88644067 24.04346234 -16.1461409 24.73039307 -27 33 C-30.32425862 34.66212931 -33.4513975 34.87918698 -37 34 C-41.25138026 30.85732866 -43.67879774 27.55247761 -44.75 22.375 C-43.80245967 18.11106851 -42.39629945 15.6461965 -39 13 C-35.09426369 10.78048535 -31.09572656 8.84209711 -27 7 C-26.566875 7.474375 -26.13375 7.94875 -25.6875 8.4375 C-22.23858905 11.63093606 -18.08715018 11.33844518 -13.640625 11.2734375 C-9.50934343 10.84564207 -6.20915283 9.67044612 -3 7 C-1.51389775 4.66326683 -0.82523281 2.68200663 0 0 Z " fill="#E1CAA3" transform="translate(142,170)"/>
<path d="M0 0 C0.99 0.33 1.98 0.66 3 1 C-2.78854446 7.91998771 -8.61305832 14.81297191 -14.875 21.3125 C-15.71804687 22.19550781 -16.56109375 23.07851562 -17.4296875 23.98828125 C-21.24482599 26.9742939 -24.40645294 27.15935471 -29.125 26.6875 C-30.07375 26.790625 -31.0225 26.89375 -32 27 C-34.23084477 29.88788641 -34.23084477 29.88788641 -36 33 C-49.37354274 37.45784758 -63.28566174 32.98649091 -75.72753906 27.92382812 C-77.85722073 27.05804434 -79.99686678 26.2314597 -82.1484375 25.421875 C-85.10889691 24.30447817 -88.05803601 23.16497479 -91 22 C-90.195625 21.360625 -89.39125 20.72125 -88.5625 20.0625 C-86.7249496 18.59396498 -86.7249496 18.59396498 -85 17 C-83.12544675 17.00429451 -81.25062682 17.01668116 -79.37670898 17.06567383 C-52.52825185 17.71867904 -24.16105289 12.08052644 0 0 Z " fill="#597D15" transform="translate(158,83)"/>
<path d="M0 0 C0.75214626 8.8795045 -1.48877082 16.59186659 -4 25 C-2.68 23.68 -1.36 22.36 0 21 C0.33 21.99 0.66 22.98 1 24 C5.52048157 20.86077669 7.51545911 17.78504172 10 13 C12 14 12 14 14 17 C14.48210937 16.4225 14.96421875 15.845 15.4609375 15.25 C16.09257812 14.5075 16.72421875 13.765 17.375 13 C18.00148437 12.2575 18.62796875 11.515 19.2734375 10.75 C19.84320313 10.1725 20.41296875 9.595 21 9 C21.66 9 22.32 9 23 9 C22.65381859 16.47751844 21.37209702 22.60856017 15.95703125 28.0546875 C14.01385573 29.76743336 12.04535135 31.41137759 10 33 C10.66 33.66 11.32 34.32 12 35 C9.28328993 39.29415462 9.28328993 39.29415462 7 41 C4.64499431 41.07923384 2.57761169 40.67896227 0.26171875 40.26171875 C-3.52229903 39.8238445 -5.76295853 41.11663042 -9 43 C-11.78246395 45.21712234 -14.41863085 47.55272795 -17 50 C-18.70840281 48.36587557 -19.93453047 47.13093906 -21 45 C-23.31 45 -25.62 45 -28 45 C-28 39.06 -28 33.12 -28 27 C-26.02 27.33 -24.04 27.66 -22 28 C-18.32135086 22.06080693 -16.20337119 16.89203498 -15 10 C-14.01 10 -13.02 10 -12 10 C-10.3751719 8.03485386 -10.3751719 8.03485386 -8.9375 5.5625 C-5.51643192 0 -5.51643192 0 0 0 Z " fill="#E0CAA1" transform="translate(193,2)"/>
<path d="M0 0 C1.24233398 -0.01836914 1.24233398 -0.01836914 2.50976562 -0.03710938 C6.89930534 -0.0476527 10.31813582 0.1293042 14.3125 2.1875 C13.8162037 6.77824074 13.8162037 6.77824074 11.3125 8.8125 C10.6525 9.26625 9.9925 9.72 9.3125 10.1875 C8.9825 11.1775 8.6525 12.1675 8.3125 13.1875 C9.6325 13.8475 10.9525 14.5075 12.3125 15.1875 C11.8175 17.6625 11.8175 17.6625 11.3125 20.1875 C12.3025 20.5175 13.2925 20.8475 14.3125 21.1875 C14.3125 22.1775 14.3125 23.1675 14.3125 24.1875 C11.4375 24.8125 11.4375 24.8125 8.3125 25.1875 C7.6525 24.5275 6.9925 23.8675 6.3125 23.1875 C5.8175 24.6725 5.8175 24.6725 5.3125 26.1875 C0.5625 27.3125 0.5625 27.3125 -1.6875 26.1875 C-1.6875 25.5275 -1.6875 24.8675 -1.6875 24.1875 C-2.6775 24.6825 -2.6775 24.6825 -3.6875 25.1875 C-4.1825 26.6725 -4.1825 26.6725 -4.6875 28.1875 C-7.3275 28.1875 -9.9675 28.1875 -12.6875 28.1875 C-13.1825 26.7025 -13.1825 26.7025 -13.6875 25.1875 C-15.0075 25.5175 -16.3275 25.8475 -17.6875 26.1875 C-17.6875 27.1775 -17.6875 28.1675 -17.6875 29.1875 C-18.6875 30.1875 -18.6875 30.1875 -21.625 30.3125 C-24.6875 30.1875 -24.6875 30.1875 -26.6875 29.1875 C-26.6875 28.1975 -26.6875 27.2075 -26.6875 26.1875 C-28.3375 26.1875 -29.9875 26.1875 -31.6875 26.1875 C-32.0175 27.5075 -32.3475 28.8275 -32.6875 30.1875 C-41.25892857 31.47321429 -41.25892857 31.47321429 -44.6875 30.1875 C-44.3471875 29.0428125 -44.3471875 29.0428125 -44 27.875 C-43.896875 26.988125 -43.79375 26.10125 -43.6875 25.1875 C-45.02128575 23.3520201 -45.02128575 23.3520201 -46.6875 22.1875 C-43.28444745 18.41983468 -41.20897334 17.36355495 -36.20141602 17.01391602 C-34.83521118 16.97802368 -34.83521118 16.97802368 -33.44140625 16.94140625 C-32.43916016 16.90853516 -31.43691406 16.87566406 -30.40429688 16.84179688 C-28.3054454 16.78071575 -26.20648059 16.72340939 -24.10742188 16.66992188 C-22.60211914 16.61868164 -22.60211914 16.61868164 -21.06640625 16.56640625 C-20.1544751 16.5413501 -19.24254395 16.51629395 -18.30297852 16.49047852 C-15.44260574 16.15913131 -13.26497625 15.46252965 -10.6875 14.1875 C-10.3575 13.5275 -10.0275 12.8675 -9.6875 12.1875 C-10.95207031 12.00574219 -10.95207031 12.00574219 -12.2421875 11.8203125 C-13.33789062 11.65273438 -14.43359375 11.48515625 -15.5625 11.3125 C-16.65304688 11.15007812 -17.74359375 10.98765625 -18.8671875 10.8203125 C-21.6875 10.1875 -21.6875 10.1875 -23.6875 8.1875 C-23.625 5.6875 -23.625 5.6875 -22.6875 3.1875 C-16.33470243 -0.66268034 -7.22526764 0.00570266 0 0 Z " fill="#000000" transform="translate(169.6875,250.8125)"/>
<path d="M0 0 C1.10118164 -0.01836914 1.10118164 -0.01836914 2.22460938 -0.03710938 C7.08951004 -0.05005942 11.07118574 0.64466313 15.6875 2.1875 C15.6875 3.5075 15.6875 4.8275 15.6875 6.1875 C3.07968409 10.28608042 -9.67241623 11.58489219 -22.82324219 12.86206055 C-25.43816337 13.12351144 -25.43816337 13.12351144 -28.3125 14.1875 C-28.6425 14.8475 -28.9725 15.5075 -29.3125 16.1875 C-28.69761719 16.17589844 -28.08273438 16.16429687 -27.44921875 16.15234375 C-26.64097656 16.14332031 -25.83273438 16.13429688 -25 16.125 C-23.79923828 16.10759766 -23.79923828 16.10759766 -22.57421875 16.08984375 C-20.3125 16.1875 -20.3125 16.1875 -17.3125 17.1875 C-16.8175 18.6725 -16.8175 18.6725 -16.3125 20.1875 C-18.36483685 22.4352975 -19.31917261 23.1897242 -22.3125 24.1875 C-22.8384375 25.425 -22.8384375 25.425 -23.375 26.6875 C-25.3125 29.1875 -25.3125 29.1875 -27.7265625 29.73828125 C-30.26053849 29.97740293 -32.76816882 30.13499035 -35.3125 30.1875 C-35.3125 28.8675 -35.3125 27.5475 -35.3125 26.1875 C-34.6525 25.8575 -33.9925 25.5275 -33.3125 25.1875 C-34.6325 24.8575 -35.9525 24.5275 -37.3125 24.1875 C-37.3125 25.1775 -37.3125 26.1675 -37.3125 27.1875 C-42.47819441 28.97967969 -45.82303913 29.30779814 -51.3125 28.1875 C-51.3125 27.1975 -51.3125 26.2075 -51.3125 25.1875 C-51.84875 25.538125 -52.385 25.88875 -52.9375 26.25 C-56.06831529 27.48584814 -58.08897716 26.97547225 -61.3125 26.1875 C-61.6425 25.8575 -61.9725 25.5275 -62.3125 25.1875 C-64.64547433 25.14657063 -66.97955225 25.14508277 -69.3125 25.1875 C-69.3125 24.1975 -69.3125 23.2075 -69.3125 22.1875 C-70.3025 21.8575 -71.2925 21.5275 -72.3125 21.1875 C-71.9825 19.8675 -71.6525 18.5475 -71.3125 17.1875 C-70.405 17.043125 -69.4975 16.89875 -68.5625 16.75 C-64.96594927 16.12752007 -61.51642357 15.24063501 -57.984375 14.3203125 C-56.67736915 13.98326469 -55.37005902 13.64739538 -54.0625 13.3125 C-53.35794678 13.13178955 -52.65339355 12.9510791 -51.92749023 12.76489258 C-47.09444557 11.55488595 -42.29386711 10.66299762 -37.375 9.875 C-29.71824471 8.59887412 -22.93095061 5.84170223 -15.859375 2.7109375 C-10.43847559 0.38257762 -5.87305912 0.00507611 0 0 Z M-61.3125 21.1875 C-60.9825 21.8475 -60.6525 22.5075 -60.3125 23.1875 C-59.6525 23.1875 -58.9925 23.1875 -58.3125 23.1875 C-58.3125 22.5275 -58.3125 21.8675 -58.3125 21.1875 C-59.3025 21.1875 -60.2925 21.1875 -61.3125 21.1875 Z " fill="#000000" transform="translate(94.3125,263.8125)"/>
<path d="M0 0 C4.35287595 4.49797181 4.32270407 9.41539448 4.30078125 15.37109375 C3.74317714 22.0985511 1.84055628 28.52518593 0 35 C-1.05316406 34.97679687 -2.10632813 34.95359375 -3.19140625 34.9296875 C-12.99944682 34.7833159 -22.31292071 35.42073816 -32 37 C-33.12668891 33.68612684 -32.90715446 31.97249776 -31.55859375 28.76953125 C-31.22520996 27.97047363 -30.89182617 27.17141602 -30.54833984 26.34814453 C-30.1817627 25.51138184 -29.81518555 24.67461914 -29.4375 23.8125 C-29.06834473 22.95769043 -28.69918945 22.10288086 -28.31884766 21.22216797 C-24.10906881 11.68498602 -19.76490519 3.31048552 -10.0625 -1.4375 C-6.08879177 -2.16736478 -3.71299963 -1.54124513 0 0 Z " fill="#5FCEE2" transform="translate(199,46)"/>
<path d="M0 0 C6.52886835 4.30692248 12.28896381 9.84583981 14.4375 17.5 C15.59698981 25.60175159 12.98182628 30.98284308 8.3125 37.4375 C5.74307655 40.2638658 4.87301972 40.4604073 1 40.8125 C-2.5625 40.5 -2.5625 40.5 -4.16796875 38.9609375 C-6.00043212 35.7271786 -6.67869451 32.40983102 -7.4375 28.8125 C-9.58713907 19.50683939 -13.1690994 12.62407495 -19.5625 5.5 C-18.69612193 2.50705757 -18.17611992 0.8904854 -15.5 -0.8125 C-9.88737537 -2.126093 -5.36625802 -2.25947706 0 0 Z " fill="#E0CAA2" transform="translate(249.5625,192.5)"/>
<path d="M0 0 C4.83526985 3.68732809 7.54482288 9.46323348 10.4375 14.6875 C10.80431885 15.34137695 11.1711377 15.99525391 11.54907227 16.66894531 C14.05638785 21.4010108 14.05638785 21.4010108 13.80395508 24.08251953 C12.78840501 26.50466659 11.91675402 26.96858561 9.578125 28.10546875 C8.88203125 28.44900391 8.1859375 28.79253906 7.46875 29.14648438 C6.37046875 29.66178711 6.37046875 29.66178711 5.25 30.1875 C4.53328125 30.54263672 3.8165625 30.89777344 3.078125 31.26367188 C-0.58556718 33.03827277 -3.92152567 34.46209098 -8 35 C-20.48656982 15.21723974 -20.48656982 15.21723974 -18.48828125 5.515625 C-16.98707584 2.04448338 -15.2500183 0.20350327 -12.3125 -2.1875 C-7.50389937 -3.36696808 -4.29651689 -2.34637993 0 0 Z " fill="#5FCDE1" transform="translate(54,76)"/>
<path d="M0 0 C2.80580357 3.33348388 4.35636486 6.93490708 5.91796875 10.953125 C6.31113029 11.94345734 6.31113029 11.94345734 6.7122345 12.95379639 C7.54304643 15.05032153 8.36537459 17.15005542 9.1875 19.25 C9.75139514 20.67730391 10.31584238 22.10438982 10.88085938 23.53125 C12.26031114 27.0183419 13.63216719 30.50833504 15 34 C11.17320878 38.94848872 7.99896693 41.22639239 2 43 C-1.64721414 43 -3.24316261 42.54059813 -6.1875 40.4375 C-10.29294694 34.9163817 -11.90945636 28.87144807 -11 22 C-9.40453969 13.91633444 -5.88557193 5.88557193 0 0 Z " fill="#E0CAA2" transform="translate(55,204)"/>
<path d="M0 0 C7.95707068 -0.44205948 14.41741464 1.24013351 21.5625 4.75 C24 7 24 7 25 10.4375 C25 14.08394882 24.91389884 15.92111926 23 19 C17.62879526 23.29696379 13.25587234 24.13797989 6.53515625 24.03515625 C-6.88644067 24.04346234 -16.1461409 24.73039307 -27 33 C-30.32425862 34.66212931 -33.4513975 34.87918698 -37 34 C-41.25138026 30.85732866 -43.67879774 27.55247761 -44.75 22.375 C-43.80245967 18.11106851 -42.39629945 15.6461965 -39 13 C-35.09426369 10.78048535 -31.09572656 8.84209711 -27 7 C-26.566875 7.474375 -26.13375 7.94875 -25.6875 8.4375 C-22.23858905 11.63093606 -18.08715018 11.33844518 -13.640625 11.2734375 C-9.50934343 10.84564207 -6.20915283 9.67044612 -3 7 C-1.51389775 4.66326683 -0.82523281 2.68200663 0 0 Z M-0.3125 7.8125 C-0.869375 8.864375 -1.42625 9.91625 -2 11 C-6.56850943 13.90784947 -10.19869918 14.40747508 -15.5625 14.375 C-17.48255859 14.38660156 -17.48255859 14.38660156 -19.44140625 14.3984375 C-23.12312031 13.98621485 -25.03382393 13.15204329 -28 11 C-29.44319692 11.90767102 -30.87934106 12.82656106 -32.3125 13.75 C-33.11300781 14.26046875 -33.91351563 14.7709375 -34.73828125 15.296875 C-37.84169368 17.63381424 -39.70319009 19.68084484 -40.5625 23.5 C-40.18718719 26.28906582 -40.18718719 26.28906582 -37.375 28.375 C-33.39936547 30.2891944 -32.18911805 30.08875593 -28 29 C-24.95356691 27.3427404 -22.10128531 25.48456964 -19.1953125 23.59375 C-11.85927799 19.934701 -2.74087 20.7305397 5.31054688 20.5703125 C10.91110191 20.37536932 15.0501402 19.69750749 20 17 C21.35439668 14.29120665 21.06501451 11.99066732 21 9 C14.64461038 5.16278362 5.25255292 1.0441924 -0.3125 7.8125 Z " fill="#F7FAFA" transform="translate(142,170)"/>
<path d="M0 0 C0.66 0.99 1.32 1.98 2 3 C-5.60262828 11.3628911 -15.80636001 17.29634284 -26 22 C-26.99 22 -27.98 22 -29 22 C-28.80664062 21.46632813 -28.61328125 20.93265625 -28.4140625 20.3828125 C-26.41302552 14.65707301 -25.05915756 8.96866438 -24 3 C-16.72032789 0.27012296 -7.78398161 -1.21534285 0 0 Z " fill="#628A17" transform="translate(229,62)"/>
<path d="M0 0 C4.71122478 1.62620517 9.37413223 3.38093236 14.00683594 5.21850586 C19.32555072 7.26864791 24.09828827 8.4838211 29.79980469 8.81982422 C32.019146 9.00156788 33.9116485 9.21528958 36 10 C36.495 11.485 36.495 11.485 37 13 C35.4435962 14.83850198 34.51979571 15.88954341 32.125 16.3984375 C21.42724116 16.28044751 11.89301283 12.28244932 2.01293945 8.56396484 C-3.90927271 6.35017566 -9.8407817 4.4532987 -16 3 C-16 1.35 -16 -0.3 -16 -2 C-11.42041735 -4.28979132 -4.73837187 -1.38729877 0 0 Z " fill="#000000" transform="translate(75,110)"/>
<path d="M0 0 C1.32 0.66 2.64 1.32 4 2 C3.40689134 5.29826278 2.37813659 7.04203281 0.125 9.5 C-0.50277344 10.18964844 -1.13054687 10.87929687 -1.77734375 11.58984375 C-2.87755859 12.78287109 -2.87755859 12.78287109 -4 14 C-4.86753906 14.97066406 -5.73507813 15.94132812 -6.62890625 16.94140625 C-21.59322281 33.64612646 -21.59322281 33.64612646 -29.94921875 34.98828125 C-33.05913473 35.0060522 -34.72727957 34.05965289 -37 32 C-37.33 31.01 -37.66 30.02 -38 29 C-37.01 27.515 -37.01 27.515 -36 26 C-34.7625 26.391875 -33.525 26.78375 -32.25 27.1875 C-28.64640671 27.56416264 -27.2744033 27.18332148 -24.22265625 25.14453125 C-20.99937102 22.21545192 -17.97944877 19.17383544 -15 16 C-14.37738281 15.34612305 -13.75476563 14.69224609 -13.11328125 14.01855469 C-9.43781755 10.15418242 -5.8035991 6.25490848 -2.20825195 2.31591797 C-1.48683756 1.53021912 -0.75424181 0.75424181 0 0 Z " fill="#000000" transform="translate(164,85)"/>
<path d="M0 0 C2 1.8125 2 1.8125 3.125 4.1875 C3 6.8125 3 6.8125 0.9375 9.4375 C-4.54848147 13.87297438 -8.65896271 15.34003217 -15.65625 15.09765625 C-18.80708374 14.71430481 -20.67409072 13.98835061 -23 11.8125 C-24.125 9.4375 -24.125 9.4375 -24 6.8125 C-18.19683756 -0.8041507 -8.85230116 -3.50403588 0 0 Z " fill="#060809" transform="translate(139,167.1875)"/>
<path d="M0 0 C-3.32835832 2.76465968 -6.93686327 4.45075326 -10.8828125 6.13671875 C-11.53829071 6.42102249 -12.19376892 6.70532623 -12.86911011 6.99824524 C-14.24805834 7.59490217 -15.62813948 8.18894685 -17.00927734 8.78051758 C-19.12769018 9.68865325 -21.2417567 10.60637472 -23.35546875 11.52539062 C-24.69767023 12.10473794 -26.04011005 12.68353345 -27.3828125 13.26171875 C-28.01615509 13.53666672 -28.64949768 13.81161469 -29.30203247 14.09489441 C-33.76901029 16 -33.76901029 16 -36 16 C-34.82024267 13.44385911 -33.53783987 11.36113159 -31.875 9.0625 C-29.95536063 5.92708904 -29.5794819 4.57440384 -30 1 C-20.97188522 -2.00937159 -9.24484155 -2.08754487 0 0 Z " fill="#628A17" transform="translate(200,84)"/>
<path d="M0 0 C3.9036874 3.46994436 6.36588975 7.55224006 9 12 C12.0831351 10.80100302 15.06279492 9.52299523 18 8 C18.2475 8.78375 18.495 9.5675 18.75 10.375 C20.15389099 13.32317108 21.00675737 13.9024777 24 15 C24 15.33 24 15.66 24 16 C-2.28318584 15.14454277 -2.28318584 15.14454277 -10 10 C-9.66960927 6.91635318 -9.02342865 6.02152903 -6.6875 3.875 C-4.49108431 2.34261696 -2.43911093 1.0840493 0 0 Z " fill="#628A18" transform="translate(37,102)"/>
<path d="M0 0 C3.36344489 2.48602449 4.80057749 3.91425523 5.5625 8.0625 C5 11 5 11 3.5 13.375 C-0.24099229 15.80664499 -2.57426418 15.49174842 -7 15 C-9 14 -9 14 -10 12 C-10.75912409 5.16788321 -10.75912409 5.16788321 -8.375 1.5 C-5.23686002 -0.48198314 -3.65126535 -0.67064058 0 0 Z " fill="#090909" transform="translate(88,158)"/>
<path d="M0 0 C2 1 2 1 3 3 C3.75912409 9.83211679 3.75912409 9.83211679 1.375 13.5 C-1.76313998 15.48198314 -3.34873465 15.67064058 -7 15 C-9.9375 12.9375 -9.9375 12.9375 -12 10 C-12 6.48044581 -11.63108355 4.15079941 -9.9375 1.0625 C-6.74097829 -0.69043126 -3.55067826 -0.51780725 0 0 Z " fill="#090909" transform="translate(165,140)"/>
<path d="M0 0 C4.77576339 0.4682121 8.04476345 1.24331998 12 4 C11.875 5.8125 11.875 5.8125 11 8 C6.75700209 10.48355117 2.66631648 11.73585526 -2.125 12.75 C-3.32382812 13.01296875 -4.52265625 13.2759375 -5.7578125 13.546875 C-8.66823704 13.95363313 -10.28921051 13.9980021 -13 13 C-12.39671875 12.56429687 -11.7934375 12.12859375 -11.171875 11.6796875 C-6.45218947 8.16276054 -2.88845042 5.14897684 0 0 Z " fill="#1F1D1B" transform="translate(265,223)"/>
<path d="M0 0 C3 1 3 1 4 3 C4.92157281 9.34568704 3.75009476 13.35611496 0.09375 18.56640625 C-0.2671875 19.03949219 -0.628125 19.51257813 -1 20 C-2.32 19.67 -3.64 19.34 -5 19 C-6.27205816 12.37916719 -5.99411254 8.09515766 -3 2 C-2.01 1.34 -1.02 0.68 0 0 Z " fill="#000000" transform="translate(168,48)"/>
<path d="M0 0 C1.36421031 2.72842061 0.87807211 4.60953318 0.5625 7.625 C0.46066406 8.62789062 0.35882813 9.63078125 0.25390625 10.6640625 C0.17011719 11.43492187 0.08632813 12.20578125 0 13 C-9.59453303 11.25740319 -9.59453303 11.25740319 -13 8 C-12.73828125 6.10546875 -12.73828125 6.10546875 -12 4 C-10.29296875 2.98828125 -10.29296875 2.98828125 -8.1875 2.3125 C-7.15689453 1.96638672 -7.15689453 1.96638672 -6.10546875 1.61328125 C-4.08046446 1.0234377 -2.05055511 0.49305482 0 0 Z " fill="#000000" transform="translate(42,222)"/>
<path d="M0 0 C3.375 0.6875 3.375 0.6875 4.375 1.6875 C4.42062943 6.18656222 4.17345438 9.69548093 1.3125 13.25 C0.673125 13.724375 0.03375 14.19875 -0.625 14.6875 C0.035 11.0575 0.695 7.4275 1.375 3.6875 C-3.92237123 5.80644849 -5.24106812 7.32400889 -8.625 11.6875 C-9.60790968 12.70430311 -10.59834787 13.71488219 -11.625 14.6875 C-11.10746957 9.38281313 -9.49752664 6.08077604 -6.625 1.6875 C-3.625 -0.3125 -3.625 -0.3125 0 0 Z " fill="#0E1E21" transform="translate(191.625,53.3125)"/>
<path d="M0 0 C3.63 0 7.26 0 11 0 C11.36923077 6.4 11.36923077 6.4 9.5 9.4375 C9.005 9.953125 8.51 10.46875 8 11 C5.6875 10.9375 5.6875 10.9375 3 10 C1.11957103 6.49851158 0 3.9919694 0 0 Z " fill="#F7FCFD" transform="translate(133,197)"/>
<path d="M0 0 C1.11445498 2.22890995 1.16480286 3.53055106 1.1875 6 C1.20167969 6.70125 1.21585938 7.4025 1.23046875 8.125 C1 10 1 10 -1 12 C-3.4375 11.9375 -3.4375 11.9375 -6 11 C-7.875 8.625 -7.875 8.625 -9 6 C-8 3 -8 3 -5.0625 1.3125 C-2 0 -2 0 0 0 Z " fill="#F4FBFD" transform="translate(130,198)"/>
<path d="M0 0 C2.3125 0 2.3125 0 5 1 C8.24764949 4.32317622 10.80611786 7.46324785 12 12 C11.71169611 13.34378933 11.38418173 14.68041928 11 16 C10.44570313 15.21753906 9.89140625 14.43507813 9.3203125 13.62890625 C8.59585938 12.61699219 7.87140625 11.60507813 7.125 10.5625 C6.04605469 9.04849609 6.04605469 9.04849609 4.9453125 7.50390625 C3.2440274 4.94203753 3.2440274 4.94203753 1 4 C1.33 7.3 1.66 10.6 2 14 C-1.09419274 10.90580726 -1.42021687 10.47336199 -1.8125 6.4375 C-1.90144531 5.65246094 -1.99039063 4.86742188 -2.08203125 4.05859375 C-2 2 -2 2 0 0 Z " fill="#0A1618" transform="translate(46,83)"/>
</svg>
