<?xml version="1.0" encoding="UTF-8"?>
<svg version="1.1" xmlns="http://www.w3.org/2000/svg" width="128" height="128">
<path d="M0 0 C1.30341591 -0.00087616 1.30341591 -0.00087616 2.63316345 -0.00177002 C5.49039383 0.00100511 8.34656633 0.0320698 11.20361328 0.06347656 C13.19043406 0.07094099 15.17726223 0.07663297 17.16409302 0.08062744 C22.38224775 0.09586784 27.59995404 0.1351361 32.81793213 0.17944336 C38.14695164 0.22043035 43.47604393 0.23864579 48.80517578 0.25878906 C59.253289 0.30163175 69.70107004 0.36986392 80.14892578 0.45410156 C78.71044651 3.42950675 77.20680291 5.77406047 75.02392578 8.26660156 C74.48509766 8.89179688 73.94626953 9.51699219 73.39111328 10.16113281 C67.59422165 16.08931293 61.27534293 20.94470192 54.33642578 25.45410156 C53.54816406 25.97391602 52.75990234 26.49373047 51.94775391 27.02929688 C47.71609362 29.81163955 43.44949677 32.52928138 39.14892578 35.20410156 C25.40494337 43.92543597 13.0203643 54.80186129 8.83642578 71.07910156 C8.60955078 72.19285156 8.38267578 73.30660156 8.14892578 74.45410156 C7.15892578 74.45410156 6.16892578 74.45410156 5.14892578 74.45410156 C-3.46605857 64.69978053 -6.76397892 53.80248274 -9.85107422 41.45410156 C-13.31607422 47.88910156 -13.31607422 47.88910156 -16.85107422 54.45410156 C-17.18107422 54.45410156 -17.51107422 54.45410156 -17.85107422 54.45410156 C-17.92722082 48.13704155 -17.97971454 41.82010018 -18.01586914 35.50268555 C-18.03094337 33.35420305 -18.05140611 31.20575126 -18.07739258 29.05737305 C-18.11383536 25.96688248 -18.1308144 22.87679926 -18.14404297 19.78613281 C-18.15952682 18.82761917 -18.17501068 17.86910553 -18.19096375 16.88154602 C-18.19313764 8.24177344 -18.19313764 8.24177344 -14.85107422 4.45410156 C-9.80971622 0.31704779 -6.23814989 -0.11066692 0 0 Z " fill="#3A83FB" transform="translate(27.85107421875,-0.4541015625)"/>
<path d="M0 0 C0.66 0 1.32 0 2 0 C3.42468651 6.03064944 3.22344367 12.12134045 3.24023438 18.2800293 C3.24983023 20.39999322 3.28083636 22.51893957 3.3125 24.63867188 C3.49126893 47.37738189 -4.00023738 67.95014794 -19.6171875 84.65234375 C-31.71873166 96.57534054 -48.55198528 107.38778896 -66 108 C-66.23460937 108.66386719 -66.46921875 109.32773438 -66.7109375 110.01171875 C-68.35813973 113.83023301 -70.45617813 117.27122053 -72.625 120.8125 C-73.04523438 121.50537109 -73.46546875 122.19824219 -73.8984375 122.91210938 C-74.9289467 124.61010748 -75.96401681 126.30533614 -77 128 C-78.98 127.67 -80.96 127.34 -83 127 C-83 122.71 -83 118.42 -83 114 C-84.65 113.34 -86.3 112.68 -88 112 C-95.6429771 105.95207899 -101.91953243 97.65527115 -104 88 C-104.83684705 76.36782594 -104.35431804 65.60305798 -99 55 C-97.515 54.505 -97.515 54.505 -96 54 C-95.79375 55.11375 -95.5875 56.2275 -95.375 57.375 C-93.2859764 65.53077709 -88.29194314 71.79140008 -82.875 78.0625 C-76.8720847 85.0736741 -73.23113221 91.13646567 -73.59765625 100.578125 C-74.14248911 103.85770141 -75.4047272 106.37731371 -77.0390625 109.24609375 C-78.25398592 111.46357593 -78.77828242 113.48720075 -79 116 C-78.505 116.99 -78.505 116.99 -78 118 C-77.58492187 117.20078125 -77.16984375 116.4015625 -76.7421875 115.578125 C-71.33818415 105.94588472 -64.61089556 99.78596368 -56 93 C-28.86590147 71.21760948 -9.0331445 33.10752496 0 0 Z M-85 83 C-84 85 -84 85 -84 85 Z M-84 85 C-83 87 -83 87 -83 87 Z M-83 87 C-82.86722656 87.64066406 -82.73445313 88.28132813 -82.59765625 88.94140625 C-81.57506994 93.94983993 -80.66115853 98.93111794 -80 104 C-79.67 104 -79.34 104 -79 104 C-78.53839362 95.09018098 -78.53839362 95.09018098 -82 87 C-82.33 87 -82.66 87 -83 87 Z " fill="#6DA3E6" transform="translate(114,0)"/>
<path d="M0 0 C0.66 0 1.32 0 2 0 C1.33435458 4.2861071 -0.13089262 8.05800951 -1.875 12 C-2.32758179 13.02528809 -2.32758179 13.02528809 -2.78930664 14.07128906 C-9.03311531 27.93819105 -15.96137346 41.73207211 -25 54 C-25.38559082 54.53077148 -25.77118164 55.06154297 -26.16845703 55.60839844 C-35.33232194 68.12718204 -46.64823241 81.810491 -60 90 C-60.66 90 -61.32 90 -62 90 C-66.29575926 77.0586875 -67.32010802 65.99623423 -61.75 53.125 C-53.83320433 38.59824814 -39.9868543 29.81950873 -26.26171875 21.39404297 C-10.81540612 12.89291485 -10.81540612 12.89291485 0 0 Z " fill="#6DA3E6" transform="translate(105,11)"/>
</svg>
