<?xml version="1.0" encoding="UTF-8"?>
<svg version="1.1" xmlns="http://www.w3.org/2000/svg" width="752" height="897">
<path d="M0 0 C0.66 0.33 1.32 0.66 2 1 C2.69848633 3.62817383 2.69848633 3.62817383 3.33203125 7.20703125 C3.44888779 7.86230804 3.56574432 8.51758484 3.68614197 9.19271851 C4.07354818 11.39743211 4.44451861 13.60446493 4.8125 15.8125 C4.94217163 16.57841461 5.07184326 17.34432922 5.20544434 18.13345337 C8.65492116 38.65172027 10.97515587 59.2984467 13 80 C13.07003235 80.69710083 13.1400647 81.39420166 13.21221924 82.11242676 C21.50145164 164.9215203 12.55963742 250.83919046 -116.6875 548.875 C-118.11968188 550.58779423 -119.55736563 552.29600026 -121 554 C-121.86903855 555.04251137 -122.73749848 556.08550528 -123.60546875 557.12890625 C-129.0433684 563.64026644 -134.64059976 569.97261868 -140.41015625 576.19140625 C-142.6667047 578.63855306 -144.8680091 581.12251038 -147.0625 583.625 C-151.56498419 588.64135467 -156.30475907 593.41383075 -161.0625 598.1875 C-161.81861572 598.94820801 -162.57473145 599.70891602 -163.35375977 600.49267578 C-167.51442485 604.64202364 -171.76262954 608.62244319 -176.21557617 612.45629883 C-178.57350017 614.49613375 -180.84490685 616.62386813 -183.125 618.75 C-188.3328468 623.49875287 -193.77699603 627.85233192 -199.3515625 632.16015625 C-201.77063768 634.03096799 -204.15852474 635.93228548 -206.5234375 637.87109375 C-270.42537624 690.18310351 -348.74902444 725.33408419 -468 757 C-468.40375854 758.08148315 -468.40375854 758.08148315 -468.81567383 759.18481445 C-469.99547607 761.98924647 -471.3647518 764.44796128 -472.94921875 767.04296875 C-473.54226807 768.02080322 -474.13531738 768.9986377 -474.74633789 770.00610352 C-475.38692139 771.05596436 -476.02750488 772.1058252 -476.6875 773.1875 C-478.05650935 775.44944938 -479.42425379 777.71208373 -480.7890625 779.9765625 C-481.13902786 780.55706863 -481.48899323 781.13757477 -481.8495636 781.735672 C-485.49674862 787.80064852 -489.03760067 793.92575814 -492.5625 800.0625 C-493.49509644 801.68551025 -493.49509644 801.68551025 -494.4465332 803.34130859 C-495.69147446 805.50809883 -496.93634827 807.67492783 -498.18115234 809.84179688 C-502.79551402 817.854063 -507.46853276 825.83229406 -512.13720703 833.81298828 C-513.76627198 836.60011984 -515.39247221 839.38890103 -517.01754761 842.17835999 C-524.34537898 854.7532606 -531.72268609 867.29760944 -539.24691772 879.75622559 C-539.99296265 880.99211919 -540.73763554 882.22884217 -541.48086548 883.46643066 C-542.51140415 885.18084542 -543.54852525 886.89129827 -544.5859375 888.6015625 C-545.1742334 889.57432129 -545.7625293 890.54708008 -546.36865234 891.54931641 C-549.04997475 895.57731915 -549.04997475 895.57731915 -551 897 C-553.14135742 897.12866211 -553.14135742 897.12866211 -555.60546875 896.77734375 C-556.95801758 896.58688477 -556.95801758 896.58688477 -558.33789062 896.39257812 C-559.74844727 896.16731445 -559.74844727 896.16731445 -561.1875 895.9375 C-562.10853516 895.81439453 -563.02957031 895.69128906 -563.97851562 895.56445312 C-569.88417246 894.68007158 -576.58902484 893.41097516 -581 889 C-580.67335715 881.34968053 -577.70392927 875.85311564 -574.0625 869.2421875 C-573.65773438 868.45328125 -573.25296875 867.664375 -572.8359375 866.8515625 C-572.46001465 866.15885254 -572.0840918 865.46614258 -571.69677734 864.75244141 C-569.71579916 856.92709171 -572.72198023 847.91564204 -574.43359375 840.2265625 C-574.79059105 838.59731339 -574.79059105 838.59731339 -575.15480042 836.93515015 C-575.65549535 834.65715879 -576.15903071 832.37979006 -576.6652832 830.10302734 C-577.43948992 826.6160375 -578.20176385 823.12658423 -578.96289062 819.63671875 C-579.45241621 817.41651027 -579.94262647 815.19645262 -580.43359375 812.9765625 C-580.6607457 811.93488922 -580.88789764 810.89321594 -581.12193298 809.81997681 C-581.3387825 808.85151825 -581.55563202 807.88305969 -581.77905273 806.88525391 C-581.96700912 806.03605377 -582.15496552 805.18685364 -582.34861755 804.31192017 C-583.56607324 799.99086368 -584.87385612 797.72734514 -588.75390625 795.44140625 C-589.8996814 794.74869629 -589.8996814 794.74869629 -591.06860352 794.04199219 C-591.89158936 793.55375977 -592.7145752 793.06552734 -593.5625 792.5625 C-603.22935818 786.65073476 -612.13228129 780.03618444 -621 773 C-622.45019531 771.87078125 -622.45019531 771.87078125 -623.9296875 770.71875 C-629.01589631 766.72583841 -633.85316932 762.51085562 -638.62890625 758.15234375 C-640.74503111 756.23144623 -642.89309269 754.36010568 -645.0625 752.5 C-652.2716161 746.20655792 -658.85495462 739.32723506 -665 732 C-665.4429541 731.48147461 -665.8859082 730.96294922 -666.34228516 730.42871094 C-705.16185088 684.85293761 -729.92785875 625.25193649 -730.203125 564.96484375 C-730.21013931 563.93645889 -730.21715363 562.90807404 -730.22438049 561.848526 C-730.24180595 558.54480573 -730.24823351 555.24126455 -730.25 551.9375 C-730.25067474 550.81029541 -730.25134949 549.68309082 -730.25204468 548.52172852 C-730.23673046 532.45410826 -729.86826019 516.84678774 -727 501 C-726.82839355 499.97793457 -726.65678711 498.95586914 -726.47998047 497.90283203 C-719.77400392 458.10444929 -706.96309717 419.17852366 -687 384 C-686.34 384 -685.68 384 -685 384 C-684.91024902 384.54188965 -684.82049805 385.0837793 -684.72802734 385.64208984 C-679.42579687 416.99986382 -666.89308624 443.73200852 -649 470 C-648.54383301 470.67063477 -648.08766602 471.34126953 -647.61767578 472.03222656 C-644.8336725 476.08888648 -641.94994544 480.06272141 -639 484 C-638.51208984 484.65242676 -638.02417969 485.30485352 -637.52148438 485.97705078 C-630.04122 495.94219749 -622.28540713 505.66381497 -614.38818359 515.30029297 C-611.94452472 518.29233536 -609.54318117 521.31789199 -607.13671875 524.33984375 C-605.46222496 526.4245426 -603.77685912 528.49831593 -602.08203125 530.56640625 C-595.23638926 538.92705884 -588.56275856 547.39346558 -582.0390625 556.0078125 C-580.22577979 558.40107487 -578.39165644 560.76570688 -576.5234375 563.1171875 C-564.24003216 578.60495945 -553.01012557 595.38734978 -544 613 C-543.62294922 613.73492676 -543.24589844 614.46985352 -542.85742188 615.22705078 C-525.3333656 649.80602674 -519.29611926 687.1901605 -531.4375 724.625 C-538.44242401 744.86554358 -549.36966372 765.6466391 -564.18359375 781.30859375 C-567.89083009 785.2719387 -567.89083009 785.2719387 -569.01733398 790.38769531 C-567.12780432 800.14067747 -564.52197868 809.68072076 -561.875 819.25 C-561.40179985 820.97771571 -560.92913955 822.70557937 -560.45703125 824.43359375 C-559.31089799 828.62412584 -558.15749955 832.81259391 -557 837 C-554.52825487 833.99506883 -552.29732529 831.02374217 -550.3359375 827.6640625 C-549.85253906 826.84550781 -549.36914062 826.02695312 -548.87109375 825.18359375 C-547.89669096 823.51718689 -546.92271107 821.85053266 -545.94921875 820.18359375 C-541.69250408 812.97734451 -537.07590213 806.04781952 -532.40936279 799.10443115 C-528.31162074 792.98576811 -524.27352454 786.82714384 -520.22363281 780.67675781 C-519.16225105 779.06555825 -518.10008287 777.45487645 -517.03710938 775.84472656 C-511.1385403 766.90959449 -505.28136389 757.94841934 -499.5234375 748.921875 C-499.04178131 748.17391663 -498.56012512 747.42595825 -498.06387329 746.65533447 C-491.68621578 737.78396006 -491.68621578 737.78396006 -489.22389221 727.77732849 C-489.97193467 725.42295144 -490.97704117 723.24917387 -492 721 C-492.89577448 718.56059867 -493.77318128 716.11861919 -494.63671875 713.66796875 C-495.13182203 712.29283322 -495.62777649 710.9180039 -496.12451172 709.54345703 C-510.49426887 669.58008616 -522.0081466 627.73594443 -523 585 C-523.02046387 584.21383301 -523.04092773 583.42766602 -523.06201172 582.61767578 C-524.47498523 520.85555257 -506.26255781 461.49779994 -469 412 C-468.60103516 411.46358887 -468.20207031 410.92717773 -467.79101562 410.37451172 C-455.23042908 393.51076126 -441.07158243 378.01434192 -426.25 363.125 C-425.55302002 362.42334717 -424.85604004 361.72169434 -424.13793945 360.9987793 C-420.14860021 357.02173385 -416.05626569 353.22428316 -411.79052734 349.54541016 C-409.55151022 347.61290696 -407.37035784 345.62053729 -405.1875 343.625 C-400.92254692 339.78071755 -396.5513915 336.10473095 -392.0859375 332.49609375 C-389.85060183 330.68801844 -387.62811795 328.86887237 -385.4140625 327.03515625 C-375.22381836 318.62522902 -364.69634616 310.75193298 -354 303 C-352.49857762 301.90641514 -350.99727317 300.81266835 -349.49609375 299.71875 C-331.30343447 286.49220147 -312.80819545 273.77174084 -294 261.4375 C-292.14045598 260.21444966 -290.28108073 258.99114266 -288.421875 257.76757812 C-273.61537613 248.02974828 -258.76239548 238.36364857 -243.875 228.75 C-187.97778893 192.60992092 -131.5401639 156.08223139 -82.67919922 110.56152344 C-80.77187667 108.78786321 -78.85637708 107.02321112 -76.94140625 105.2578125 C-75.523071 103.94310362 -74.10509945 102.62800224 -72.6875 101.3125 C-72.02959473 100.70688232 -71.37168945 100.10126465 -70.69384766 99.47729492 C-66.74895644 95.79908514 -63.12463014 91.96737542 -59.61450195 87.87280273 C-57.39988389 85.30387258 -55.07212421 82.8467089 -52.75 80.375 C-46.75640806 73.88832998 -41.32149258 67.04299453 -36 60 C-35.24614014 59.01483398 -35.24614014 59.01483398 -34.47705078 58.00976562 C-21.7202949 41.26577816 -10.92487092 23.20598811 -2.35546875 3.97265625 C-1 1 -1 1 0 0 Z M-232 284 C-234.85012536 285.28794854 -237.56314604 286.64436776 -240.3125 288.125 C-241.15337158 288.57367432 -241.99424316 289.02234863 -242.8605957 289.48461914 C-258.52320999 297.96522492 -273.51963497 307.64067881 -288 318 C-288.74459473 318.53206055 -289.48918945 319.06412109 -290.25634766 319.61230469 C-301.88818187 327.96447734 -313.06274242 336.76070192 -324 346 C-324.91773193 346.76908691 -324.91773193 346.76908691 -325.85400391 347.55371094 C-340.07584855 359.47570451 -353.36627673 372.27648166 -366.5 385.375 C-367.06666382 385.93898499 -367.63332764 386.50296997 -368.21716309 387.08404541 C-374.36356625 393.2083969 -380.3928968 399.37071032 -386 406 C-386.94881113 407.08353076 -387.89928294 408.16561 -388.8515625 409.24609375 C-411.66010118 435.39375694 -431.01532132 464.22757727 -447 495 C-447.38140137 495.73395996 -447.76280273 496.46791992 -448.15576172 497.22412109 C-473.06108826 545.87505173 -481.32197324 601.26006374 -466 654 C-464.74392546 657.69768932 -463.40624888 661.35694492 -462 665 C-461.67 665 -461.34 665 -461 665 C-460.97812622 663.84721558 -460.97812622 663.84721558 -460.95581055 662.67114258 C-460.61701909 646.60428681 -460.03038727 630.8224779 -457 615 C-456.81872559 614.0419043 -456.63745117 613.08380859 -456.45068359 612.09667969 C-450.84026614 583.42325826 -440.49634306 556.32741478 -428 530 C-427.57895996 529.1042627 -427.15791992 528.20852539 -426.72412109 527.28564453 C-419.98799761 513.04564769 -412.11506943 499.49170024 -404 486 C-403.55156738 485.25266602 -403.10313477 484.50533203 -402.64111328 483.73535156 C-388.14149321 459.70543778 -371.56638692 436.87021224 -354 415 C-353.49114258 414.36497559 -352.98228516 413.72995117 -352.45800781 413.07568359 C-342.63238353 400.83397115 -332.55076608 388.83952709 -322 377.21484375 C-320.20396471 375.22587498 -318.44046697 373.21436806 -316.6875 371.1875 C-309.50061759 362.95009881 -302.08597961 354.89760501 -294.23046875 347.29296875 C-292.33683797 345.34627651 -290.56782123 343.36108147 -288.796875 341.3046875 C-284.75024169 336.64605835 -280.4354212 332.28827983 -276.0625 327.9375 C-275.30259766 327.17373047 -274.54269531 326.40996094 -273.75976562 325.62304688 C-269.58196095 321.45237765 -265.31052219 317.47061219 -260.83764648 313.61938477 C-258.0959808 311.20335335 -255.54980756 308.61523168 -253 306 C-248.50156014 301.44579728 -243.87304477 297.15327369 -239 293 C-237.33029502 291.52426389 -235.66366069 290.04504677 -234 288.5625 C-232.8553125 287.54349609 -232.8553125 287.54349609 -231.6875 286.50390625 C-231.130625 286.00761719 -230.57375 285.51132812 -230 285 C-230.99 284.505 -230.99 284.505 -232 284 Z M-620 550 C-618.53806045 553.85001071 -616.78975841 557.44902963 -614.875 561.09375 C-614.24941759 562.2898659 -613.62401807 563.48607748 -612.9987793 564.68237305 C-612.67259613 565.30477875 -612.34641296 565.92718445 -612.01034546 566.56845093 C-582.73552452 622.53520243 -555.31173313 688.02831034 -572 752 C-568.52281999 748.86356814 -566.24647409 745.40859086 -564.0625 741.3125 C-563.54417603 740.34195679 -563.54417603 740.34195679 -563.01538086 739.35180664 C-550.70661983 715.27693814 -550.95514615 684.63139165 -558 659 C-558.20898926 658.19626953 -558.41797852 657.39253906 -558.63330078 656.56445312 C-568.8629533 617.54618299 -590.54411657 578.72058932 -619 550 C-619.33 550 -619.66 550 -620 550 Z " fill="#16531E" transform="translate(730,0)"/>
</svg>
