<?xml version="1.0" encoding="UTF-8"?>
<svg version="1.1" xmlns="http://www.w3.org/2000/svg" width="450" height="600">
<path d="M0 0 C3.50424302 1.40169721 5.83817606 2.39581008 8.81665039 4.42895508 C9.5369191 4.91697098 10.25718781 5.40498688 10.99928284 5.90779114 C12.16172768 6.70560249 12.16172768 6.70560249 13.34765625 7.51953125 C14.17470566 8.08109421 15.00175507 8.64265717 15.85386658 9.22123718 C17.64891374 10.44033828 19.44260943 11.66143117 21.23510742 12.88427734 C26.09839436 16.20093741 30.97281729 19.50113275 35.84765625 22.80078125 C36.85599518 23.48355133 37.86433411 24.16632141 38.90322876 24.86978149 C49.20935226 31.83732041 59.59878005 38.67560464 70 45.5 C84.82134487 55.22960048 99.56640493 65.06374495 114.25 75 C126.43126353 83.24100557 138.62924663 91.44960748 150.9375 99.5 C151.56341034 99.90943848 152.18932068 100.31887695 152.834198 100.74072266 C155.42794149 102.4368856 158.02213247 104.13236187 160.61677551 105.82714844 C169.86086069 111.86622385 179.08931699 117.9290593 188.3125 124 C189.24279022 124.61230469 190.17308044 125.22460938 191.13156128 125.85546875 C205.88283037 135.57073206 220.54748302 145.40880522 235.17422485 155.31030273 C248.71688993 164.47545188 262.33105265 173.52438837 276 182.5 C291.47006483 192.6583019 306.85193641 202.93724019 322.17724609 213.3125 C335.71891935 222.47689218 349.3321591 231.52497481 363 240.5 C379.78479962 251.52224736 396.47461684 262.67755005 413.10351562 273.93359375 C413.93267487 274.49450714 414.76183411 275.05542053 415.61611938 275.6333313 C417.24967817 276.73961449 418.88200838 277.84771424 420.51303101 278.95773315 C424.94646349 281.96797178 429.41001625 284.91997685 433.91845703 287.81689453 C434.89287247 288.44878189 435.8672879 289.08066925 436.87123108 289.73170471 C438.75814166 290.95309925 440.65233498 292.16333323 442.5544281 293.36094666 C443.39828568 293.9096492 444.24214325 294.45835175 445.11157227 295.02368164 C445.8636647 295.50293594 446.61575714 295.98219025 447.39064026 296.47596741 C448.18727333 297.23036354 448.18727333 297.23036354 449 298 C449 302 449 302 447.61894226 303.38682556 C446.9669838 303.80565506 446.31502533 304.22448456 445.64331055 304.65600586 C444.89945602 305.1438707 444.1556015 305.63173553 443.38920593 306.13438416 C442.56338516 306.65593582 441.73756439 307.17748749 440.88671875 307.71484375 C439.59813713 308.55294334 439.59813713 308.55294334 438.28352356 309.40797424 C436.41217636 310.62309701 434.536707 311.83188897 432.65771484 313.03515625 C428.62253938 315.619579 424.60714753 318.2340006 420.59072876 320.84744263 C418.50133126 322.20688254 416.41096346 323.56483222 414.31967163 324.9213562 C404.8473592 331.07259716 395.47930405 337.37079724 386.13394165 343.712677 C369.92259422 354.71326773 353.61596743 365.55917723 337.23974609 376.3125 C323.59247662 385.27704863 310.02102213 394.34624583 296.5 403.5 C281.15557842 413.8881986 265.7289709 424.14161684 250.23974609 434.3125 C236.59247662 443.27704863 223.02102213 452.34624583 209.5 461.5 C194.15557842 471.8881986 178.7289709 482.14161684 163.23974609 492.3125 C149.59247662 501.27704863 136.02102213 510.34624583 122.5 519.5 C108.0672657 529.27098481 93.56898733 538.93336561 79 548.5 C61.08236451 560.26556387 43.27880701 572.19257511 25.52661133 584.20614624 C23.11995003 585.83451597 20.71239846 587.46156176 18.3046875 589.08837891 C15.59724444 590.91774243 12.89424104 592.75331795 10.1953125 594.59521484 C8.56722656 595.69857178 8.56722656 595.69857178 6.90625 596.82421875 C5.99166016 597.44772217 5.07707031 598.07122559 4.13476562 598.71362305 C2 600 2 600 0 600 C0 402 0 204 0 0 Z M220.52978516 153.2019043 C219.78600616 153.69007126 219.04222717 154.17823822 218.27590942 154.68119812 C217.0449202 155.49449333 217.0449202 155.49449333 215.7890625 156.32421875 C214.93142303 156.8886116 214.07378357 157.45300446 213.19015503 158.03450012 C210.33331493 159.91613589 207.47903719 161.80161594 204.625 163.6875 C203.64039795 164.33702637 202.6557959 164.98655273 201.64135742 165.65576172 C186.3055351 175.77406385 171.04888803 186.00511393 155.83428955 196.30453491 C141.37704859 206.08863682 126.83173984 215.73077688 112.23974609 225.3125 C97.70472609 234.86018966 83.26151281 244.53562672 68.86203003 254.28631592 C52.60028497 265.29442307 36.22794882 276.12898833 19.80859375 286.90039062 C18.9114415 287.48944183 18.01428925 288.07849304 17.08995056 288.68539429 C15.41545384 289.78449426 13.74017972 290.88241115 12.0639801 291.97891235 C11.3204277 292.46685272 10.57687531 292.95479309 9.81079102 293.45751953 C9.167715 293.87856964 8.52463898 294.29961975 7.86207581 294.73342896 C4.86079225 296.77211333 4.86079225 296.77211333 2 299 C2 299.66 2 300.32 2 301 C3.43223957 302.23416062 3.43223957 302.23416062 5.35668945 303.42895508 C6.10054398 303.91697098 6.8443985 304.40498688 7.61079407 304.90779114 C8.84952522 305.70560249 8.84952522 305.70560249 10.11328125 306.51953125 C10.97233566 307.08109421 11.83139008 307.64265717 12.71647644 308.22123718 C14.58984668 309.44516267 16.46521214 310.66603822 18.34228516 311.88427734 C23.41110747 315.17488713 28.46475813 318.48864683 33.51953125 321.80078125 C34.5625943 322.48355133 35.60565735 323.16632141 36.68032837 323.86978149 C47.02059985 330.64801866 57.26576757 337.56314716 67.5 344.5 C81.93125982 354.27312587 96.43104016 363.93340192 111 373.5 C125.56899996 383.06662442 140.06707433 392.72929283 154.5 402.5 C169.72713558 412.80720394 185.01973292 423.00958929 200.375 433.125 C201.3338208 433.75704346 202.2926416 434.38908691 203.28051758 435.0402832 C205.9855042 436.82263148 208.69165456 438.60319366 211.3984375 440.3828125 C212.19845184 440.90952545 212.99846619 441.4362384 213.82272339 441.97891235 C214.93793869 442.71082291 214.93793869 442.71082291 216.07568359 443.45751953 C216.716539 443.87856964 217.35739441 444.29961975 218.01766968 444.73342896 C220.31613641 446.20198915 222.66113112 447.59667867 225 449 C225 350.66 225 252.32 225 151 C223.24433661 151 221.9630618 152.25840141 220.52978516 153.2019043 Z " fill="#727272" transform="translate(0,0)"/>
<path d="M0 0 C6.75688974 4.29983893 13.49834836 8.60604519 20.1875 13.0078125 C21.03098999 13.56230072 21.87447998 14.11678894 22.74353027 14.68807983 C25.49658282 16.4990297 28.24844666 18.31177315 31 20.125 C31.95962646 20.75704346 32.91925293 21.38908691 33.90795898 22.0402832 C49.0641786 32.02753932 64.1379323 42.13128734 79.16845703 52.30645752 C92.71305524 61.47288222 106.32929585 70.52284933 120 79.5 C136.45378414 90.30595708 152.82074248 101.23228421 169.11254883 112.28100586 C178.15426257 118.40880486 187.22666017 124.48131815 196.3671875 130.4609375 C198.2035245 131.66683702 200.03970888 132.87296899 201.87573242 134.0793457 C204.51035463 135.81040307 207.14747114 137.53663744 209.7953186 139.24740601 C212.19844188 140.80010716 214.59027729 142.36889916 216.98046875 143.94140625 C217.69689545 144.39732147 218.41332214 144.85323669 219.15145874 145.32296753 C221.10229492 146.61938477 221.10229492 146.61938477 224 149 C224 153 224 153 222.61894226 154.38682556 C221.9669838 154.80565506 221.31502533 155.22448456 220.64331055 155.65600586 C219.89945602 156.1438707 219.1556015 156.63173553 218.38920593 157.13438416 C217.56338516 157.65593582 216.73756439 158.17748749 215.88671875 158.71484375 C215.02766434 159.27357681 214.16860992 159.83230988 213.28352356 160.40797424 C211.41217636 161.62309701 209.536707 162.83188897 207.65771484 164.03515625 C203.62253938 166.619579 199.60714753 169.2340006 195.59072876 171.84744263 C193.50133126 173.20688254 191.41096346 174.56483222 189.31967163 175.9213562 C179.8473592 182.07259716 170.47930405 188.37079724 161.13394165 194.712677 C144.92259422 205.71326773 128.61596743 216.55917723 112.23974609 227.3125 C97.70472609 236.86018966 83.26151281 246.53562672 68.86203003 256.28631592 C52.60028497 267.29442307 36.22794882 278.12898833 19.80859375 288.90039062 C18.9114415 289.48944183 18.01428925 290.07849304 17.08995056 290.68539429 C15.41545384 291.78449426 13.74017972 292.88241115 12.0639801 293.97891235 C11.3204277 294.46685272 10.57687531 294.95479309 9.81079102 295.45751953 C9.167715 295.87856964 8.52463898 296.29961975 7.86207581 296.73342896 C6.50171396 297.65873765 5.18092996 298.64299444 3.88682556 299.65890503 C2 301 2 301 0 301 C0 201.67 0 102.34 0 0 Z " fill="#F1670C" transform="translate(225,149)"/>
<path d="M0 0 C3.50424302 1.40169721 5.83817606 2.39581008 8.81665039 4.42895508 C9.5369191 4.91697098 10.25718781 5.40498688 10.99928284 5.90779114 C12.16172768 6.70560249 12.16172768 6.70560249 13.34765625 7.51953125 C14.17470566 8.08109421 15.00175507 8.64265717 15.85386658 9.22123718 C17.64891374 10.44033828 19.44260943 11.66143117 21.23510742 12.88427734 C26.09839436 16.20093741 30.97281729 19.50113275 35.84765625 22.80078125 C36.85599518 23.48355133 37.86433411 24.16632141 38.90322876 24.86978149 C49.20935226 31.83732041 59.59878005 38.67560464 70 45.5 C84.82134487 55.22960048 99.56640493 65.06374495 114.25 75 C126.43126299 83.24100521 138.62922025 91.44964772 150.9375 99.5 C151.55377258 99.90312408 152.17004517 100.30624817 152.80499268 100.72158813 C155.36467066 102.3954162 157.92479091 104.06856561 160.48535156 105.74104309 C169.39675162 111.56281105 178.29428119 117.40566807 187.18704224 123.25585938 C189.11492738 124.52340015 191.04351378 125.78987511 192.97286987 127.05517578 C203.80703211 134.16055802 214.53854545 141.35407846 225 149 C223.87649315 152.37052055 223.38326247 152.69333942 220.52978516 154.54248047 C219.78600616 155.03042084 219.04222717 155.51836121 218.27590942 156.02108765 C217.45524994 156.5478006 216.63459045 157.07451355 215.7890625 157.6171875 C214.93142303 158.17733551 214.07378357 158.73748352 213.19015503 159.31460571 C211.32311362 160.53310006 209.45371153 161.74798297 207.58227539 162.9597168 C202.52549226 166.23474889 197.48638574 169.53679646 192.4453125 172.8359375 C190.88535553 173.85545502 190.88535553 173.85545502 189.29388428 174.89556885 C178.95843035 181.65970798 168.72389226 188.56889683 158.5 195.5 C143.15738384 205.89082412 127.72892865 216.14164458 112.23974609 226.3125 C97.70472609 235.86018966 83.26151281 245.53562672 68.86203003 255.28631592 C52.60028497 266.29442307 36.22794882 277.12898833 19.80859375 287.90039062 C18.9114415 288.48944183 18.01428925 289.07849304 17.08995056 289.68539429 C15.41545384 290.78449426 13.74017972 291.88241115 12.0639801 292.97891235 C11.3204277 293.46685272 10.57687531 293.95479309 9.81079102 294.45751953 C9.167715 294.87856964 8.52463898 295.29961975 7.86207581 295.73342896 C6.50171396 296.65873765 5.18092996 297.64299444 3.88682556 298.65890503 C2 300 2 300 0 300 C0 201 0 102 0 0 Z " fill="#201E1F" transform="translate(0,0)"/>
</svg>
