<?xml version="1.0" encoding="UTF-8"?>
<svg version="1.1" xmlns="http://www.w3.org/2000/svg" width="512" height="512">
<path d="M0 0 C13.86 0 27.72 0 42 0 C49.92398628 20.50914097 57.79505931 41.03278739 65.5 61.625 C65.8662146 62.60366028 66.2324292 63.58232056 66.60974121 64.59063721 C67.16788513 66.08225372 67.16788513 66.08225372 67.73730469 67.60400391 C68.50974601 69.66830161 69.28220729 71.73259185 70.0546875 73.796875 C70.44624023 74.84326141 70.83779297 75.88964783 71.24121094 76.96774292 C76.34872598 90.61117708 81.48554743 104.24357228 86.625 117.875 C86.8685384 118.52100285 87.1120768 119.16700569 87.36299515 119.83258438 C96.18856602 143.24210166 105.06703786 166.63124458 114 190 C116.91684311 187.08315689 117.67054983 183.478322 118.875 179.625 C119.13821045 178.78807617 119.4014209 177.95115234 119.67260742 177.08886719 C129.97183321 143.25888051 129.43988508 109.3462656 122 75 C146.77626887 67.26198036 146.77626887 67.26198036 158 65 C173.86234171 121.92728724 164.84009769 181.11823901 136.56884766 232.60644531 C130.61806177 243.13138944 123.76541513 252.7487076 116 262 C115.48727539 262.61423828 114.97455078 263.22847656 114.44628906 263.86132812 C109.17812248 270.15215778 103.86117315 276.25137523 98 282 C98.99 285.465 98.99 285.465 100 289 C96.04 291.97 92.08 294.94 88 298 C84.25537224 294.25537224 81.5258304 291.13767631 78.5625 286.875 C73.71564276 279.9549753 68.70790655 273.1626327 63.64672852 266.39794922 C63.07237061 265.62467285 62.4980127 264.85139648 61.90625 264.0546875 C61.39384766 263.36874512 60.88144531 262.68280273 60.35351562 261.97607422 C59.03240196 260.04730547 57.99074344 258.11449241 57 256 C58.92841458 254.46623771 60.86621794 252.9482818 62.8125 251.4375 C63.35970703 250.99986328 63.90691406 250.56222656 64.47070312 250.11132812 C65.9221958 248.99411861 67.45810571 247.98871133 69 247 C72.33537489 248.11179163 73.63707344 249.47411298 76 252 C76.25265625 251.41605469 76.5053125 250.83210937 76.765625 250.23046875 C78.51758537 247.06474288 81.0862795 244.92265251 83.734375 242.48828125 C86.01140294 238.01153187 83.65004634 233.07723585 82.209198 228.47297668 C81.27397813 225.69493626 80.30175633 222.93252968 79.31640625 220.171875 C78.76598915 218.61046783 78.76598915 218.61046783 78.20445251 217.01751709 C76.99564729 213.59315523 75.77919369 210.17156619 74.5625 206.75 C73.70538905 204.32759427 72.8486241 201.9050661 71.9921875 199.48242188 C65.43869203 180.9655444 58.80738696 162.47647975 52.15991211 143.99316406 C45.42138775 125.24411481 38.80378638 106.45336278 32.22851562 87.64648438 C28.63133912 77.3716308 25.03312391 67.11394879 21 57 C3.23105205 106.52310969 -14.47560226 156.0682768 -32.11083984 205.63916016 C-32.53477524 206.83077759 -32.95871063 208.02239502 -33.39549255 209.25012207 C-34.17786536 211.44938827 -34.96015163 213.64868526 -35.74232483 215.84802246 C-38.48833965 223.56770856 -41.24420637 231.28377783 -44 239 C-59.18 239 -74.36 239 -90 239 C-81.98684692 216.10527693 -81.98684692 216.10527693 -78.01757812 205.81640625 C-75.99726775 200.56943291 -73.98737815 195.31851921 -71.98046875 190.06640625 C-71.59954071 189.06980988 -71.21861267 188.0732135 -70.82614136 187.04641724 C-65.45410944 172.97393924 -60.16064117 158.87171439 -54.85569763 144.77384949 C-47.28892121 124.66661762 -39.71630265 104.56203844 -32.05126953 84.49200439 C-25.16691925 66.46585187 -18.3331297 48.42061483 -11.5 30.375 C-11.21301617 29.61713322 -10.92603233 28.85926643 -10.63035202 28.07843399 C-7.08626336 18.7191974 -3.54301185 9.35964437 0 0 Z " fill="#00202F" transform="translate(313,136)"/>
<path d="M0 0 C5.61 0 11.22 0 17 0 C17 16.83 17 33.66 17 51 C11.39 51 5.78 51 0 51 C-0.33 49.02 -0.66 47.04 -1 45 C-28.57479009 49.76857272 -56.45512829 58.88884737 -79 76 C-80.04671875 76.76699219 -81.0934375 77.53398438 -82.171875 78.32421875 C-91.04020177 84.90567043 -99.1900473 92.1900473 -107 100 C-42.65 100.495 -42.65 100.495 23 101 C23 114.2 23 127.4 23 141 C0.89 141.33 -21.22 141.66 -44 142 C-44.33 162.46 -44.66 182.92 -45 204 C-58.86 204 -72.72 204 -87 204 C-87.33 183.54 -87.66 163.08 -88 142 C-104.5 142 -121 142 -138 142 C-138.99 144.97 -139.98 147.94 -141 151 C-141.86987011 153.1979535 -142.76238214 155.38722288 -143.6875 157.5625 C-144.34298828 159.11130859 -144.34298828 159.11130859 -145.01171875 160.69140625 C-145.50091797 161.83416016 -145.50091797 161.83416016 -146 163 C-158.14411346 160.11662111 -170.0705316 156.6668448 -182 153 C-179.95921801 145.19809154 -176.95795155 138.1173428 -173.4375 130.875 C-172.64122192 129.23011597 -172.64122192 129.23011597 -171.82885742 127.55200195 C-165.19446993 114.06211377 -157.3747698 101.76193715 -148 90 C-147.20464844 88.9996875 -146.40929687 87.999375 -145.58984375 86.96875 C-134.00401868 72.71012894 -120.86662646 59.79786553 -106 49 C-105.00355469 48.25878906 -104.00710937 47.51757812 -102.98046875 46.75390625 C-78.05416308 28.80312643 -50.24660374 17.10194392 -20.4375 10.1875 C-19.54554932 9.9802832 -18.65359863 9.77306641 -17.73461914 9.55957031 C-11.84387932 8.25430783 -6.01416004 7.46858348 0 7 C0 4.69 0 2.38 0 0 Z " fill="#00202F" transform="translate(231,32)"/>
<path d="M0 0 C3.83663072 1.34929464 6.65172569 3.07751025 9.8125 5.625 C10.60269531 6.25664062 11.39289063 6.88828125 12.20703125 7.5390625 C12.79871094 8.02117187 13.39039063 8.50328125 14 9 C13.01 10.98 12.02 12.96 11 15 C55.01903113 37.24617702 105.46821335 41.05405007 152.375 25.875 C166.57704805 21.08596799 180.77470353 14.93235852 192.94140625 6.08203125 C195 5 195 5 196.92602539 5.18408203 C199.64720022 6.25461367 200.55149883 7.60088814 202.2421875 9.97265625 C203.12970703 11.19952148 203.12970703 11.19952148 204.03515625 12.45117188 C204.64230469 13.31291016 205.24945313 14.17464844 205.875 15.0625 C207.08046384 16.74107599 208.28619062 18.41946319 209.4921875 20.09765625 C210.07452148 20.91766113 210.65685547 21.73766602 211.25683594 22.58251953 C213.41580721 25.57665589 215.66360477 28.49690403 217.93798828 31.40405273 C219 33 219 33 219 35 C217.49731445 36.16992188 217.49731445 36.16992188 215.36328125 37.46875 C214.56978271 37.95239014 213.77628418 38.43603027 212.95874023 38.93432617 C212.08548096 39.45099854 211.21222168 39.9676709 210.3125 40.5 C209.40765869 41.03536377 208.50281738 41.57072754 207.57055664 42.12231445 C155.82240416 72.25997391 95.03806323 80.96580338 37.0390625 65.7265625 C22.76116842 61.75768332 9.14913792 56.41612664 -4.10107422 49.79370117 C-4.83471191 49.42865479 -5.56834961 49.0636084 -6.32421875 48.6875 C-7.2846106 48.19830078 -7.2846106 48.19830078 -8.2644043 47.69921875 C-10.15191981 46.81315794 -10.15191981 46.81315794 -13 47 C-14.32 48.32 -15.64 49.64 -17 51 C-20.96 48.03 -24.92 45.06 -29 42 C-27.55220698 38.38051744 -26.63472243 36.21759573 -24.453125 33.2421875 C-23.68971802 32.19297119 -23.68971802 32.19297119 -22.91088867 31.12255859 C-22.36279541 30.38086426 -21.81470215 29.63916992 -21.25 28.875 C-20.40175659 27.71411865 -20.40175659 27.71411865 -19.53637695 26.52978516 C-17.69669485 24.01556135 -15.84887835 21.50746729 -14 19 C-12.67562074 17.19803463 -11.35140288 15.39595061 -10.02734375 13.59375 C-6.69158132 9.0575487 -3.34850153 4.52680429 0 0 Z " fill="#2B9D8A" transform="translate(163,407)"/>
<path d="M0 0 C45.55738886 3.2969163 88.87118008 17.55438333 125 46 C125.93585938 46.72445312 126.87171875 47.44890625 127.8359375 48.1953125 C138.61187549 56.75918111 149.39721381 66.21237922 158 77 C159.23943359 78.51787109 159.23943359 78.51787109 160.50390625 80.06640625 C169.55838923 91.26894976 177.45562151 102.99872217 184.5 115.5625 C184.921604 116.31241211 185.34320801 117.06232422 185.77758789 117.83496094 C187.95964697 121.8081958 189.72758395 125.62261218 191 130 C193.64 129.67 196.28 129.34 199 129 C200.98 136.92 200.98 136.92 203 145 C196.54451086 146.8840397 190.08500494 148.75334109 183.62133789 150.60913086 C181.42323158 151.24246703 179.22627571 151.87981033 177.03051758 152.52124023 C173.87354962 153.44270658 170.7127204 154.34966731 167.55078125 155.25390625 C166.08020012 155.68818687 166.08020012 155.68818687 164.57991028 156.13124084 C163.65933334 156.39158615 162.73875641 156.65193146 161.7902832 156.92016602 C160.5811602 157.26991234 160.5811602 157.26991234 159.34761047 157.62672424 C156.64396614 158.05661025 154.63417776 157.67929819 152 157 C151.46467177 155.44240657 150.94734622 153.87861955 150.4375 152.3125 C150.14746094 151.44238281 149.85742188 150.57226562 149.55859375 149.67578125 C148.94858039 146.75368926 149.22296367 144.85599447 150 142 C151.65 141.67 153.3 141.34 155 141 C149.00904088 129.7573916 142.74344079 119.12411029 135 109 C134.30648437 108.0821875 133.61296875 107.164375 132.8984375 106.21875 C118.19771944 87.49873449 99.85281636 72.38068961 79 61 C78.05954834 60.48445557 78.05954834 60.48445557 77.10009766 59.95849609 C52.70191198 46.76576997 27.39163149 41.02581976 0 38 C0 25.46 0 12.92 0 0 Z " fill="#2B9D8A" transform="translate(267,37)"/>
<path d="M0 0 C16.17 4.62 32.34 9.24 49 14 C46.75 25.25 46.75 25.25 45 30 C42.36 29.67 39.72 29.34 37 29 C32.4799714 81.70676209 42.6592278 132.33193615 77.08203125 173.78125 C85.76755787 183.82886532 94.74435098 193.52794211 105 202 C98.80227404 212.43471679 91.60816971 223.39183029 83 232 C59.34818775 214.08027402 40.58414761 191.76011416 26 166 C25.63165039 165.36433105 25.26330078 164.72866211 24.88378906 164.07373047 C10.82447854 139.69247167 2.38032951 111.87686419 -1 84 C-1.0942627 83.25709717 -1.18852539 82.51419434 -1.28564453 81.7487793 C-2.14303881 74.27993954 -2.23189175 66.82463981 -2.25 59.3125 C-2.25200409 58.63990143 -2.25400818 57.96730286 -2.256073 57.27432251 C-2.27834763 26.55669526 -2.27834763 26.55669526 2 18 C-0.31 17.34 -2.62 16.68 -5 16 C-4.35828555 13.51969902 -3.71184679 11.04080278 -3.0625 8.5625 C-2.78889648 7.50192383 -2.78889648 7.50192383 -2.50976562 6.41992188 C-1.11328125 1.11328125 -1.11328125 1.11328125 0 0 Z " fill="#2B9D8A" transform="translate(38,201)"/>
<path d="M0 0 C15.86234171 56.92728724 6.84009769 116.11823901 -21.43115234 167.60644531 C-27.38193823 178.13138944 -34.23458487 187.7487076 -42 197 C-42.51272461 197.61423828 -43.02544922 198.22847656 -43.55371094 198.86132812 C-48.82187752 205.15215778 -54.13882685 211.25137523 -60 217 C-59.34 219.31 -58.68 221.62 -58 224 C-63.94 228.455 -63.94 228.455 -70 233 C-73.74462776 229.25537224 -76.4741696 226.13767631 -79.4375 221.875 C-84.28435724 214.9549753 -89.29209345 208.1626327 -94.35327148 201.39794922 C-94.92762939 200.62467285 -95.5019873 199.85139648 -96.09375 199.0546875 C-96.86235352 198.02577393 -96.86235352 198.02577393 -97.64648438 196.97607422 C-98.96759804 195.04730547 -100.00925656 193.11449241 -101 191 C-99.07158542 189.46623771 -97.13378206 187.9482818 -95.1875 186.4375 C-94.64029297 185.99986328 -94.09308594 185.56222656 -93.52929688 185.11132812 C-92.0778042 183.99411861 -90.54189429 182.98871133 -89 182 C-85.66462511 183.11179163 -84.36292656 184.47411298 -82 187 C-81.72542969 186.43724365 -81.45085937 185.8744873 -81.16796875 185.29467773 C-80.78253906 184.53743408 -80.39710938 183.78019043 -80 183 C-79.62488281 182.22793213 -79.24976563 181.45586426 -78.86328125 180.66040039 C-76.82525445 177.53886973 -75.22039819 175.94391136 -72 174 C-64.50210508 172.43981773 -56.60046846 173.15832062 -49 173.4375 C-46.8685738 173.48268066 -44.73705598 173.52373896 -42.60546875 173.56054688 C-37.40163642 173.65935872 -32.20124447 173.8096158 -27 174 C-27.4439209 172.78940918 -27.8878418 171.57881836 -28.34521484 170.33154297 C-29.99730124 165.82551824 -31.64823552 161.31907211 -33.29882812 156.8125 C-34.01238256 154.86479425 -34.72624633 152.91720179 -35.44042969 150.96972656 C-36.46891994 148.16501358 -37.49628466 145.3598905 -38.5234375 142.5546875 C-38.84122162 141.68883026 -39.15900574 140.82297302 -39.48641968 139.93087769 C-40.07325779 138.32693228 -40.65648121 136.72165753 -41.23527527 135.11479187 C-41.90054049 133.27504819 -42.58653507 131.44282625 -43.27612305 129.61206055 C-44.31457102 125.86489196 -42.95876409 123.32832669 -41.4375 119.9375 C-27.01679176 84.85459475 -28.10566067 46.44425584 -36 10 C-32.39667716 8.89306722 -28.79218753 7.78997982 -25.1875 6.6875 C-24.18267578 6.37876953 -23.17785156 6.07003906 -22.14257812 5.75195312 C-3.3125 0 -3.3125 0 0 0 Z " fill="#2A9C89" transform="translate(471,201)"/>
<path d="M0 0 C5.61 0 11.22 0 17 0 C17 16.83 17 33.66 17 51 C11.39 51 5.78 51 0 51 C-0.33 49.02 -0.66 47.04 -1 45 C-28.57479009 49.76857272 -56.45512829 58.88884737 -79 76 C-80.04671875 76.76699219 -81.0934375 77.53398438 -82.171875 78.32421875 C-94.96257686 87.6043494 -94.96257686 87.6043494 -105.49291992 99.12841797 C-109.54001047 102.14964653 -113.76204467 101.49124231 -118.671875 101.390625 C-119.70942932 101.38496521 -120.74698364 101.37930542 -121.815979 101.37347412 C-125.12778992 101.35109491 -128.43851644 101.30089419 -131.75 101.25 C-133.99607812 101.22993706 -136.24217321 101.21168594 -138.48828125 101.1953125 C-143.99255709 101.15122518 -149.49620107 101.08429741 -155 101 C-153.3330595 96.48594613 -150.96404781 93.2728342 -147.8125 89.6875 C-147.06178223 88.8200415 -147.06178223 88.8200415 -146.29589844 87.93505859 C-145.30423613 86.79051235 -144.31001104 85.64818053 -143.31298828 84.50830078 C-142.27694523 83.318142 -141.25825413 82.11287855 -140.24609375 80.90234375 C-130.13296891 68.88805706 -118.65648392 58.26002259 -106 49 C-105.00097656 48.25621094 -104.00195312 47.51242188 -102.97265625 46.74609375 C-78.03793593 28.80721516 -50.24815446 17.10230362 -20.4375 10.1875 C-19.54554932 9.9802832 -18.65359863 9.77306641 -17.73461914 9.55957031 C-11.84387932 8.25430783 -6.01416004 7.46858348 0 7 C0 4.69 0 2.38 0 0 Z " fill="#2B9D8A" transform="translate(231,32)"/>
<path d="M0 0 C4.60326413 2.60184494 6.45425397 6.07207169 8 11 C8.28691499 13.81847778 8.43788613 16.41721686 8.43237305 19.23022461 C8.44766052 20.41681671 8.44766052 20.41681671 8.46325684 21.62738037 C8.493238 24.21910827 8.50262976 26.81046567 8.51171875 29.40234375 C8.52857651 31.20839146 8.54672822 33.01442751 8.56611633 34.82044983 C8.61350343 39.55665444 8.64338571 44.29281178 8.66955566 49.0291748 C8.69941829 53.86915417 8.74592899 58.70897087 8.79101562 63.54882812 C8.87692039 73.03248544 8.94278254 82.51612617 9 92 C14.28 86.72 19.56 81.44 25 76 C28.66771845 77.83385923 30.46834996 79.25062829 33.25 82.125 C33.95640625 82.84945312 34.6628125 83.57390625 35.390625 84.3203125 C35.92171875 84.87460937 36.4528125 85.42890625 37 86 C35.54483465 89.33248811 33.70905435 91.55833707 31.16455078 94.1418457 C30.37678253 94.94560135 29.58901428 95.74935699 28.77737427 96.57746887 C27.92529388 97.43491196 27.0732135 98.29235504 26.1953125 99.17578125 C25.31978729 100.06033493 24.44426208 100.94488861 23.54220581 101.85624695 C21.69055028 103.72240348 19.83607541 105.5857662 17.97900391 107.4465332 C15.5973872 109.83355387 13.23237655 112.23634162 10.87095833 114.64332294 C8.61512946 116.93597955 6.34160237 119.21095647 4.0703125 121.48828125 C3.22228058 122.35584549 2.37424866 123.22340973 1.5005188 124.11726379 C0.70644623 124.90525864 -0.08762634 125.69325348 -0.90576172 126.50512695 C-1.60144257 127.20587845 -2.29712341 127.90662994 -3.0138855 128.62861633 C-5 130 -5 130 -7.1197052 129.83233643 C-9.80899728 128.64188706 -11.45608206 126.89701009 -13.51953125 124.80859375 C-14.37740234 123.94556641 -15.23527344 123.08253906 -16.11914062 122.19335938 C-17.00794922 121.28392578 -17.89675781 120.37449219 -18.8125 119.4375 C-19.68970703 118.55513672 -20.56691406 117.67277344 -21.47070312 116.76367188 C-25.91830898 112.26284112 -30.20602356 107.68349819 -34.33129883 102.88696289 C-37.22358054 99.61637835 -40.33014052 96.56461273 -43.4375 93.5 C-44.39172852 92.55253906 -44.39172852 92.55253906 -45.36523438 91.5859375 C-46.90782806 90.05494226 -48.45357314 88.52712333 -50 87 C-49.06280291 85.88167191 -48.12198826 84.76637489 -47.1796875 83.65234375 C-46.65616699 83.03093506 -46.13264648 82.40952637 -45.59326172 81.76928711 C-43.59954754 79.55530509 -41.39658203 77.76219267 -39 76 C-35.95667235 77.3584202 -33.87690849 78.88463024 -31.546875 81.2578125 C-30.61875 82.19560547 -30.61875 82.19560547 -29.671875 83.15234375 C-29.03765625 83.80332031 -28.4034375 84.45429688 -27.75 85.125 C-27.1003125 85.78371094 -26.450625 86.44242187 -25.78125 87.12109375 C-24.18288273 88.74296643 -22.58938103 90.3693281 -21 92 C-20.99635437 90.96096527 -20.99270874 89.92193054 -20.98895264 88.85140991 C-20.9519868 79.05214004 -20.89419668 69.25318395 -20.81609726 59.45415306 C-20.77661391 54.41652512 -20.74442959 49.3790722 -20.72900391 44.34130859 C-20.71384304 39.47815793 -20.67940747 34.61548842 -20.63169098 29.75255203 C-20.61687133 27.89868989 -20.60895865 26.04475905 -20.60811615 24.19083786 C-20.60574648 21.5907354 -20.5786678 18.99196264 -20.54589844 16.39208984 C-20.5509288 15.62819946 -20.55595917 14.86430908 -20.56114197 14.07727051 C-20.46082839 8.92174066 -19.29321174 5.94952388 -16 2 C-10.58811709 -1.28957589 -5.99248767 -1.63329081 0 0 Z " fill="#2B9D8A" transform="translate(340,249)"/>
<path d="M0 0 C13.86 0 27.72 0 42 0 C42 31.02 42 62.04 42 94 C28.14 94 14.28 94 0 94 C0 62.98 0 31.96 0 0 Z " fill="#00202F" transform="translate(144,281)"/>
<path d="M0 0 C1.68249847 -0.01925285 1.68249847 -0.01925285 3.39898682 -0.03889465 C4.61664734 -0.04628159 5.83430786 -0.05366852 7.08886719 -0.0612793 C8.96103912 -0.07338692 8.96103912 -0.07338692 10.87103271 -0.08573914 C13.51741253 -0.09959101 16.16366731 -0.11060375 18.81005859 -0.11816406 C22.19065307 -0.12920878 25.57058571 -0.16358467 28.95094681 -0.20333576 C32.18435439 -0.23586289 35.41782094 -0.24028667 38.65136719 -0.2487793 C39.86093079 -0.26628738 41.07049438 -0.28379547 42.31671143 -0.30183411 C48.71026267 -0.28534359 52.82441399 -0.22624981 57.63574219 4.17700195 C60.7832373 7.84907958 61.16300733 11.21030251 60.98339844 15.89575195 C60.38386545 19.82976615 59.06031389 21.98677603 56.63574219 25.17700195 C50.96003184 29.17218819 44.89070748 28.61051501 38.22949219 28.57543945 C37.03142944 28.57830963 35.8333667 28.58117981 34.59899902 28.58413696 C32.07071458 28.58617477 29.54241427 28.5806648 27.01416016 28.56811523 C23.14938017 28.55205861 19.28564599 28.56797465 15.42089844 28.5871582 C12.96126072 28.58517572 10.50162365 28.58133195 8.04199219 28.57543945 C6.88872437 28.58151215 5.73545654 28.58758484 4.54724121 28.59384155 C-2.51077989 28.53211706 -7.29584503 27.99662451 -12.67675781 23.05200195 C-14.97360798 19.13884981 -15.56379806 15.69459319 -15.36425781 11.17700195 C-12.80791978 3.65000664 -7.70688704 0.07662987 0 0 Z " fill="#2B9D8A" transform="translate(142.3642578125,244.822998046875)"/>
<path d="M0 0 C0.33 0 0.66 0 1 0 C1 12.87 1 25.74 1 39 C7.27 39 13.54 39 20 39 C15.545 49.89 15.545 49.89 11 61 C-1.14107992 58.07714743 -13.0643919 54.668732 -25 51 C-22.95915571 43.19785335 -19.95704357 36.11796485 -16.4375 28.875 C-15.91244873 27.78711182 -15.38739746 26.69922363 -14.84643555 25.57836914 C-10.48547138 16.69146688 -5.74159241 8.07674739 0 0 Z " fill="#2A9C89" transform="translate(74,134)"/>
</svg>
