<?xml version="1.0" encoding="UTF-8"?>
<svg version="1.1" xmlns="http://www.w3.org/2000/svg" width="512" height="512">
<path d="M0 0 C1.01790619 0.00215515 2.03581238 0.0043103 3.08456421 0.00653076 C17.69363523 0.05620146 32.02575853 0.30709809 46.375 3.3125 C47.34985352 3.51117676 48.32470703 3.70985352 49.32910156 3.91455078 C97.7109774 14.03517194 141.69928269 35.9516877 177.375 70.3125 C178.3640332 71.26068604 178.3640332 71.26068604 179.37304688 72.22802734 C188.86130305 81.37247479 197.6012044 90.66984009 205.375 101.3125 C206.23306152 102.46355017 207.09113451 103.61459177 207.94921875 104.765625 C213.98736829 112.95680614 219.34595521 121.47054105 224.375 130.3125 C224.73948242 130.94430176 225.10396484 131.57610352 225.47949219 132.22705078 C247.00981855 169.84336237 256.83759735 212.56515288 256.75 255.625 C256.74918427 257.13927582 256.74918427 257.13927582 256.74835205 258.68414307 C256.70757156 275.19958953 255.77994321 291.10183935 252.375 307.3125 C252.16601074 308.32779785 251.95702148 309.3430957 251.74169922 310.38916016 C242.93272896 351.84740747 223.87378029 390.13202772 196.375 422.3125 C195.73820312 423.06144531 195.10140625 423.81039063 194.4453125 424.58203125 C182.62797532 438.07770621 169.88948412 450.74808025 155.375 461.3125 C154.22505169 462.16899066 153.07531411 463.02576433 151.92578125 463.8828125 C143.73565742 469.92284209 135.23120382 475.30617614 126.375 480.3125 C125.66778809 480.7146875 124.96057617 481.116875 124.23193359 481.53125 C98.02919713 496.28361537 69.08869203 505.81885806 39.375 510.3125 C38.25254883 510.48910156 37.13009766 510.66570312 35.97363281 510.84765625 C24.36052257 512.5045586 12.84320055 512.71123513 1.125 512.6875 C-0.39302216 512.68668427 -0.39302216 512.68668427 -1.94171143 512.68585205 C-18.47030572 512.64511956 -34.40413999 511.74174222 -50.625 508.3125 C-51.66688477 508.09287598 -52.70876953 507.87325195 -53.78222656 507.64697266 C-100.07549311 497.54935215 -142.48913721 475.19021242 -176.625 442.3125 C-177.28435547 441.68037598 -177.94371094 441.04825195 -178.62304688 440.39697266 C-188.11130305 431.25252521 -196.8512044 421.95515991 -204.625 411.3125 C-205.48306152 410.16144983 -206.34113451 409.01040823 -207.19921875 407.859375 C-213.23736829 399.66819386 -218.59595521 391.15445895 -223.625 382.3125 C-223.98948242 381.68069824 -224.35396484 381.04889648 -224.72949219 380.39794922 C-239.66085402 354.31089649 -249.13420268 324.97749753 -253.625 295.3125 C-253.80232666 294.19367432 -253.97965332 293.07484863 -254.16235352 291.92211914 C-255.84376341 280.20014053 -255.98234341 268.57751024 -255.9375 256.75 C-255.93426727 255.21939438 -255.93426727 255.21939438 -255.93096924 253.65786743 C-255.88133352 239.03039476 -255.63419712 224.67986162 -252.625 210.3125 C-252.42632324 209.33764648 -252.22764648 208.36279297 -252.02294922 207.35839844 C-241.90232806 158.9765226 -219.9858123 114.98821731 -185.625 79.3125 C-184.99287598 78.65314453 -184.36075195 77.99378906 -183.70947266 77.31445312 C-174.56502521 67.82619695 -165.26765991 59.0862956 -154.625 51.3125 C-153.47394983 50.45443848 -152.32290823 49.59636549 -151.171875 48.73828125 C-142.98224019 42.70072604 -134.47961724 37.31792698 -125.625 32.3125 C-124.91778809 31.9103125 -124.21057617 31.508125 -123.48193359 31.09375 C-100.34654164 18.0683259 -75.17537591 9.31948539 -49.1875 4 C-48.46860596 3.85264404 -47.74971191 3.70528809 -47.0090332 3.5534668 C-31.36274391 0.57960912 -15.88931954 -0.06050362 0 0 Z " fill="#D03143" transform="translate(255.625,-0.3125)"/>
<path d="M0 0 C9.23158104 6.94628056 18.17049492 14.30238825 26.92724609 21.83618164 C36.38717071 29.96419821 46.15722816 37.72846857 57.1953125 43.6015625 C59.71604293 44.99192054 61.34445188 46.13829635 62.9375 48.5625 C63.49976974 52.43591377 63.84829682 54.94600946 61.9140625 58.37890625 C59.77305118 61.07139018 58.22204863 62.46765046 54.9375 63.5625 C44.39279379 64.1710735 34.0780244 63.83284963 23.9375 60.5625 C23.28217285 60.36237305 22.6268457 60.16224609 21.95166016 59.95605469 C17.19069562 58.11896166 15.23388571 55.93004577 12.96875 51.359375 C12.09845836 49.35506697 11.25522865 47.33882131 10.4375 45.3125 C9.99664062 44.28125 9.55578125 43.25 9.1015625 42.1875 C8.02282876 39.65482078 6.96950871 37.1144919 5.9375 34.5625 C7.53808021 71.48622964 17.3953521 110.70993903 34.62207031 143.47216797 C35.0703418 144.3385791 35.51861328 145.20499023 35.98046875 146.09765625 C36.38289795 146.844104 36.78532715 147.59055176 37.19995117 148.35961914 C38.14401521 151.17931122 37.90198838 152.76847865 36.9375 155.5625 C33.49299263 157.85883824 30.99937717 158.10266485 26.9375 158.5625 C26.9375 158.8925 26.9375 159.2225 26.9375 159.5625 C27.82308594 159.78164062 28.70867187 160.00078125 29.62109375 160.2265625 C50.48948441 165.56852306 71.24042085 173.00769424 88.9375 185.5625 C89.88496094 186.22636719 90.83242188 186.89023438 91.80859375 187.57421875 C105.71279373 197.64527127 119.93472289 210.05547944 127.9375 225.5625 C127.84280733 230.86528931 126.61968754 233.76873102 122.9375 237.5625 C118.94627591 239.55811204 113.83383487 238.12248042 109.6953125 236.90039062 C107.42313201 236.0816779 105.18022961 235.20864803 102.9375 234.3125 C84.88843436 227.44820211 67.01103757 223.65796015 47.9375 220.5625 C46.25430664 220.28865479 46.25430664 220.28865479 44.53710938 220.00927734 C34.14945232 218.36167445 24.01271364 217.40523592 13.4921875 217.359375 C12.41662598 217.35245132 11.34106445 217.34552765 10.23291016 217.33839417 C6.75940278 217.32113596 3.28604832 217.31479941 -0.1875 217.3125 C-1.37744568 217.31116058 -2.56739136 217.30982117 -3.793396 217.30844116 C-21.4330921 217.31274418 -38.62943991 218.05831514 -56.14453125 220.13037109 C-63.81044181 220.97587593 -71.50123343 221.55960193 -79.1875 222.1875 C-82.10705187 222.4264414 -85.02627344 222.66894328 -87.9453125 222.9140625 C-89.79213623 223.06609131 -89.79213623 223.06609131 -91.67626953 223.22119141 C-94.96507847 223.5002569 -94.96507847 223.5002569 -97.78125 224.0925293 C-102.74063664 224.80285811 -107.67589292 224.72530403 -112.6796875 224.73046875 C-114.37461838 224.73546135 -114.37461838 224.73546135 -116.10379028 224.74055481 C-118.49594721 224.74561094 -120.88811117 224.74796354 -123.28027344 224.74780273 C-126.89009711 224.74997152 -130.49960606 224.76809239 -134.109375 224.78710938 C-149.92498573 224.82685672 -165.00993728 224.146182 -180.4375 220.375 C-181.31760742 220.16069336 -182.19771484 219.94638672 -183.10449219 219.72558594 C-205.48364237 214.03624427 -236.70537838 201.59818243 -250.0625 181.5625 C-250.51931807 177.45113735 -250.51981782 175.29747507 -248.3125 171.75 C-244.29340771 167.84254917 -241.1753447 167.30188582 -235.62109375 167.0703125 C-233.68230347 166.97592896 -233.68230347 166.97592896 -231.7043457 166.87963867 C-231.01925934 166.84889252 -230.33417297 166.81814636 -229.62832642 166.78646851 C-203.08731077 165.55229472 -175.92577039 162.40799211 -151.0625 152.5625 C-140.11415774 148.78720957 -131.88334004 151.20118768 -121.0625 154.5625 C-105.47952369 159.28635973 -89.16156426 158.82019835 -73.0625 158.6875 C-70.91927505 158.67744248 -68.77604549 158.66832157 -66.6328125 158.66015625 C-61.44259208 158.63838003 -56.2525986 158.60400546 -51.0625 158.5625 C-53.20278039 156.42221961 -57.83672662 156.94796339 -60.8125 156.6875 C-85.24714293 154.35882048 -110.71736886 151.66064866 -132.0625 138.5625 C-132.29519234 134.12144681 -131.78946008 131.25929948 -129.82421875 127.28125 C-129.0969458 125.78766968 -129.0969458 125.78766968 -128.35498047 124.26391602 C-127.82533691 123.20744873 -127.29569336 122.15098145 -126.75 121.0625 C-126.20746582 119.95898193 -125.66493164 118.85546387 -125.10595703 117.71850586 C-123.98183071 115.43709459 -122.85222844 113.15837367 -121.71728516 110.88232422 C-120.1880409 107.81435972 -118.67522198 104.73896801 -117.16796875 101.66015625 C-77.37947609 20.73404931 -77.37947609 20.73404931 -42.0625 -1.4375 C-41.42441406 -1.84742188 -40.78632813 -2.25734375 -40.12890625 -2.6796875 C-26.58829381 -10.94277839 -12.4531184 -8.7393546 0 0 Z " fill="#FEFEFE" transform="translate(317.0625,52.4375)"/>
<path d="M0 0 C3.31232698 -0.08834684 6.62434435 -0.14083584 9.9375 -0.1875 C10.86369141 -0.21263672 11.78988281 -0.23777344 12.74414062 -0.26367188 C25.53179834 -0.3982788 25.53179834 -0.3982788 30 3 C32.39392303 7.0950821 33.64101847 11.39375633 34.9375 15.9375 C35.30939453 17.11119141 35.68128906 18.28488281 36.06445312 19.49414062 C42.49118126 40.36658442 43.11860693 61.2331344 34.125 81.46875 C32.65699322 83.46687034 31.30410074 84.12677608 29 85 C25.6875 85.125 25.6875 85.125 22 84 C19.97460121 82.06193873 18.27962968 80.03876781 16.578125 77.8125 C15.033897 75.72917202 15.033897 75.72917202 12 75 C12.02094727 75.58265625 12.04189453 76.1653125 12.06347656 76.765625 C12.95864361 105.59227021 12.95864361 105.59227021 6.078125 115.87109375 C4 118 4 118 0.5 119 C-3 119 -3 119 -5.4375 117.6875 C-7 116 -7 116 -7 114 C-7.99 114 -8.98 114 -10 114 C-9.896875 114.9075 -9.79375 115.815 -9.6875 116.75 C-9.74965728 127.00595171 -16.43007405 135.74385355 -23 143 C-23.79857422 143.90298828 -23.79857422 143.90298828 -24.61328125 144.82421875 C-32.43203343 153.14740656 -42.30472241 159.55070517 -51.625 166.0625 C-59.83926122 171.80736493 -67.93069477 177.59489542 -74.75 185 C-77.19885688 187.51915899 -78.07947988 188.02466617 -81.625 189.125 C-86.18816388 188.95599393 -88.72076118 187.34401041 -91.8515625 184.0546875 C-92.43679687 183.33539063 -93.02203125 182.61609375 -93.625 181.875 C-97.40707805 177.48382323 -101.54644749 173.98170733 -106.0703125 170.37890625 C-119.75781941 159.26465064 -132.64507306 146.93043272 -139.09765625 130.14453125 C-139.79770186 127.82990872 -139.79770186 127.82990872 -142 127 C-142.309375 127.804375 -142.61875 128.60875 -142.9375 129.4375 C-144 132 -144 132 -145 133 C-148.1875 133.5 -148.1875 133.5 -152 133 C-153.44091797 131.73852539 -153.44091797 131.73852539 -154.8046875 130.03515625 C-155.3195874 129.39787598 -155.8344873 128.7605957 -156.36499023 128.10400391 C-156.90454346 127.40968262 -157.44409668 126.71536133 -158 126 C-158.55437744 125.29665527 -159.10875488 124.59331055 -159.67993164 123.86865234 C-171.67750983 108.43080474 -180.94985468 93.53219101 -183.6875 73.875 C-183.88182617 72.59302734 -183.88182617 72.59302734 -184.08007812 71.28515625 C-184.77906439 66.46991755 -185.13841501 61.8642989 -185 57 C-185.99 57 -186.98 57 -188 57 C-188 57.66 -188 58.32 -188 59 C-191.11770921 60.84753138 -193.38115411 61.54282688 -197 61 C-200.56577928 58.32566554 -201.3490392 56.29634131 -202 52 C-203.27315161 34.9075367 -201.18998549 19.55044267 -197 3 C-188.75 3.99 -180.5 4.98 -172 6 C-171.484375 8.145 -170.96875 10.29 -170.4375 12.5 C-165.11568785 32.90742379 -154.7232208 49.5597135 -137.40625 61.93359375 C-134.04615552 63.42272653 -131.66440323 63.30405095 -128 63 C-125.51406676 61.75079174 -123.22898988 60.46437087 -120.86328125 59.02734375 C-111.16185912 53.6885919 -101.99102549 54.11477215 -91.1875 54.5625 C-88.47281147 54.63503628 -85.75806668 54.69603793 -83.04304504 54.75462341 C-81.37110726 54.79493326 -79.69937786 54.84561022 -78.02812195 54.90809631 C-74.71650618 55.0226032 -72.17210456 55.05736819 -69 54 C-60.11393992 53.23771543 -53.55622773 53.72801595 -45.5546875 57.859375 C-41.3076553 59.75560344 -37.51353849 60.16794402 -33 59 C-29.81920188 57.10792303 -27.48780676 54.71853078 -25 52 C-24.319375 51.30132812 -23.63875 50.60265625 -22.9375 49.8828125 C-9.68325671 35.77507627 -4.55659967 18.36691056 0 0 Z " fill="#FEFDFD" transform="translate(338,278)"/>
<path d="M0 0 C0.99966797 0.28617187 1.99933594 0.57234375 3.02929688 0.8671875 C5.46107825 1.56530655 7.88823916 2.27628259 10.3125 3 C9.3878378 4.43294278 8.45691415 5.86184614 7.5234375 7.2890625 C7.00571777 8.08521973 6.48799805 8.88137695 5.95458984 9.70166016 C1.84301921 15.45639193 -3.63157044 19.67701321 -10.6875 21 C-23.12307485 21.98175591 -30.94312991 20.74000792 -40.56640625 12.91796875 C-43.60710483 10.16846046 -46.13584212 7.20592913 -48.6875 4 C-45.23572587 1.69881725 -41.90711988 0.89006389 -37.9375 -0.0625 C-36.90109375 -0.32256836 -36.90109375 -0.32256836 -35.84375 -0.58789062 C-23.22504342 -3.68326884 -12.45446299 -3.72375863 0 0 Z " fill="#D03546" transform="translate(271.6875,356)"/>
</svg>
